<svg width="777" height="700" viewBox="0 0 777 700"  fill="none" xmlns="http://www.w3.org/2000/svg">
<symbol id="overlay" >
<g style="mix-blend-mode:overlay">
<path d="M530.78 609.3L530.388 608.482L531.885 607.457L527.706 599.106L527.373 601.869L525.468 610.118L525.652 610.574L527.211 610.076L527.603 610.894L523.006 613.227L522.614 612.409L523.87 611.523L518.723 601.079L517.259 601.603L516.867 600.785L521.559 598.477L521.951 599.295L520.6 600.156L524.849 608.628L525.131 606.055L527.087 597.616L526.739 597.013L525.059 597.582L524.667 596.764L529.359 594.456L529.751 595.274L528.4 596.134L533.547 606.578L534.986 606.149L535.378 606.967L530.78 609.3Z" fill="#313131"/>
<path d="M519.405 614.502C518.897 614.876 518.536 615.084 518.174 615.293C517.813 615.502 517.451 615.711 517.115 615.824C515.72 616.469 514.522 616.759 513.546 616.599C512.57 616.44 511.886 615.951 511.45 614.918C511.084 614.004 511.002 613.168 511.327 612.338C511.651 611.508 512.235 610.85 512.983 610.337C511.95 610.773 511.018 610.829 510.163 610.6C509.333 610.276 508.769 609.717 508.377 608.899C507.802 607.625 507.772 606.598 508.242 605.604C508.712 604.609 509.753 603.768 511.389 602.984C512.086 602.661 512.758 602.434 513.284 602.371C513.836 602.213 514.362 602.151 514.672 602.132C514.983 602.113 515.199 602.069 515.294 602.095L516.291 605.214L515.473 605.606L513.98 603.576C513.289 603.493 512.522 603.695 511.489 604.131C510.696 604.428 510.258 604.922 510.08 605.587C509.902 606.252 510.008 606.994 510.375 607.907C510.697 608.604 511.166 609.137 511.805 609.411C512.445 609.684 513.282 609.602 514.315 609.166L515.47 608.661L515.931 609.599L514.898 610.035C514.441 610.219 514.054 610.522 513.642 610.921C513.324 611.345 513.102 611.795 512.975 612.27C512.942 612.771 512.98 613.392 513.232 613.969C513.529 614.762 514.023 615.199 514.593 615.352C515.163 615.505 515.81 615.373 516.603 615.076C517.085 614.797 517.541 614.614 517.833 614.285C518.125 613.956 518.296 613.696 518.347 613.506L517.994 611.782L519.054 611.251L520.394 613.851C520.274 613.92 519.912 614.129 519.405 614.502Z" fill="#313131"/>
<path d="M504.181 619.998L505.69 619.689L506.056 620.602L503.679 621.493C503.317 621.702 502.766 621.859 502.189 622.112C501.612 622.365 501.25 622.574 501.009 622.713C499.424 623.307 498.156 623.476 497.301 623.247C496.446 623.018 495.787 622.434 495.446 621.426C495.149 620.633 495.068 619.797 495.367 619.062C495.571 618.302 496.154 617.643 496.877 617.226C495.749 617.637 494.792 617.787 493.962 617.463C493.132 617.139 492.473 616.555 492.132 615.547C491.627 614.393 491.717 613.297 492.308 612.233C492.898 611.169 494.059 610.258 495.98 609.55C496.437 609.367 496.773 609.253 497.204 609.165C498.092 608.893 498.669 608.641 498.884 608.597L501.167 607.68L501.438 608.568L500.018 609.308L504.181 619.998ZM496.277 610.343C495.123 610.848 494.375 611.361 493.981 612.07C493.587 612.779 493.694 613.521 493.965 614.409C494.332 615.322 494.8 615.855 495.44 616.128C496.08 616.401 496.916 616.32 497.95 615.884C499.104 615.378 499.871 615.176 500.233 614.967L498.268 609.756C497.862 609.749 497.285 610.002 496.277 610.343ZM499.54 616.412L498.627 616.778C497.835 617.075 497.302 617.543 497.028 618.183C496.755 618.823 496.767 619.539 497.159 620.357C497.456 621.15 497.924 621.683 498.469 621.93C499.014 622.178 499.85 622.097 500.884 621.661C501.34 621.478 501.702 621.269 502.158 621.086L502.52 620.877L500.669 616.001C500.428 616.14 500.092 616.254 499.54 616.412Z" fill="#313131"/>
<path d="M489.343 626.717L487.422 627.425L479.012 616.615L477.84 616.81L477.568 615.923L482.273 614.331L482.544 615.219L481.149 615.864L482.851 618.255L488.012 616.48L487.965 613.616L486.361 613.899L486.089 613.011L490.337 611.603L490.609 612.491L489.55 613.022L489.343 626.717ZM487.356 624.25L488.311 625.626L488.174 623.858L488.017 617.602L483.528 619.15L487.356 624.25Z" fill="#313131"/>
<path d="M474.727 617.402C475.867 617.708 476.741 618.248 477.514 619.168C478.286 620.087 478.912 621.172 479.246 622.586C479.606 623.904 479.68 625.147 479.444 626.407C479.208 627.668 478.643 628.637 477.818 629.435C476.993 630.232 476.004 630.884 474.78 631.269C473.893 631.541 472.72 631.736 471.383 631.785L470.762 631.822L470.005 628.564L471.229 628.178L472.386 630.322C472.576 630.373 472.956 630.475 473.361 630.482C473.767 630.488 474.319 630.331 474.965 630.198C475.732 629.996 476.36 629.554 476.824 628.965C477.287 628.376 477.611 627.546 477.65 626.64C477.689 625.734 477.589 624.586 477.274 623.483C476.958 622.38 476.522 621.347 475.915 620.573C475.307 619.799 474.674 619.12 473.939 618.821C473.205 618.522 472.324 618.388 471.436 618.66C470.79 618.792 470.308 619.07 470.067 619.209C469.826 619.348 469.534 619.678 469.362 619.937L469.138 621.914L467.966 622.109L467.652 619.479C467.867 619.435 468.229 619.226 468.711 618.948C469.098 618.644 469.459 618.435 469.916 618.252C470.277 618.044 470.829 617.886 471.38 617.728C472.439 617.197 473.587 617.097 474.727 617.402Z" fill="#313131"/>
<path d="M460.64 631.962C460.265 632.982 459.7 633.951 459.021 634.584C458.222 635.286 457.378 635.773 456.421 635.924C455.223 636.214 454.127 636.124 453.202 635.775C452.277 635.425 451.428 634.79 450.751 633.896C450.074 633.001 449.543 631.942 449.304 630.554C448.995 629.045 448.946 627.708 449.157 626.542C449.393 625.281 449.958 624.312 450.688 623.489C451.417 622.666 452.356 622.205 453.459 621.889C454.657 621.599 455.779 621.594 456.799 621.969C457.819 622.344 458.572 622.954 459.275 623.753C459.952 624.648 460.483 625.707 460.722 627.095L463.644 626.452L462.421 621.133L460.843 621.321L460.667 620.459L465.675 619.255L465.851 620.117L464.387 620.641L467.06 631.951L468.518 631.832L468.694 632.694L463.807 633.829L463.63 632.967L465.095 632.443L463.96 627.555L461.012 628.293C461.036 629.725 460.92 630.917 460.64 631.962ZM458.573 632.834C458.999 631.624 459.001 630.097 458.535 628.037C458.087 626.287 457.442 624.892 456.549 624.041C455.657 623.191 454.637 622.816 453.344 623.081C452.145 623.371 451.441 624.099 451.04 625.214C450.64 626.329 450.708 627.976 451.174 630.037C451.622 631.786 452.172 633.156 453.064 634.006C453.931 634.952 454.977 635.232 456.08 634.916C457.348 634.747 458.147 634.044 458.573 632.834Z" fill="#313131"/>
<path d="M439.366 631.151C438.803 630.592 437.979 629.862 437.112 628.917C436.479 628.238 436.106 627.731 435.777 627.439C435.448 627.147 435.188 626.975 434.998 626.925L434.307 626.841L434.131 625.979L436.381 625.564C436.692 625.545 437.046 625.742 437.445 626.154C437.844 626.567 438.477 627.246 439.154 628.14C439.996 629.18 440.629 629.859 441.192 630.418C441.66 630.951 442.11 631.173 442.541 631.085L443.714 630.89L442.776 625.647L441.128 625.715L440.951 624.853L445.978 623.959L446.129 624.916L444.69 625.345L446.717 636.787L448.244 636.789L448.395 637.746L443.489 638.571L443.389 637.423L444.854 636.899L443.941 631.562L442.337 631.845L439.516 637.812L441.069 637.718L441.22 638.676L436.719 639.507L436.568 638.55L438.008 638.12L441.07 632.015C440.569 631.982 439.955 631.614 439.366 631.151Z" fill="#313131"/>
<path d="M431.012 626.977C432.006 627.447 432.734 628.151 433.265 629.21C433.822 630.174 434.207 631.398 434.446 632.786C434.685 634.174 434.544 635.461 434.118 636.671C433.718 637.786 433.057 638.729 432.258 639.432C431.363 640.109 430.425 640.57 429.157 640.74C427.243 641.042 425.627 640.609 424.501 639.492C423.374 638.375 422.564 636.834 422.339 634.635C422.125 633.152 422.266 631.865 422.667 630.75C423.093 629.54 423.728 628.692 424.553 627.894C425.447 627.217 426.48 626.781 427.653 626.586C428.921 626.417 430.017 626.507 431.012 626.977ZM431.785 637.777C432.306 636.592 432.498 635.116 432.247 633.012C432.04 631.123 431.49 629.753 430.648 628.713C429.807 627.672 428.787 627.297 427.614 627.492C426.441 627.687 425.572 628.269 425.051 629.454C424.53 630.638 424.313 632.21 424.589 634.219C424.796 636.108 425.346 637.478 426.213 638.423C426.985 639.343 427.98 639.813 429.247 639.644C430.369 639.639 431.263 638.961 431.785 637.777Z" fill="#313131"/>
<path d="M419.638 640.532L421.14 640.629L421.196 641.56L418.686 641.805C418.281 641.798 417.729 641.956 417.108 641.993C416.461 642.125 416.056 642.118 415.84 642.162C414.167 642.325 412.881 642.184 412.102 641.67C411.323 641.156 410.905 640.433 410.78 639.381C410.698 638.544 410.928 637.689 411.296 637.074C411.664 636.46 412.413 635.948 413.3 635.676C412.153 635.776 411.177 635.616 410.398 635.102C409.619 634.588 409.228 633.77 409.172 632.838C409.097 631.596 409.377 630.551 410.227 629.658C411.078 628.765 412.447 628.216 414.526 628.06C414.957 627.972 415.363 627.978 415.864 628.011C416.795 627.955 417.416 627.917 417.606 627.968L420.116 627.724L420.172 628.656L418.664 628.965L419.638 640.532ZM414.652 629.112C413.409 629.186 412.496 629.553 412.033 630.142C411.475 630.705 411.271 631.465 411.422 632.423C411.478 633.354 411.8 634.052 412.32 634.395C412.839 634.738 413.694 634.967 414.746 634.841C415.989 634.767 416.825 634.685 417.161 634.572L416.705 629.051C416.325 628.949 415.704 628.986 414.652 629.112ZM416.209 635.844L415.157 635.97C414.32 636.051 413.623 636.374 413.28 636.893C412.937 637.412 412.733 638.172 412.815 639.009C412.896 639.846 413.123 640.518 413.643 640.861C414.162 641.203 414.922 641.407 415.974 641.282C416.405 641.193 416.906 641.226 417.363 641.043L417.794 640.954L417.356 635.744C417.046 635.763 416.735 635.782 416.209 635.844Z" fill="#313131"/>
<path d="M390.286 643.26L390.23 642.328L391.833 642.045L391.48 630.44L389.693 630.267L389.637 629.336L394.865 629.209L394.921 630.14L393.343 630.329L393.671 642.028L399.616 641.89L399.288 630.19L397.596 630.042L397.54 629.11L402.769 628.984L402.825 629.915L401.341 630.129L401.695 641.734L403.267 641.951L403.322 642.883L390.286 643.26Z" fill="#313131"/>
<path d="M385.878 630.06C386.726 630.695 387.429 631.494 387.839 632.623C388.275 633.656 388.445 634.924 388.469 636.356C388.397 637.763 388.161 639.024 387.571 640.088C386.98 641.152 386.25 641.975 385.286 642.532C384.322 643.088 383.219 643.404 382.097 643.409C380.164 643.4 378.72 642.708 377.714 641.521C376.733 640.24 376.26 638.585 376.25 636.342C376.226 634.909 376.583 633.579 377.173 632.515C377.764 631.451 378.519 630.533 379.483 629.976C380.447 629.42 381.55 629.104 382.767 629.125C383.984 629.145 385.029 629.425 385.878 630.06ZM385.123 640.858C385.809 639.82 386.216 638.299 386.25 636.271C386.234 634.433 385.925 632.925 385.299 631.84C384.673 630.756 383.704 630.19 382.487 630.17C381.27 630.15 380.306 630.706 379.62 631.745C378.935 632.783 378.502 634.399 378.468 636.427C378.459 638.36 378.698 639.748 379.419 640.858C380.045 641.942 381.014 642.507 382.231 642.528C383.404 642.333 384.343 641.871 385.123 640.858Z" fill="#313131"/>
<path d="M370.371 633.952C370.735 632.216 371.161 631.006 371.795 630.157C372.113 629.733 372.405 629.404 372.766 629.195C373.128 628.986 373.559 628.898 373.964 628.905C374.56 628.963 374.966 628.97 375.251 629.046L375.249 630.573C374.964 630.497 374.463 630.465 373.868 630.407C373.677 630.356 373.462 630.4 373.221 630.539C372.98 630.678 372.834 630.843 372.688 631.007C371.59 632.445 370.991 635.442 370.7 639.947L370.603 641.449L372.745 641.82L372.706 642.726L361.882 642.066L361.921 641.16L363.689 641.023L364.457 629.413L362.601 629.119L362.64 628.213L368.337 628.619L368.298 629.526L366.339 629.612L365.571 641.222L369.386 641.429L369.534 639.737C369.809 637.57 370.033 635.593 370.371 633.952Z" fill="#313131"/>
<path d="M358.493 640.649L360.013 641.057L359.879 641.937L350.374 640.918L350.447 637.984L351.544 638.074L351.871 639.893L356.49 640.52L357.08 635.279L354.006 634.965L353.599 636.486L352.598 636.421L353.027 632.156L354.029 632.221L354.096 633.869L357.144 634.278L357.715 628.727L352.424 628.328L351.217 630.551L350.127 630.055L350.993 626.824L361.284 627.952L361.15 628.833L359.623 628.831L358.493 640.649Z" fill="#313131"/>
<path d="M343.057 638.957L346.225 639.297L347.434 635.547L348.599 635.757L347.586 640.68L336.041 638.911L336.554 633.956L337.72 634.166L337.772 638.153L340.984 638.708L342.684 627.042L340.093 626.45L340.227 625.569L347.273 626.642L347.139 627.523L344.731 627.387L343.057 638.957Z" fill="#313131"/>
<path d="M329.727 629.784L330.608 629.918C330.944 629.804 331.356 629.405 331.699 628.886C332.042 628.367 332.626 627.708 333.14 626.929C333.654 626.151 334.118 625.562 334.435 625.137C334.752 624.713 334.993 624.574 335.183 624.625L337.705 625.097L337.571 625.978L336.829 626.085C336.614 626.129 336.398 626.173 336.106 626.502C335.84 626.736 335.402 627.23 334.939 627.819C334.329 628.572 333.866 629.161 333.454 629.56C333.016 630.054 332.654 630.262 332.198 630.446C333.002 630.865 333.565 631.423 333.888 632.121C334.21 632.818 334.292 633.655 334.132 634.631C333.845 636.082 333.185 637.025 332.272 637.392C331.264 637.733 330.021 637.807 328.38 637.47C328 637.368 327.62 637.266 327.05 637.113C326.48 636.96 326.005 636.833 325.719 636.757L323.103 636.259L323.237 635.378L324.834 635.501L327.078 624.083L325.393 623.53L325.527 622.649L330.951 623.695L330.817 624.575L329.03 624.402L328.137 629.256L329.727 629.784ZM327.184 636.232C327.754 636.385 328.229 636.512 328.61 636.614C329.585 636.774 330.302 636.762 330.904 636.414C331.507 636.066 331.875 635.452 332.06 634.381C332.22 633.405 332.138 632.569 331.695 631.941C331.252 631.313 330.638 630.944 329.688 630.69C328.712 630.53 328.047 630.352 327.736 630.371L326.639 635.984L327.184 636.232Z" fill="#313131"/>
<path d="M316.603 633.906L319.79 634.557L321.284 630.883L322.519 631.214L321.031 636.009L309.74 633.29L310.659 628.341L311.799 628.647L311.446 632.626L314.582 633.467L317.258 621.961L314.717 621.178L314.946 620.323L321.935 621.992L321.706 622.847L319.253 622.495L316.603 633.906Z" fill="#313131"/>
<path d="M304.6 618.263C305.397 619.088 305.833 620.122 306.028 621.294C306.223 622.467 306.082 623.754 305.7 625.179C305.344 626.509 304.633 627.643 303.808 628.441C302.957 629.333 301.898 629.864 300.795 630.18C299.597 630.47 298.501 630.38 297.265 630.049C296.315 629.794 295.321 629.324 294.067 628.682L293.522 628.435L294.673 625.28L295.908 625.611L295.677 627.994C295.816 628.235 296.076 628.406 296.431 628.603C296.785 628.8 297.33 629.048 297.9 629.2C298.661 629.404 299.377 629.392 300.144 629.19C300.816 628.963 301.564 628.451 302.079 627.672C302.688 626.918 303.158 625.924 303.464 624.783C303.769 623.643 303.954 622.572 303.924 621.545C303.893 620.519 303.622 619.631 303.204 618.908C302.787 618.185 302.103 617.696 301.153 617.442C300.488 617.263 300.012 617.136 299.607 617.129C299.201 617.122 298.865 617.236 298.624 617.375L297.406 618.882L296.316 618.387L297.479 615.948C297.764 616.024 298.17 616.031 298.67 616.063C299.171 616.096 299.576 616.103 299.982 616.109C300.388 616.116 300.958 616.269 301.528 616.422C302.763 616.753 303.827 617.344 304.6 618.263Z" fill="#313131"/>
<path d="M286.16 626.259L286.484 625.429L288.315 625.817L291.4 616.968L289.224 618.625L282.013 623.11L281.885 623.585L283.425 624.303L283.1 625.133L278.26 623.429L278.585 622.599L280.036 622.886L283.801 611.876L282.357 611.183L282.681 610.353L287.616 612.083L287.291 612.913L285.65 612.575L282.541 621.52L284.596 619.932L292.023 615.403L292.201 614.738L290.567 613.994L290.891 613.164L295.826 614.894L295.502 615.724L293.956 615.411L290.191 626.422L291.54 627.089L291.215 627.919L286.16 626.259Z" fill="#313131"/>
<path d="M267.067 619.207L268.72 614.557L269.93 614.983L269.032 618.715L272.776 620.329L277.136 609.377L274.153 607.966L274.477 607.137L281.306 609.781L280.982 610.611L278.986 610.076L274.771 620.864L276.545 621.849L276.221 622.678L267.067 619.207Z" fill="#313131"/>
<path d="M264.528 616.897L265.732 617.729L265.407 618.559L260.764 616.5L261.089 615.67L262.609 616.077L264.643 611.53L258.625 608.899L256.591 613.446L257.89 614.304L257.565 615.133L253.017 613.1L253.342 612.27L254.767 612.652L259.457 601.992L258.133 601.229L258.458 600.4L263.006 602.433L262.681 603.263L261.186 602.76L258.93 607.758L264.948 610.389L267.204 605.391L265.785 604.604L266.109 603.774L270.847 605.858L270.523 606.688L269.123 606.211L264.528 616.897Z" fill="#313131"/>
<path d="M246.817 610.012L245.018 609.123L246.726 595.524L245.783 594.864L246.202 594.06L250.604 596.258L250.185 597.062L248.69 596.56L248.236 599.392L253.088 601.813L255.081 599.698L253.687 598.816L254.107 598.011L258.059 599.987L257.64 600.791L256.525 600.391L246.817 610.012ZM247.061 606.818L246.723 608.46L247.891 607.143L252.263 602.61L248.051 600.463L247.061 606.818Z" fill="#313131"/>
<path d="M239.507 596.239C240.579 594.896 241.55 593.934 242.419 593.352C242.901 593.074 243.237 592.96 243.668 592.872C244.074 592.879 244.454 592.981 244.904 593.203C245.448 593.451 245.778 593.743 246.037 593.914L245.465 595.289C245.206 595.117 244.851 594.92 244.237 594.552C244.072 594.406 243.882 594.355 243.666 594.399C243.451 594.443 243.235 594.487 242.994 594.627C241.453 595.436 239.575 597.886 237.288 601.857L236.526 603.181L238.318 604.476L237.899 605.28L228.513 600.015L228.932 599.211L230.592 599.859L236.276 589.669L234.718 588.64L235.138 587.836L240.198 590.618L239.779 591.422L238.049 590.653L232.391 600.749L235.678 602.546L236.491 601.032C237.38 599.234 238.434 597.581 239.507 596.239Z" fill="#313131"/>
<path d="M211.458 589.538L211.972 588.759L213.607 589.502L219.81 579.655L218.468 578.582L218.982 577.803L223.586 580.768L223.072 581.547L221.533 580.829L215.329 590.677L216.671 591.75L216.157 592.528L211.458 589.538ZM224.271 591.138C222.973 590.28 222.201 589.36 221.86 588.352C221.519 587.344 221.704 586.273 222.415 585.14C223.151 583.911 224.141 583.26 225.314 583.065C226.486 582.87 227.722 583.201 229.045 583.963C229.21 584.109 229.4 584.16 229.565 584.306C229.729 584.452 229.894 584.598 230.084 584.648C230.673 585.112 231.192 585.455 231.616 585.772L233.788 587.169L233.274 587.948L231.83 587.255L225.626 597.103L226.779 598.125L226.264 598.903L221.73 596.059L222.244 595.28L223.974 596.049L226.278 592.388L224.271 591.138ZM229.614 585.643C229.449 585.497 229.19 585.325 228.74 585.103C227.866 584.563 227.011 584.334 226.244 584.536C225.476 584.738 224.823 585.276 224.163 586.219C223.623 587.093 223.419 587.854 223.621 588.621C223.823 589.388 224.361 590.041 225.235 590.581L226.888 591.635L230.247 586.322C230.038 585.96 229.873 585.814 229.614 585.643Z" fill="#313131"/>
<path d="M205.02 583.535L206.052 584.626L205.538 585.405L201.46 582.377L201.974 581.598L203.393 582.386L206.421 578.308L201.14 574.448L198.112 578.526L199.143 579.617L198.629 580.396L194.646 577.394L195.161 576.615L196.51 577.282L203.397 567.923L202.34 566.927L202.854 566.148L206.932 569.176L206.418 569.955L205.094 569.193L201.895 573.53L207.176 577.39L210.375 573.052L209.153 571.91L209.668 571.131L213.841 574.184L213.326 574.963L212.003 574.201L205.02 583.535Z" fill="#313131"/>
<path d="M189.182 573.077L187.606 571.738L192.191 558.809L191.419 557.889L192.003 557.23L195.865 560.302L195.255 561.056L193.957 560.199L192.934 562.878L197.195 566.363L199.656 564.781L198.529 563.665L199.113 563.006L202.551 565.761L201.967 566.419L200.903 565.829L189.182 573.077ZM190.187 570.087L189.564 571.652L190.966 570.602L196.18 567.109L192.508 564.088L190.187 570.087Z" fill="#313131"/>
<path d="M178.079 562.056L179.389 563.629L178.805 564.287L175.14 560.861L178.901 552.905L180.083 550.777L178.078 552.175L170.487 556.558L166.891 553.252L167.475 552.594L169.172 553.863L175.99 544.384L174.914 543.077L175.498 542.419L179.398 546.112L178.814 546.77L177.446 545.793L172.393 552.485L170.197 555.36L172.607 553.969L181.593 548.941L182.486 549.791L178.641 558.438L177.034 561.776L179.724 559.339L186.024 553.693L184.758 552.335L185.342 551.677L188.938 554.983L188.354 555.642L187.081 554.69L178.079 562.056Z" fill="#313131"/>
<path d="M161.751 548.106L160.321 546.603L166.445 534.391L165.793 533.402L166.472 532.769L169.896 536.334L169.218 536.967L167.945 536.015L166.541 538.593L170.39 542.476L172.99 541.136L172.009 539.854L172.688 539.221L175.809 542.4L175.13 543.033L174.186 542.373L161.751 548.106ZM163.136 545.218L162.323 546.732L163.864 545.922L169.521 543.058L166.166 539.613L163.136 545.218Z" fill="#313131"/>
<path d="M155.544 539.72L156.335 540.951L155.656 541.584L154.017 539.719C153.688 539.427 153.384 539.04 153.055 538.748C152.561 538.31 152.092 537.777 151.694 537.364C150.523 536.032 149.922 534.853 149.892 533.826C149.861 532.799 150.401 531.925 151.372 530.963C152.146 530.356 152.894 529.843 153.731 529.762C154.593 529.585 155.474 529.719 156.303 530.044C157.133 530.368 157.887 530.977 158.589 531.777C158.823 532.043 159.058 532.31 159.292 532.576C159.526 532.842 159.665 533.083 159.76 533.109L162.837 530.368L161.249 528.313L161.928 527.68L166.004 532.235L165.325 532.868L164.173 531.847L155.544 539.72ZM157.885 532.505C157.252 531.826 156.448 531.406 155.662 531.298C154.876 531.189 153.843 531.625 152.872 532.587C152.072 533.29 151.679 533.999 151.69 534.715C151.702 535.432 152.094 536.25 152.797 537.049C153.031 537.315 153.36 537.607 153.689 537.899C153.854 538.045 154.019 538.191 154.088 538.312L159.03 533.932C158.796 533.666 158.423 533.158 157.885 532.505Z" fill="#313131"/>
<path d="M155.844 521.874C156.039 523.047 155.854 524.118 155.264 525.182C154.768 526.271 153.892 527.259 152.826 528.195C151.761 529.132 150.606 529.638 149.434 529.833C148.261 530.028 147.044 530.007 145.955 529.512C144.84 529.111 143.896 528.451 143.055 527.411C142.447 526.637 141.796 525.647 141.195 524.468L140.942 523.891L143.625 521.86L144.397 522.779L142.887 524.615C142.931 524.831 142.95 525.142 143.133 525.598C143.342 525.96 143.62 526.442 143.993 526.949C144.531 527.602 145.145 527.971 145.906 528.175C146.666 528.378 147.503 528.297 148.39 528.025C149.278 527.754 150.242 527.197 151.162 526.425C152.082 525.653 152.786 524.925 153.326 524.051C153.865 523.177 154.19 522.347 154.203 521.536C154.217 520.725 153.92 519.933 153.408 519.184C153.034 518.677 152.61 518.359 152.281 518.067C151.952 517.775 151.666 517.699 151.356 517.718L149.46 518.33L148.809 517.341L151.098 516.019C151.263 516.165 151.592 516.457 152.016 516.774C152.44 517.092 152.795 517.288 153.124 517.58C153.453 517.872 153.757 518.259 154.251 518.697C155.213 519.668 155.744 520.727 155.844 521.874Z" fill="#313131"/>
<path d="M125.37 503.319L126.118 502.807L127.264 504.234L135.084 498.996L132.34 498.973L123.906 498.139L123.519 498.443L124.233 499.959L123.485 500.471L120.67 496.152L121.418 495.639L122.45 496.731L132.129 490.259L131.389 488.839L132.138 488.326L135.048 492.671L134.299 493.183L133.223 491.876L125.282 497.184L127.836 497.156L136.461 498.04L137.063 497.693L136.254 496.152L137.002 495.639L139.912 499.984L139.164 500.496L138.158 499.31L128.479 505.782L129.124 507.177L128.375 507.689L125.37 503.319Z" fill="#313131"/>
<path d="M118.747 492.683C118.348 492.271 118.045 491.884 117.715 491.592C117.386 491.3 117.273 490.964 117.038 490.697C116.273 489.372 115.863 488.243 115.832 487.217C115.802 486.19 116.29 485.506 117.254 484.949C118.098 484.462 118.96 484.286 119.815 484.515C120.671 484.744 121.354 485.233 121.987 485.912C121.431 484.948 121.185 483.965 121.414 483.11C121.643 482.255 122.132 481.571 122.881 481.058C123.99 480.337 125.163 480.142 126.183 480.517C127.203 480.893 128.191 481.768 129.19 483.36C129.538 483.963 129.886 484.565 130.043 485.117C130.201 485.668 130.385 486.125 130.498 486.461C130.612 486.797 130.656 487.013 130.63 487.108L127.72 488.467L127.233 487.623L129.003 485.958C128.991 485.242 128.694 484.45 128.112 483.581C127.695 482.858 127.106 482.394 126.51 482.337C125.915 482.279 125.053 482.455 124.209 482.942C123.581 483.385 123.143 483.879 122.87 484.519C122.692 485.184 122.868 486.046 123.45 486.915L124.171 488.025L123.302 488.607L122.746 487.643C122.468 487.161 122.138 486.869 121.714 486.552C121.29 486.234 120.815 486.107 120.314 486.075C119.813 486.043 119.262 486.2 118.659 486.548C117.936 486.966 117.594 487.485 117.441 488.055C117.383 488.651 117.515 489.297 117.933 490.02C118.211 490.502 118.515 490.889 118.869 491.086C119.199 491.378 119.484 491.454 119.699 491.41L121.379 490.842L122.031 491.831L119.665 493.438C119.475 493.387 119.241 493.121 118.747 492.683Z" fill="#313131"/>
<path d="M111.4 478.288L111.924 479.752L111.106 480.144L109.88 477.88C109.671 477.519 109.393 477.037 109.019 476.529C108.646 476.022 108.437 475.66 108.298 475.419C107.489 473.878 107.199 472.68 107.238 471.774C107.372 470.893 107.861 470.209 108.825 469.653C109.643 469.261 110.41 469.059 111.17 469.263C111.956 469.371 112.64 469.86 113.178 470.514C112.647 469.455 112.401 468.472 112.63 467.617C112.859 466.761 113.348 466.078 114.286 465.616C115.371 464.99 116.518 464.89 117.607 465.385C118.722 465.786 119.754 466.877 120.772 468.78C120.981 469.141 121.164 469.598 121.373 469.959C121.765 470.777 122.018 471.354 122.182 471.5L123.339 473.644L122.521 474.036L121.636 472.78L111.4 478.288ZM114.398 473.183L113.936 472.245C113.519 471.522 113.05 470.989 112.385 470.811C111.72 470.632 111.073 470.765 110.255 471.157C109.532 471.574 108.999 472.042 108.847 472.613C108.694 473.183 108.896 473.95 109.357 474.888C109.566 475.25 109.844 475.732 110.053 476.093L110.262 476.455L114.885 474.027C114.885 474.027 114.676 473.665 114.398 473.183ZM120.049 469.197C119.423 468.113 118.79 467.434 118.055 467.135C117.32 466.836 116.579 466.943 115.735 467.43C114.892 467.917 114.359 468.386 114.276 469.076C114.193 469.767 114.299 470.509 114.856 471.473C115.482 472.557 115.804 473.255 116.013 473.616L120.903 470.954C120.764 470.713 120.511 470.136 120.049 469.197Z" fill="#313131"/>
<path d="M102.899 464.398L101.976 462.521L111.589 452.874L111.273 451.771L112.091 451.379L114.26 455.831L113.442 456.223L112.582 454.872L110.424 456.84L112.776 461.748L115.648 461.296L115.149 459.736L115.967 459.344L117.857 463.314L117.039 463.705L116.387 462.716L102.899 464.398ZM105.063 462.024L103.731 463.195L105.455 462.842L111.699 461.969L109.6 457.638L105.063 462.024Z" fill="#313131"/>
<path d="M110.276 448.652C110.091 449.723 109.595 450.812 108.865 451.635C108.136 452.458 107 453.274 105.726 453.85C104.451 454.425 103.183 454.595 101.992 454.479C100.801 454.364 99.6857 453.963 98.7422 453.303C97.7986 452.642 97.052 451.628 96.5464 450.473C96.1799 449.56 95.8643 448.457 95.5997 447.164L95.4674 446.517L98.6376 445.33L99.1432 446.484L97.1389 447.882C97.088 448.072 97.0811 448.478 97.1693 448.909C97.2576 449.34 97.4153 449.891 97.6681 450.468C97.9905 451.166 98.4334 451.794 99.1427 452.188C99.8521 452.582 100.612 452.785 101.544 452.729C102.476 452.673 103.553 452.453 104.707 451.947C105.741 451.511 106.705 450.955 107.504 450.252C108.304 449.55 108.793 448.866 109.022 448.01C109.346 447.181 109.265 446.344 108.873 445.526C108.62 444.949 108.342 444.467 108.107 444.2C107.873 443.934 107.639 443.667 107.259 443.566L105.231 443.531L104.915 442.428L107.527 441.804C107.666 442.045 107.875 442.407 108.179 442.793C108.483 443.18 108.812 443.472 109.02 443.834C109.229 444.195 109.507 444.677 109.76 445.254C110.266 446.408 110.461 447.581 110.276 448.652Z" fill="#313131"/>
<path d="M94.0852 436.47C93.0144 436.285 92.02 435.815 91.2665 435.206C90.5131 434.597 89.931 433.728 89.59 432.72C89.1794 431.591 89.0539 430.539 89.334 429.493C89.6141 428.448 90.0588 427.549 90.8582 426.846C91.6831 426.049 92.647 425.492 93.8961 425.012C95.3607 424.488 96.6285 424.318 97.8453 424.338C99.0366 424.454 100.152 424.855 101 425.489C101.849 426.124 102.526 427.019 102.962 428.052C103.372 429.181 103.472 430.328 103.287 431.399C103.102 432.47 102.562 433.343 101.738 434.141C100.913 434.939 99.9232 435.59 98.6741 436.07L99.7481 438.905L104.839 437.009L104.461 435.38L105.349 435.109L107.105 439.959L106.217 440.231L105.477 438.81L94.6226 442.828L94.9314 444.336L94.0438 444.608L92.2623 439.853L93.1499 439.581L93.8897 441.002L98.645 439.22L97.571 436.386C96.3729 436.676 95.1306 436.751 94.0852 436.47ZM92.9467 434.638C94.1821 434.969 95.7604 434.78 97.707 433.978C99.4126 433.314 100.643 432.524 101.424 431.511C102.205 430.497 102.39 429.427 101.979 428.298C101.568 427.169 100.72 426.535 99.5795 426.229C98.4391 425.924 96.8353 426.207 94.9142 426.914C93.2086 427.578 91.9782 428.368 91.2229 429.287C90.4421 430.3 90.2825 431.275 90.6931 432.404C90.9832 433.602 91.8062 434.332 92.9467 434.638Z" fill="#313131"/>
<path d="M92.2913 415.415C92.7802 414.731 93.4149 413.883 94.2907 412.895C94.8746 412.237 95.3125 411.743 95.6298 411.319C95.9218 410.989 95.9982 410.704 96.0491 410.514L96.0373 409.798L96.9248 409.527L97.651 411.758C97.7902 411.999 97.5678 412.449 97.2504 412.873C96.9076 413.393 96.3237 414.051 95.4989 414.849C94.6231 415.836 93.9187 416.564 93.4554 417.153C92.992 417.742 92.8647 418.217 92.9784 418.553L93.294 419.656L98.404 418.072L98.1462 416.373L99.0338 416.101L100.574 420.996L99.6867 421.267L99.0419 419.872L87.9343 423.313L88.148 424.796L87.2604 425.068L85.7894 420.294L86.6771 420.022L87.3218 421.417L92.4318 419.833L91.933 418.273L85.6422 416.282L85.9254 417.885L85.0378 418.157L83.6806 413.719L84.5682 413.448L85.2384 414.748L91.6684 416.98C91.5547 416.644 91.828 416.004 92.2913 415.415Z" fill="#313131"/>
<path d="M95.2808 406.539C94.9057 407.559 94.2709 408.408 93.3765 409.085C92.4821 409.762 91.3026 410.363 89.9839 410.722C88.5702 411.056 87.328 411.131 86.1621 410.92C84.9963 410.71 84.0273 410.145 83.2042 409.415C82.3812 408.685 81.8247 407.721 81.5346 406.523C81.0171 404.653 81.2345 403.081 82.2121 401.714C83.1643 400.441 84.6357 399.511 86.7215 398.949C88.1352 398.615 89.4725 398.566 90.6383 398.777C91.8042 398.987 92.8682 399.578 93.6912 400.308C94.5142 401.037 95.0708 402.001 95.3609 403.2C95.651 404.398 95.656 405.52 95.2808 406.539ZM84.6248 408.675C85.8348 409.101 87.3876 409.008 89.3528 408.516C91.1976 408.094 92.5231 407.328 93.3734 406.436C94.2237 405.543 94.5292 404.403 94.2137 403.3C93.9236 402.102 93.1006 401.372 91.8906 400.946C90.6806 400.52 89.0327 400.587 87.0675 401.079C85.2228 401.502 83.8973 402.267 83.047 403.16C82.1967 404.052 81.9166 405.097 82.2067 406.296C82.7123 407.45 83.5098 408.275 84.6248 408.675Z" fill="#313131"/>
<path d="M80.4305 396.958L80.5237 398.511L79.6616 398.688L79.1069 396.196C79.0187 395.765 78.8609 395.214 78.7031 394.662C78.5454 394.11 78.3621 393.654 78.3434 393.343C77.9906 391.619 78.0111 390.402 78.3353 389.572C78.6595 388.743 79.408 388.23 80.3906 387.984C81.2527 387.808 82.0384 387.916 82.7732 388.215C83.4826 388.609 84.046 389.167 84.4379 389.985C84.1478 388.787 84.1869 387.881 84.6062 387.077C85.0254 386.272 85.7739 385.76 86.731 385.609C87.9292 385.319 89.0951 385.529 90.0131 386.285C90.9566 386.945 91.6964 388.365 92.0934 390.305C92.1816 390.736 92.2698 391.167 92.263 391.573C92.4139 392.53 92.5717 393.081 92.6158 393.297L93.196 395.693L92.3339 395.87L91.8096 394.405L80.4305 396.958ZM84.6753 392.901L84.4293 391.918C84.2528 391.056 83.905 390.454 83.2907 390.085C82.7714 389.743 81.9857 389.634 81.0981 389.905C80.236 390.082 79.6335 390.43 79.3857 390.974C79.1378 391.519 79.0291 392.305 79.2497 393.382C79.3379 393.814 79.4261 394.245 79.6093 394.701L79.723 395.037L84.8008 393.953C84.8517 393.763 84.738 393.427 84.6753 392.901ZM91.1108 390.551C90.8207 389.353 90.4287 388.535 89.7448 388.046C89.156 387.583 88.3702 387.474 87.3876 387.72C86.4305 387.871 85.8025 388.314 85.5547 388.859C85.2118 389.378 85.1727 390.284 85.3932 391.362C85.6833 392.56 85.8598 393.422 85.9734 393.758L91.3872 392.56C91.4636 392.275 91.3313 391.629 91.1108 390.551Z" fill="#313131"/>
<path d="M73.9688 368.235L74.926 368.084L75.4248 369.643L86.9107 367.832L86.8684 366.089L87.8256 365.938L88.6686 371.155L87.7114 371.306L87.3076 369.772L75.8217 371.583L76.7716 377.542L88.3525 375.756L88.3102 374.013L89.2674 373.862L90.0154 379.053L89.0582 379.204L88.6289 377.765L77.143 379.576L77.1158 381.199L76.1586 381.35L73.9688 368.235Z" fill="#313131"/>
<path d="M86.6007 362.147C86.156 363.046 85.3312 363.844 84.3672 364.4C83.4032 364.957 82.1795 365.342 80.7218 365.461C79.264 365.579 77.9776 365.438 76.8627 365.038C75.7477 364.637 74.8042 363.977 74.1271 363.082C73.4501 362.188 73.014 361.154 72.914 360.007C72.7071 358.118 73.14 356.503 74.2568 355.376C75.3736 354.249 76.9842 353.56 79.1836 353.335C80.6414 353.216 81.9277 353.357 83.0427 353.758C84.1576 354.158 85.1011 354.819 85.8732 355.739C86.5502 356.633 86.9863 357.667 87.0863 358.814C87.2305 360.177 87.0454 361.247 86.6007 362.147ZM75.7564 362.704C76.9154 363.32 78.4173 363.417 80.4962 363.261C82.3851 363.054 83.7292 362.6 84.7696 361.758C85.7845 361.011 86.2547 360.017 86.0851 358.749C85.985 357.602 85.308 356.708 84.1489 356.091C82.9899 355.475 81.393 355.353 79.4091 355.534C77.5202 355.741 76.0811 356.17 75.1357 357.038C74.1208 357.784 73.7457 358.804 73.9153 360.072C73.9898 361.314 74.6669 362.209 75.7564 362.704Z" fill="#313131"/>
<path d="M80.6928 347.322C82.3847 347.47 83.7407 347.732 84.6401 348.176C85.0898 348.399 85.419 348.691 85.6531 348.957C85.8618 349.319 85.9755 349.655 86.0637 350.086C86.101 350.707 86.0942 351.113 86.0178 351.398L84.5345 351.611C84.5159 351.301 84.5227 350.895 84.5109 350.179C84.4668 349.963 84.4227 349.748 84.2581 349.602C84.0935 349.456 83.9289 349.31 83.6693 349.139C82.1555 348.326 79.0822 348.011 74.5187 348.316L73.0609 348.435L73.0014 350.558L72.0697 350.614L71.3918 339.839L72.3235 339.783L72.6763 341.508L84.2877 340.748L84.3659 338.936L85.2976 338.88L85.7027 344.591L84.771 344.647L84.4691 342.732L72.8832 343.396L73.0814 347.218L74.7293 347.151C77.0678 347.166 79.0008 347.175 80.6928 347.322Z" fill="#313131"/>
<path d="M72.5241 336.374L72.3067 337.945L71.375 338.001L71.1773 328.476L74.1183 328.143L74.1488 329.17L72.3736 329.713L72.3426 334.39L77.5713 334.263L77.48 331.183L75.9085 330.966L75.878 329.939L80.175 329.868L80.2054 330.895L78.6017 331.178L78.5726 334.328L84.1118 334.182L83.7949 328.903L81.4005 327.955L81.706 326.815L84.944 327.275L85.1281 337.612L84.1964 337.668L84.0081 336.09L72.5241 336.374Z" fill="#313131"/>
<path d="M72.308 320.834L72.3739 324.009L76.2517 324.743L76.2312 325.959L71.2503 325.541L71.5178 313.9L76.5309 313.817L76.5105 315.034L72.5868 315.612L72.4372 318.831L84.1995 319.029L84.4119 316.336L85.3181 316.375L85.1512 323.46L84.245 323.421L84.0958 320.937L72.308 320.834Z" fill="#313131"/>
<path d="M79.734 306.425L79.695 307.331C79.9037 307.692 80.2329 307.984 80.8472 308.353C81.3664 308.695 82.0758 309.089 82.9752 309.534C83.8746 309.979 84.4889 310.347 84.9386 310.569C85.3883 310.792 85.6225 311.058 85.5716 311.248L85.4101 313.751L84.5039 313.712L84.3971 312.971C84.3529 312.755 84.1883 312.609 83.9542 312.343C83.5995 312.146 83.1752 311.828 82.4914 311.339C81.687 310.92 81.0982 310.457 80.5789 310.114C80.0596 309.771 79.7559 309.384 79.5472 309.023C79.2229 309.853 78.7596 310.441 78.0111 310.954C77.2881 311.371 76.5211 311.573 75.5198 311.509C74.0179 311.412 73.0235 310.942 72.4669 309.978C71.9104 309.014 71.7408 307.746 71.8631 306.149C71.8699 305.743 71.9717 305.363 72.0295 304.768C72.0873 304.172 72.2146 303.697 72.1959 303.386L72.4083 300.693L73.3145 300.732L73.4077 302.285L85.0173 303.053L85.2856 301.291L86.1918 301.331L85.8367 306.837L84.9305 306.798L84.9136 304.96L79.9073 304.638L79.734 306.425ZM72.9612 304.712C72.8084 305.282 72.7761 305.782 72.7693 306.188C72.7047 307.189 72.8116 307.931 73.2799 308.464C73.7483 308.997 74.388 309.27 75.4843 309.36C76.4856 309.425 77.2527 309.223 77.8807 308.78C78.5086 308.337 78.7123 307.577 78.8719 306.601C78.9365 305.6 78.9943 305.004 78.9061 304.573L73.209 304.167L72.9612 304.712Z" fill="#313131"/>
<path d="M73.9056 293.964L73.661 297.158L77.4623 298.177L77.3468 299.368L72.3728 298.545L73.6415 286.967L78.6478 287.29L78.5323 288.481L74.6155 288.654L74.1553 291.892L85.8276 293.186L86.3251 290.57L87.2058 290.704L86.4178 297.826L85.537 297.692L85.578 295.259L73.9056 293.964Z" fill="#313131"/>
<path d="M88.03 280.026C87.3002 280.849 86.3107 281.5 85.2076 281.816C84.1045 282.131 82.7672 282.181 81.4113 281.919C80.0553 281.658 78.8453 281.232 77.9273 280.476C77.0092 279.721 76.2372 278.801 75.8266 277.673C75.416 276.544 75.3159 275.397 75.5519 274.136C75.7115 273.16 76.0171 272.02 76.5382 270.835L76.786 270.29L80.0681 270.966L79.8321 272.227L77.3731 272.281C77.2271 272.446 77.0557 272.705 76.8333 273.155C76.6364 273.51 76.4836 274.08 76.4259 274.676C76.3172 275.461 76.4241 276.203 76.7464 276.9C77.0688 277.598 77.6322 278.156 78.5061 278.696C79.2851 279.21 80.3304 279.49 81.5913 279.726C82.7572 279.937 83.7839 279.907 84.8361 279.781C85.7933 279.63 86.7063 279.264 87.3598 278.726C88.0132 278.188 88.407 277.478 88.5666 276.503C88.6498 275.812 88.6821 275.311 88.6634 275.001C88.6448 274.69 88.5311 274.354 88.3224 273.993L86.6695 272.939L86.9751 271.798L89.4901 272.676C89.4137 272.961 89.5274 273.297 89.5901 273.823C89.6783 274.254 89.646 274.755 89.7343 275.186C89.8225 275.617 89.6951 276.092 89.6119 276.783C89.2809 278.018 88.7853 279.108 88.03 280.026Z" fill="#313131"/>
<path d="M77.7964 262.718L78.6772 262.852L78.5039 264.639L87.6595 266.583L85.7351 264.642L80.3815 258.012L79.9063 257.885L79.3784 259.475L78.4976 259.341L79.5366 254.323L80.4174 254.457L80.3206 255.959L91.6873 258.394L92.1898 256.898L93.0451 257.128L91.9806 262.241L91.1253 262.012L91.2731 260.32L81.9275 258.325L83.7822 260.146L89.2054 266.896L89.8707 267.074L90.4241 265.389L91.3048 265.523L90.2403 270.636L89.3596 270.502L89.4819 268.905L78.1151 266.47L77.6382 267.87L76.7574 267.736L77.7964 262.718Z" fill="#313131"/>
<path d="M82.3768 242.963L87.1794 244.046L86.8484 245.281L83.0843 244.884L81.9198 248.85L93.3748 251.716L94.4052 248.63L95.2605 248.86L93.4711 255.918L92.6158 255.688L92.9605 253.642L81.6956 250.827L80.9963 252.677L80.141 252.448L82.3768 242.963Z" fill="#313131"/>
<path d="M84.3575 240.132L83.6904 241.482L82.8351 241.252L84.3493 236.362L85.2046 236.591L84.9873 238.162L89.7831 239.651L91.6792 233.335L86.8834 231.846L86.2164 233.195L85.3611 232.966L86.8498 228.17L87.7051 228.399L87.5132 229.876L98.6253 233.261L99.1974 231.886L100.053 232.115L98.5639 236.911L97.7086 236.682L98.021 235.136L92.8451 233.545L90.9489 239.862L96.1248 241.452L96.7223 239.982L97.5776 240.212L96.0634 245.103L95.2081 244.873L95.4951 243.422L84.3575 240.132Z" fill="#313131"/>
<path d="M88.8919 221.689L89.6167 219.744L103.268 219.735L103.859 218.671L104.688 218.996L103.035 223.645L102.205 223.321L102.518 221.775L99.5834 221.702L97.8028 226.827L100.089 228.56L100.781 227.116L101.611 227.44L100.18 231.64L99.3501 231.316L99.5606 230.15L88.8919 221.689ZM92.1621 221.649L90.4702 221.501L91.933 222.504L96.9288 226.287L98.5312 221.827L92.1621 221.649Z" fill="#313131"/>
<path d="M101.787 212.718C103.275 213.626 104.383 214.432 104.991 215.206C105.295 215.593 105.478 216.049 105.592 216.385C105.68 216.817 105.578 217.197 105.476 217.577C105.228 218.122 105.031 218.476 104.86 218.736L103.46 218.259C103.631 217.999 103.759 217.524 104.007 216.979C104.057 216.789 104.134 216.504 104.064 216.384C104.02 216.168 103.881 215.927 103.742 215.686C102.692 214.284 100.07 212.665 95.8255 211.018L94.4509 210.446L93.441 212.315L92.6111 211.991L96.6221 201.963L97.452 202.287L96.9936 203.998L107.756 208.308L108.595 206.699L109.424 207.023L107.282 212.357L106.452 212.033L106.962 210.132L96.1993 205.822L94.7564 209.306L96.3211 209.929C98.4746 211.015 100.299 211.81 101.787 212.718Z" fill="#313131"/>
<path d="M104.797 196.922C105.464 195.572 106.22 194.654 107.253 194.218C108.287 193.782 109.288 193.847 110.472 194.368C111.727 195.01 112.619 195.86 112.909 197.058C113.225 198.161 113.084 199.448 112.417 200.797C112.366 200.987 112.22 201.151 112.169 201.341C112.023 201.506 111.972 201.696 111.801 201.956C111.432 202.57 111.184 203.115 110.937 203.659L109.92 205.933L109.116 205.514L109.618 204.019L99.0338 199.044L98.1767 200.342L97.3723 199.923L99.5772 195.115L100.382 195.535L99.8027 197.315L103.685 199.17L104.797 196.922ZM104.8 183.987L105.604 184.406L105.051 186.091L115.54 191.04L116.448 189.552L117.253 189.971L114.902 194.944L114.097 194.524L114.651 192.839L104.162 187.89L103.254 189.378L102.449 188.959L104.8 183.987ZM110.971 201.631C111.117 201.467 111.219 201.087 111.415 200.732C111.86 199.833 111.899 198.926 111.602 198.134C111.305 197.341 110.647 196.757 109.653 196.287C108.753 195.843 107.847 195.803 107.175 196.031C106.477 196.353 105.919 196.917 105.474 197.816L104.705 199.545L110.412 202.195C110.653 202.056 110.825 201.796 110.971 201.631Z" fill="#313131"/>
<path d="M109.86 176.888L108.933 178.066L108.129 177.647L110.637 173.226L111.442 173.645L110.844 175.115L115.29 177.528L118.466 171.759L114.02 169.345L113.093 170.523L112.289 170.104L114.677 165.752L115.481 166.172L115.004 167.572L125.195 173.256L126.121 172.078L126.926 172.498L124.512 176.944L123.708 176.525L124.305 175.055L119.504 172.444L116.329 178.214L121.13 180.825L122.107 179.457L122.912 179.876L120.377 184.392L119.573 183.973L120.145 182.598L109.86 176.888Z" fill="#313131"/>
<path d="M118.284 159.894L119.363 158.147L132.726 161.116L133.481 160.198L134.26 160.712L131.612 164.892L130.833 164.377L131.526 162.933L128.675 162.169L125.804 166.799L127.652 169.025L128.7 167.778L129.478 168.292L127.148 172.048L126.369 171.534L126.865 170.444L118.284 159.894ZM121.376 160.519L119.76 160.086L120.956 161.324L125.076 166.094L127.578 162.079L121.376 160.519Z" fill="#313131"/>
<path d="M127.849 147.383L126.51 148.959L125.731 148.445L128.639 144.437L136.97 147.178L139.269 148.1L137.63 146.235L132.283 139.2L135.19 135.192L135.969 135.706L134.985 137.479L145.321 142.999L146.463 141.777L147.242 142.292L144.017 146.724L143.239 146.21L144.052 144.696L136.724 140.492L133.532 138.72L135.285 140.921L141.422 149.186L140.737 150.225L131.69 147.495L128.13 146.337L130.858 148.698L137.234 154.175L138.427 152.763L139.206 153.278L136.419 157.216L135.64 156.702L136.427 155.283L127.849 147.383Z" fill="#313131"/>
<path d="M139.557 129.538L140.801 127.936L153.756 132.426L154.581 131.628L155.335 132.237L152.263 136.1L151.509 135.49L152.366 134.192L149.687 133.168L146.297 137.455L147.904 139.821L149.021 138.694L149.775 139.303L147.02 142.741L146.266 142.132L146.857 141.068L139.557 129.538ZM142.573 130.447L141.008 129.825L142.059 131.226L145.551 136.44L148.477 132.742L142.573 130.447Z" fill="#313131"/>
<path d="M147.101 122.29L145.941 123.201L145.187 122.592L146.818 120.686C147.11 120.357 147.402 120.028 147.599 119.673C148.037 119.179 148.38 118.66 148.818 118.166C149.985 116.85 151.121 116.033 152.078 115.882C153.035 115.731 154.055 116.107 155.042 116.982C155.796 117.592 156.308 118.34 156.58 119.228C156.851 120.115 156.838 120.926 156.608 121.782C156.379 122.637 155.935 123.537 155.23 124.264C154.964 124.499 154.767 124.853 154.5 125.088C154.234 125.322 154.088 125.486 154.063 125.581L157.215 128.26L159.011 126.5L159.67 127.084L155.678 131.718L155.019 131.134L155.876 129.836L147.101 122.29ZM154.572 123.681C155.181 122.927 155.505 122.097 155.424 121.261C155.343 120.424 154.856 119.581 153.798 118.584C152.975 117.854 152.241 117.556 151.499 117.663C150.757 117.769 150.129 118.212 149.279 119.105C148.987 119.434 148.79 119.789 148.498 120.118C148.327 120.378 148.206 120.447 148.181 120.542L153.239 124.852C153.576 124.738 153.988 124.339 154.572 123.681Z" fill="#313131"/>
<path d="M164.938 120.347C163.835 120.662 162.738 120.572 161.598 120.267C160.483 119.866 159.419 119.275 158.362 118.279C157.4 117.308 156.653 116.293 156.268 115.07C155.857 113.941 155.878 112.724 156.088 111.558C156.394 110.418 156.89 109.329 157.835 108.461C158.539 107.733 159.339 107.031 160.569 106.24L161.076 105.867L163.374 108.316L162.524 109.209L160.421 107.932C160.206 107.976 159.87 108.09 159.508 108.299C159.147 108.507 158.734 108.906 158.322 109.305C157.763 109.868 157.465 110.603 157.381 111.294C157.273 112.08 157.475 112.847 157.841 113.76C158.233 114.578 158.91 115.472 159.803 116.322C160.6 117.147 161.569 117.712 162.469 118.157C163.368 118.602 164.249 118.736 165.086 118.655C165.922 118.573 166.645 118.156 167.324 117.523C167.762 117.029 168.079 116.605 168.251 116.345C168.422 116.086 168.524 115.705 168.505 115.395L167.677 113.543L168.597 112.771L170.255 114.947C170.109 115.112 169.912 115.466 169.664 116.011C169.442 116.461 169.245 116.815 169.048 117.17C168.851 117.525 168.534 117.949 168.096 118.443C167.03 119.379 165.946 120.006 164.938 120.347Z" fill="#313131"/>
<path d="M176.007 90.8203L176.64 91.4992L175.447 92.911L181.725 99.8899L181.342 97.139L180.959 88.6841L180.655 88.2972L179.279 89.2525L178.646 88.5736L182.522 85.1306L183.155 85.8095L182.229 86.9872L189.982 95.6853L191.238 94.7996L191.871 95.4784L187.994 98.9214L187.361 98.2426L188.504 97.0208L182.156 89.9214L182.59 92.4823L182.922 101.127L183.39 101.66L184.792 100.61L185.425 101.289L181.523 104.827L180.89 104.148L181.912 102.996L174.159 94.2974L172.928 95.0882L172.295 94.4093L176.007 90.8203Z" fill="#313131"/>
<path d="M185.688 82.8213C186.005 82.397 186.323 81.9728 186.614 81.6436C186.906 81.3144 187.173 81.0802 187.439 80.846C188.626 79.8397 189.78 79.3341 190.737 79.1832C191.694 79.0322 192.498 79.4515 193.201 80.2508C193.808 81.0247 194.105 81.8173 193.971 82.6981C193.837 83.5788 193.538 84.3136 192.929 85.0671C193.823 84.39 194.736 84.0236 195.617 84.1577C196.523 84.1968 197.233 84.5906 197.84 85.3645C198.682 86.4049 198.997 87.508 198.812 88.5788C198.627 89.6497 197.821 90.7578 196.394 91.9032C195.861 92.3715 195.258 92.7194 194.776 92.9976C194.294 93.2759 193.838 93.4592 193.502 93.5729C193.166 93.6865 192.95 93.7306 192.925 93.8257L191.109 91.0983L191.883 90.4908L193.814 92.0268C194.461 91.8945 195.279 91.5026 196.078 90.8001C196.732 90.2621 197.1 89.6478 197.063 89.0267C197.051 88.3105 196.823 87.6385 196.121 86.8391C195.678 86.2111 195.064 85.8428 194.373 85.7596C193.682 85.6764 192.89 85.9733 191.995 86.6504L190.955 87.492L190.253 86.6926L191.052 85.9901C191.439 85.6864 191.756 85.2622 191.979 84.8125C192.201 84.3627 192.328 83.8876 192.266 83.3615C192.203 82.8354 191.925 82.3534 191.551 81.8459C191.013 81.1925 190.494 80.8497 189.873 80.887C189.252 80.9242 188.675 81.177 188.047 81.6199C187.634 82.0187 187.342 82.3479 187.05 82.6771C186.759 83.0063 186.777 83.3169 186.821 83.5324L187.631 85.0734L186.711 85.8455L184.742 83.6884C184.983 83.5492 185.275 83.22 185.688 82.8213Z" fill="#313131"/>
<path d="M198.875 73.5207L197.454 74.2605L196.942 73.5121L198.972 72.0188C199.333 71.8101 199.745 71.4113 200.253 71.038C200.665 70.6393 201.052 70.3355 201.293 70.1964C202.695 69.146 203.849 68.6404 204.755 68.6795C205.662 68.7186 206.466 69.1379 207.074 69.9118C207.586 70.6602 207.788 71.4273 207.774 72.2385C207.761 73.0497 207.367 73.7591 206.783 74.4175C207.703 73.6454 208.685 73.3994 209.592 73.4385C210.498 73.4776 211.277 73.9919 211.789 74.7403C212.536 75.7553 212.756 76.8329 212.546 77.9988C212.335 79.1646 211.314 80.3169 209.645 81.6014C209.258 81.9051 208.897 82.1139 208.535 82.3226C207.692 82.8095 207.279 83.2083 207.064 83.2524L205.034 84.7457L204.522 83.9972L205.613 82.9655L198.875 73.5207ZM204.278 75.7834L205.147 75.2014C205.895 74.6889 206.264 74.0746 206.321 73.4789C206.379 72.8833 206.177 72.1162 205.665 71.3677C205.152 70.6193 204.633 70.2764 204.037 70.2187C203.442 70.1609 202.649 70.4578 201.875 71.0653C201.488 71.3691 201.127 71.5778 200.835 71.907L200.568 72.1412L203.625 76.3213C203.529 76.2958 203.891 76.0871 204.278 75.7834ZM209.063 80.7325C210.078 79.9858 210.687 79.2324 210.796 78.4466C210.905 77.6609 210.703 76.8938 210.19 76.1454C209.583 75.3715 208.994 74.9081 208.398 74.8504C207.708 74.7671 207.01 75.0895 206.116 75.7666C205.101 76.5132 204.473 76.9561 204.207 77.1902L207.471 81.7319C207.687 81.6878 208.194 81.3145 209.063 80.7325Z" fill="#313131"/>
<path d="M211.436 63.1356L213.174 61.9716L224.109 70.1982L225.168 69.6671L225.68 70.4156L221.577 73.1865L221.064 72.4381L222.25 71.4318L219.99 69.6039L215.404 72.6531L216.193 75.411L217.614 74.6711L218.126 75.4196L214.409 77.8868L213.897 77.1384L214.722 76.3408L211.436 63.1356ZM214.102 64.9704L212.759 63.8977L213.328 65.5779L215.063 71.6451L219.021 69.0387L214.102 64.9704Z" fill="#313131"/>
<path d="M228.009 68.1876C226.887 68.1926 225.867 67.8174 224.803 67.2267C223.86 66.5665 222.992 65.6212 222.202 64.3907C221.506 63.1857 221.121 61.9621 221.021 60.8149C220.921 59.6677 221.252 58.4322 221.817 57.4632C222.408 56.3992 223.233 55.6017 224.343 54.8805C225.186 54.3935 226.22 53.9575 227.564 53.5028L228.141 53.25L229.69 56.2115L228.605 56.8376L226.941 55.0674C226.751 55.0165 226.415 55.1302 225.984 55.2184C225.553 55.3066 225.071 55.5849 224.589 55.8632C223.866 56.2806 223.402 56.8694 223.129 57.5092C222.83 58.244 222.722 59.0297 222.872 59.9869C223.023 60.9441 223.46 61.9776 224.111 62.967C224.763 63.9565 225.44 64.8509 226.193 65.4602C226.947 66.0695 227.751 66.4888 228.606 66.7179C229.462 66.9471 230.229 66.7452 231.072 66.2583C231.675 65.9104 232.062 65.6067 232.233 65.347C232.5 65.1129 232.696 64.7582 232.773 64.4731L232.496 62.4637L233.555 61.9326L234.516 64.4308C234.275 64.5699 234.008 64.8041 233.691 65.2284C233.399 65.5576 233.107 65.8868 232.72 66.1905C232.428 66.5197 231.946 66.798 231.464 67.0763C230.329 67.8925 229.131 68.1826 228.009 68.1876Z" fill="#313131"/>
<path d="M237.758 50.4286C237.848 49.3323 238.128 48.2869 238.668 47.413C239.208 46.539 239.887 45.9061 240.851 45.3495C241.935 44.7234 243.013 44.5028 244.014 44.5674C245.015 44.632 246.035 45.0071 246.858 45.737C247.681 46.4668 248.453 47.3866 249.175 48.4966C249.94 49.8221 250.299 51.1407 250.374 52.383C250.449 53.6252 250.264 54.6961 249.698 55.6651C249.133 56.634 248.429 57.362 247.465 57.9186C246.38 58.5447 245.303 58.7652 244.206 58.6752C243.205 58.6106 242.185 58.2355 241.337 57.6007C240.488 56.9659 239.621 56.0206 239.02 54.8411L236.395 56.2765L238.988 61.0455L240.478 60.4262L240.87 61.2443L236.342 63.6978L235.95 62.8798L237.206 61.9941L231.698 51.7585L230.233 52.2828L229.746 51.4393L234.154 49.0553L234.641 49.8988L233.385 50.7846L235.769 55.1921L238.489 53.782C237.958 52.723 237.738 51.6454 237.758 50.4286ZM239.522 49.1695C239.381 50.4559 239.784 51.99 240.828 53.7975C241.732 55.364 242.644 56.5249 243.803 57.141C244.962 57.7571 245.963 57.8217 247.142 57.221C248.201 56.69 248.767 55.721 248.787 54.5042C248.808 53.2874 248.404 51.7532 247.455 49.9712C246.551 48.4047 245.64 47.2438 244.576 46.6532C243.512 46.0625 242.415 45.9725 241.356 46.5036C240.297 47.0347 239.663 47.8831 239.522 49.1695Z" fill="#313131"/>
<path d="M258.481 45.694C259.191 46.0878 260.065 46.6275 261.224 47.2437C262.003 47.7579 262.522 48.1008 262.972 48.3231C263.421 48.5455 263.611 48.5964 263.827 48.5523L264.569 48.4455L264.961 49.2635L262.868 50.2306C262.627 50.3698 262.247 50.2679 261.702 50.0201C261.157 49.7723 260.474 49.2835 259.53 48.6232C258.517 47.8425 257.643 47.3027 257.029 46.9344C256.414 46.5661 255.914 46.5338 255.578 46.6475L254.519 47.1786L256.801 51.9662L258.361 51.4674L258.752 52.2854L254.085 54.498L253.693 53.68L255.019 52.9147L250.088 42.4264L248.649 42.8556L248.257 42.0376L252.804 39.8946L253.196 40.7126L251.845 41.5729L254.101 46.4556L255.522 45.7158L256.658 39.1958L255.098 39.6946L254.706 38.8765L258.891 36.9422L259.283 37.7603L258.053 38.551L256.676 45.2102C257.081 45.217 257.747 45.3952 258.481 45.694Z" fill="#313131"/>
<path d="M267.688 47.4478C266.617 47.2627 265.743 46.723 264.946 45.8982C264.148 45.0733 263.401 44.0584 262.852 42.6888C262.302 41.3192 262.012 40.1211 262.127 38.9298C262.243 37.7384 262.523 36.693 263.183 35.7495C263.843 34.806 264.738 34.129 265.771 33.6929C267.597 32.9599 269.125 32.9618 270.569 33.6543C272.013 34.3468 273.159 35.7741 273.961 37.7208C274.511 39.0903 274.775 40.3835 274.66 41.5748C274.544 42.7662 274.239 43.9066 273.579 44.8501C272.918 45.7936 272.024 46.4707 270.99 46.9067C269.811 47.5074 268.759 47.6329 267.688 47.4478ZM264.088 37.316C263.852 38.5769 264.16 40.0856 264.868 42.0068C265.626 43.7378 266.512 44.9938 267.551 45.6795C268.564 46.4602 269.66 46.5502 270.814 46.0446C271.943 45.634 272.603 44.6905 272.839 43.4296C273.075 42.1687 272.792 40.5649 271.964 38.7134C271.205 36.9823 270.319 35.7264 269.281 35.0407C268.242 34.355 267.171 34.1699 266.017 34.6755C264.958 35.2066 264.324 36.0551 264.088 37.316Z" fill="#313131"/>
<path d="M275.046 31.3906L273.537 31.6993L273.266 30.8117L275.644 29.921C276.075 29.8328 276.557 29.5545 277.134 29.3017C277.711 29.0489 278.072 28.8402 278.383 28.8215C279.968 28.2277 281.236 28.0581 282.091 28.2873C282.946 28.5164 283.605 29.1003 283.946 30.1084C284.243 30.9009 284.324 31.7376 284.025 32.4724C283.727 33.2072 283.238 33.8911 282.515 34.3085C283.643 33.8979 284.575 33.842 285.43 34.0712C286.286 34.3003 286.919 34.9792 287.26 35.9873C287.67 37.1159 287.65 38.3327 287.085 39.3017C286.494 40.3657 285.238 41.2514 283.317 41.959C282.86 42.1422 282.524 42.2559 282.093 42.3441C281.206 42.6155 280.629 42.8683 280.413 42.9125L278.035 43.8032L277.738 43.0107L279.159 42.2708L275.046 31.3906ZM279.662 35.0719L280.67 34.7309C281.463 34.434 281.995 33.9656 282.269 33.3259C282.542 32.6861 282.53 31.9699 282.138 31.1519C281.841 30.3594 281.373 29.8264 280.828 29.5786C280.284 29.3308 279.447 29.4122 278.439 29.7532C277.982 29.9365 277.621 30.1452 277.164 30.3284L276.803 30.5371L278.654 35.413C278.774 35.3434 279.11 35.2297 279.662 35.0719ZM282.83 41.1155C283.958 40.7049 284.732 40.0974 285.126 39.388C285.52 38.6787 285.508 37.9625 285.167 36.9545C284.801 36.0414 284.332 35.5085 283.787 35.2607C283.148 34.9874 282.311 35.0688 281.277 35.5048C280.054 35.8899 279.356 36.2123 279.02 36.326L280.985 41.5379C281.245 41.7093 281.917 41.482 282.83 41.1155Z" fill="#313131"/>
<path d="M302.57 21.0426L302.842 21.9302L301.421 22.67L304.767 33.7522L306.491 33.3993L306.762 34.2869L301.773 35.802L301.501 34.9144L302.897 34.2696L299.481 23.067L293.725 24.7839L297.14 35.9865L298.864 35.6337L299.136 36.5213L294.146 38.0363L293.875 37.1487L295.27 36.504L291.924 25.4218L290.32 25.7051L290.049 24.8175L302.57 21.0426Z" fill="#313131"/>
<path d="M310.37 32.6055C309.351 32.2303 308.502 31.5955 307.825 30.7011C307.148 29.8067 306.642 28.6527 306.308 27.239C305.974 25.8253 305.899 24.583 306.135 23.3221C306.346 22.1563 306.911 21.1873 307.641 20.3643C308.371 19.5413 309.335 18.9847 310.533 18.6946C312.403 18.1772 313.975 18.3945 315.342 19.3722C316.615 20.3243 317.545 21.7958 318.081 23.9765C318.415 25.3902 318.464 26.7275 318.254 27.8934C318.018 29.1543 317.453 30.1233 316.628 30.9208C315.803 31.7184 314.839 32.2749 313.736 32.5905C312.417 32.9501 311.39 32.9806 310.37 32.6055ZM308.235 21.9494C307.809 23.1594 307.902 24.7122 308.394 26.6774C308.816 28.5222 309.582 29.8477 310.474 30.698C311.367 31.5483 312.507 31.8539 313.61 31.5383C314.808 31.2482 315.513 30.5202 315.964 29.2152C316.39 28.0052 316.323 26.3574 315.831 24.3921C315.408 22.5474 314.643 21.2219 313.75 20.3716C312.858 19.5213 311.812 19.2412 310.614 19.5313C309.46 20.0369 308.635 20.8344 308.235 21.9494Z" fill="#313131"/>
<path d="M324.297 24.7255C324.435 26.4938 324.294 27.7802 323.919 28.8001C323.791 29.2753 323.474 29.6995 323.207 29.9337C322.941 30.1679 322.579 30.3766 322.148 30.4648C321.597 30.6226 321.096 30.5903 320.881 30.6344L320.451 29.1952C320.762 29.1766 321.193 29.0884 321.84 28.9561C322.055 28.912 322.271 28.8678 322.417 28.7032C322.563 28.5386 322.709 28.374 322.785 28.0889C323.433 26.4293 323.221 23.4186 322.295 18.8925L321.961 17.4788L319.762 17.7043L319.585 16.8422L330.146 14.681L330.323 15.5432L328.643 16.1115L330.98 27.5347L332.869 27.3278L333.045 28.1899L327.442 29.3367L327.265 28.4746L329.161 27.8621L326.823 16.4389L323.159 17.1887L323.538 18.8179C323.858 21.0428 324.135 23.0522 324.297 24.7255Z" fill="#313131"/>
<path d="M333.91 15.0786L332.383 15.0767L332.232 14.1196L341.614 12.5591L342.377 15.4119L341.325 15.5374L340.471 13.7809L335.927 14.3965L336.77 19.6134L339.882 19.0214L339.884 17.494L340.936 17.3685L341.628 21.6282L340.576 21.7537L340.077 20.1941L336.99 20.691L337.852 26.2185L343.024 25.1599L343.591 22.6636L344.757 22.8741L344.798 26.1444L334.58 27.7863L334.403 26.9242L335.937 26.5204L333.91 15.0786Z" fill="#313131"/>
<path d="M349.32 12.6887L346.138 13.1602L346 17.0957L344.732 17.2653L344.434 12.2962L356.008 10.9158L356.833 15.8221L355.685 15.9221L354.581 12.0612L351.355 12.3172L352.805 24.0118L355.479 23.9136L355.535 24.8453L348.48 25.7051L348.425 24.7734L350.795 24.2883L349.32 12.6887Z" fill="#313131"/>
<path d="M364.6 18.0051L363.668 18.061C363.402 18.2952 363.084 18.7194 362.836 19.2642C362.563 19.904 362.264 20.6388 362.01 21.5891C361.66 22.514 361.482 23.1792 361.26 23.6289C361.037 24.0786 360.866 24.3382 360.65 24.3824L358.14 24.6265L358.084 23.6948L358.756 23.4675C358.972 23.4234 359.118 23.2588 359.315 22.9041C359.512 22.5494 359.759 22.0047 360.058 21.2699C360.382 20.44 360.776 19.7307 361.024 19.186C361.367 18.6667 361.684 18.2425 362.046 18.0337C361.165 17.8996 360.456 17.5058 359.918 16.8524C359.38 16.199 359.083 15.4064 359.027 14.4747C358.908 13.0169 359.309 11.902 360.083 11.2945C360.977 10.6175 362.201 10.2323 363.849 10.1646C364.159 10.1459 364.685 10.0832 365.281 10.1409C365.902 10.1037 366.308 10.1105 366.618 10.0918L369.318 9.89862L369.374 10.8303L367.866 11.139L368.771 22.5859L370.488 22.6386L370.544 23.5703L365.024 24.0263L364.968 23.0947L366.787 22.7673L366.394 17.7728L364.6 18.0051ZM365.362 10.9776C364.767 10.9199 364.336 11.0081 363.835 10.9758C362.903 11.0317 362.111 11.3286 361.698 11.7274C361.165 12.1957 360.962 12.956 361.087 14.0082C361.118 15.0349 361.535 15.7579 362.003 16.2908C362.592 16.7542 363.353 16.9579 364.284 16.902C365.311 16.8715 365.958 16.7392 366.268 16.7206L365.863 11.0099L365.362 10.9776Z" fill="#313131"/>
<path d="M376.086 10.4898L372.86 10.7458L372.317 14.6745L371.075 14.749L371.207 9.69178L382.837 9.24305L383.231 14.2376L382.109 14.2426L381.315 10.363L378.045 10.4034L378.443 22.2236L381.066 22.3154L381.122 23.2471L374.03 23.4858L373.974 22.5541L376.389 22.2845L376.086 10.4898Z" fill="#313131"/>
<path d="M391.922 22.4743C390.979 21.8141 390.276 21.0147 389.745 19.9557C389.214 18.8967 389.045 17.629 389.021 16.1966C389.092 14.7898 389.423 13.5543 390.014 12.4903C390.605 11.4263 391.43 10.6287 392.489 10.0977C393.548 9.56656 394.651 9.25101 395.963 9.29694C396.869 9.33605 398.06 9.45156 399.391 9.80805L399.961 9.96083L399.665 13.3448L398.448 13.3243L398.058 10.9789C397.894 10.833 397.634 10.6615 397.159 10.5342C396.684 10.4069 396.183 10.3746 395.587 10.3168C394.776 10.3032 394.104 10.5305 393.476 10.9734C392.848 11.4163 392.359 12.1002 391.94 12.9046C391.59 13.8294 391.336 14.7798 391.29 16.0916C391.269 17.3084 391.395 18.3606 391.666 19.2482C391.938 20.1358 392.425 20.9792 393.083 21.5631C393.742 22.1469 394.476 22.4457 395.383 22.4848C396.099 22.473 396.504 22.4798 396.935 22.3916C397.272 22.2779 397.608 22.1643 397.874 21.9301L398.668 20.1058L399.834 20.3163L399.337 22.9332C399.026 22.9518 398.69 23.0655 398.164 23.1282C397.733 23.2165 397.277 23.3997 396.871 23.3929C396.44 23.4811 395.939 23.4488 395.318 23.4861C394.006 23.4401 392.866 23.1346 391.922 22.4743Z" fill="#313131"/>
<path d="M407.528 9.84935L407.489 10.7556L405.625 10.8674L404.942 20.2589L406.65 18.0682L412.481 11.8896L412.514 11.389L410.873 11.0512L410.912 10.1449L416.013 10.4933L415.974 11.3995L414.516 11.5182L413.748 23.1277L415.294 23.4401L415.255 24.3464L410.059 23.9726L410.098 23.0663L411.746 22.9986L412.359 13.4866L410.798 15.5128L404.845 21.7608L404.762 22.4515L406.524 22.7198L406.485 23.6261L401.193 23.2268L401.232 22.3206L402.785 22.2274L403.553 10.6178L402.102 10.3308L402.141 9.42462L407.528 9.84935Z" fill="#313131"/>
<path d="M427.806 11.7177L427.414 16.6036L426.127 16.4626L426.024 12.6662L421.905 12.0719L420.586 23.8393L423.798 24.3945L423.664 25.2752L416.352 24.4363L416.486 23.5555L418.514 23.5896L419.757 12.1074L417.856 11.5981L417.99 10.7173L427.806 11.7177Z" fill="#313131"/>
<path d="M430.954 13.2744L429.554 12.7974L429.688 11.9167L434.688 12.6451L434.553 13.5259L432.931 13.4986L432.203 18.4981L438.653 19.5135L439.381 14.514L437.886 14.0115L438.021 13.1308L443.02 13.8592L442.886 14.74L441.359 14.7382L439.615 26.1882L441.04 26.5701L440.906 27.4509L435.907 26.7224L436.041 25.8417L437.568 25.8435L438.398 20.4638L431.948 19.4484L431.118 24.8281L432.733 25.261L432.599 26.1417L427.504 25.3878L427.639 24.507L429.166 24.5089L430.954 13.2744Z" fill="#313131"/>
<path d="M449.774 15.2616L451.795 15.7013L453.668 29.2407L454.783 29.6413L454.649 30.5221L449.821 29.534L449.955 28.6532L451.552 28.7755L451.219 25.8345L445.916 24.719L444.512 27.2967L446.007 27.7992L445.873 28.68L441.52 27.8192L441.654 26.9384L442.871 26.9589L449.774 15.2616ZM450.366 18.3741L450.203 16.7008L449.485 18.2399L446.481 23.75L451.119 24.6872L450.366 18.3741Z" fill="#313131"/>
<path d="M460.465 26.682C459.842 28.2466 459.105 29.4753 458.401 30.2032C457.988 30.602 457.627 30.8107 457.291 30.9244C456.955 31.0381 456.549 31.0312 456.074 30.9039C455.504 30.7511 455.029 30.6238 454.769 30.4524L454.961 28.976C455.246 29.0523 455.721 29.1797 456.292 29.3325C456.482 29.3834 456.697 29.3393 456.913 29.2952C457.128 29.2511 457.274 29.0865 457.541 28.8523C458.778 27.656 460.042 24.8372 461.144 20.3452L461.526 18.9197L459.53 18.3849L459.785 17.4346L470.29 20.0456L470.035 20.9959L468.248 20.8227L465.433 32.0876L467.188 32.7615L466.959 33.6168L461.327 32.2094L461.556 31.3541L463.507 31.6733L466.322 20.4084L462.59 19.5104L462.157 21.1259C461.718 23.1471 461.088 25.1173 460.465 26.682Z" fill="#313131"/>
<path d="M476.536 27.5251C477.936 28.0021 478.975 28.6878 479.557 29.5567C480.139 30.4257 480.239 31.5729 479.813 32.7829C479.336 34.1829 478.58 35.101 477.547 35.5371C476.393 36.0427 475.176 36.0222 473.75 35.6402C473.56 35.5893 473.37 35.5384 473.18 35.4875C472.99 35.4365 472.8 35.3856 472.541 35.2142C471.901 34.9409 471.235 34.7626 470.691 34.5148L468.245 33.7577L468.474 32.9024L470.021 33.2148L473.405 22.1027L472.056 21.4356L472.285 20.5803L477.366 22.1455L477.137 23.0008L475.281 22.707L473.97 26.8376L476.536 27.5251ZM472.7 34.2384C472.89 34.2893 473.245 34.4862 473.625 34.588C474.67 34.8681 475.482 34.8818 476.205 34.4644C476.927 34.047 477.416 33.3631 477.696 32.3177C477.977 31.2724 477.965 30.5562 477.547 29.8332C477.199 29.2307 476.516 28.7419 475.496 28.3668L473.69 27.8829L471.87 33.9142C472.25 34.016 472.51 34.1874 472.7 34.2384ZM489.334 25.7596L489.105 26.6149L487.343 26.3466L483.958 37.4587L485.592 38.2021L485.363 39.0574L480.092 37.4414L480.321 36.5861L482.058 36.9494L485.442 25.8373L483.808 25.0938L484.037 24.2385L489.334 25.7596Z" fill="#313131"/>
<path d="M497.023 29.7552L495.699 28.9931L496.023 28.1633L500.743 29.9371L500.419 30.7669L498.873 30.4545L497.099 35.1739L503.288 37.5453L505.062 32.8259L503.738 32.0638L504.062 31.2339L508.782 33.0078L508.457 33.8376L507.006 33.5507L502.861 44.4591L504.21 45.1262L503.886 45.956L499.167 44.1822L499.491 43.3523L501.012 43.7598L502.982 38.6857L496.793 36.3143L494.823 41.3884L496.241 42.176L495.917 43.0058L491.128 41.1115L491.452 40.2816L492.973 40.6891L497.023 29.7552Z" fill="#313131"/>
<path d="M515.015 35.5946L516.934 36.4144L515.916 50.0961L516.86 50.7564L516.536 51.5862L511.988 49.5527L512.312 48.7229L513.807 49.2254L514.191 46.2725L509.168 44.1117L507.27 46.2515L508.689 47.0391L508.365 47.8689L504.266 46.0578L504.59 45.228L505.731 45.5335L515.015 35.5946ZM514.96 38.8394L515.203 37.1729L514.13 38.5152L510.018 43.2191L514.401 45.1066L514.96 38.8394Z" fill="#313131"/>
<path d="M528.726 43.343L527.004 42.1685L527.423 41.3641L531.8 43.6572L530.294 52.3189L529.752 54.7202L531.358 52.9096L537.525 46.6174L541.902 48.9105L541.483 49.7149L539.538 48.9901L535.488 59.924L536.855 60.9016L536.436 61.706L531.705 59.2159L532.124 58.4116L533.689 59.0345L536.804 51.2113L538.126 47.7969L536.159 49.8163L528.925 57.0452L527.861 56.4545L529.356 47.0766L530.013 43.484L528.076 46.5301L523.517 53.6607L525.075 54.6893L524.656 55.4937L520.374 53.226L520.793 52.4216L522.263 53.0191L528.726 43.343Z" fill="#313131"/>
<path d="M548.096 52.4037L549.844 53.4832L547.255 66.9475L548.198 67.6077L547.779 68.4121L543.548 65.9544L543.967 65.15L545.437 65.7475L546.081 62.9661L541.426 60.191L539.269 62.1594L540.541 63.1115L540.122 63.9159L536.341 61.6805L536.76 60.8762L537.875 61.2768L548.096 52.4037ZM547.661 55.5466L548.094 53.931L546.857 55.1274L542.156 59.3679L546.291 61.8002L547.661 55.5466Z" fill="#313131"/>
<path d="M556.365 58.7953L555.308 57.7991L555.822 57.0202L557.899 58.3916C558.254 58.5885 558.678 58.9059 559.033 59.1027C559.647 59.4711 560.192 59.7189 560.711 60.0617C562.174 61.0648 563.136 62.0356 563.382 63.0182C563.628 64.0009 563.443 65.0717 562.757 66.1103C562.218 66.9842 561.564 67.5221 560.746 67.9141C559.928 68.306 559.091 68.3874 558.211 68.2533C557.33 68.1191 556.405 67.7694 555.531 67.2297C555.176 67.0328 554.917 66.8614 554.588 66.5695C554.233 66.3726 554.068 66.2266 553.999 66.1061L551.745 69.5764L553.771 71.1379L553.257 71.9168L548.134 68.6088L548.648 67.8299L550.092 68.5224L556.365 58.7953ZM556.045 66.4508C556.919 66.9905 557.68 67.1942 558.542 67.0178C559.404 66.8414 560.178 66.2339 560.914 65.0053C561.454 64.1314 561.683 63.2761 561.456 62.604C561.229 61.9319 560.691 61.2785 559.747 60.6183C559.393 60.4214 559.038 60.2245 558.588 60.0021C558.329 59.8307 558.138 59.7798 558.138 59.7798L554.513 65.3272C554.842 65.6191 555.267 65.9365 556.045 66.4508Z" fill="#313131"/>
<path d="M560.774 76.1719C560.338 75.1384 560.238 73.9912 560.423 72.9203C560.608 71.8495 561.155 70.5699 561.987 69.3668C562.793 68.2587 563.738 67.3916 564.797 66.8605C565.856 66.3294 567.029 66.1343 568.22 66.2498C569.412 66.3653 570.527 66.7659 571.54 67.5467C572.319 68.0609 573.211 68.9112 574.078 69.8566L574.572 70.2945L572.452 72.884L571.414 72.1983L572.405 70.0194C572.361 69.8038 572.127 69.5374 571.918 69.1759C571.709 68.8144 571.19 68.4715 570.671 68.1287C569.987 67.6399 569.322 67.4616 568.51 67.448C567.699 67.4343 566.907 67.7312 566.158 68.2437C565.41 68.7561 564.585 69.5537 563.925 70.4972C563.264 71.4407 562.794 72.4352 562.445 73.36C562.19 74.3104 562.056 75.1911 562.327 76.0787C562.599 76.9663 563.042 77.5943 563.82 78.1085C564.34 78.4514 564.764 78.7688 565.144 78.8706C565.524 78.9725 565.809 79.0489 566.12 79.0303L567.832 77.9613L568.725 78.8116L566.783 80.7359C566.524 80.5644 566.144 80.4626 565.694 80.2402C565.219 80.1129 564.864 79.916 564.389 79.7887C564.034 79.5918 563.584 79.3695 563.065 79.0266C562.078 78.1508 561.21 77.2055 560.774 76.1719Z" fill="#313131"/>
<path d="M588.034 80.1151L587.425 80.8685L585.867 79.8399L579.945 87.1148L582.608 86.3004L590.893 84.6499L591.211 84.2256L590.109 83.0138L590.719 82.2604L594.72 85.5734L594.111 86.3268L592.787 85.5647L585.38 94.5806L586.507 95.6974L585.923 96.3558L581.922 93.0428L582.506 92.3844L583.899 93.267L589.941 85.9226L587.494 86.6928L578.993 88.3875L578.555 88.8813L579.751 90.1186L579.168 90.777L575.071 87.4385L575.655 86.7801L576.953 87.6372L584.36 78.6213L583.328 77.53L583.938 76.7766L588.034 80.1151Z" fill="#313131"/>
<path d="M597.512 88.4602C598.056 88.708 598.385 88.9999 598.74 89.1968C599.095 89.3937 599.424 89.6856 599.684 89.857C600.836 90.8788 601.582 91.8937 601.828 92.8763C602.074 93.8589 601.845 94.7142 601.141 95.4422C600.437 96.1702 599.714 96.5876 598.807 96.5485C597.971 96.6299 597.115 96.4007 596.336 95.8864C597.134 96.7113 597.621 97.5548 597.702 98.3914C597.784 99.2281 597.46 100.058 596.876 100.716C596 101.704 594.941 102.235 593.845 102.145C592.723 102.15 591.564 101.534 590.152 100.341C589.563 99.8774 589.19 99.3699 588.816 98.8624C588.443 98.355 588.234 97.9935 588 97.727C587.861 97.486 587.722 97.245 587.652 97.1246L590.076 94.922L590.734 95.5058L589.553 97.6338C589.78 98.3059 590.318 98.9593 591.046 99.6637C591.705 100.248 592.25 100.495 592.991 100.388C593.638 100.256 594.335 99.9338 594.945 99.1803C595.503 98.617 595.681 97.9517 595.764 97.261C595.848 96.5703 595.335 95.8219 594.512 95.0921L593.525 94.2163L594.229 93.4883L595.052 94.2181C595.476 94.5355 595.9 94.8529 596.376 94.9802C596.851 95.1075 597.351 95.1398 597.903 94.982C598.455 94.8243 598.841 94.5205 599.279 94.0267C599.863 93.3683 600.111 92.8235 599.979 92.177C599.941 91.5558 599.568 91.0484 598.91 90.4645C598.511 90.0521 598.156 89.8552 597.707 89.6329C597.352 89.436 597.041 89.4546 596.826 89.4987L595.424 90.5491L594.506 89.7938L596.334 87.5335C596.638 87.9204 596.992 88.1173 597.512 88.4602Z" fill="#313131"/>
<path d="M608.652 100.103L607.766 98.8472L608.445 98.2143L610.204 100.01C610.534 100.302 610.932 100.714 611.426 101.152C611.92 101.59 612.249 101.882 612.414 102.028C613.61 103.265 614.357 104.28 614.413 105.212C614.589 106.074 614.265 106.904 613.561 107.632C612.882 108.265 612.184 108.587 611.443 108.694C610.701 108.801 609.846 108.572 609.067 108.057C609.959 108.908 610.446 109.751 610.502 110.683C610.558 111.614 610.259 112.349 609.555 113.077C608.705 113.97 607.576 114.38 606.48 114.29C605.289 114.175 603.965 113.413 602.509 112.004C602.18 111.712 601.876 111.325 601.642 111.059C601.009 110.38 600.61 109.967 600.446 109.822L598.686 108.026L599.365 107.393L600.637 108.345L608.652 100.103ZM603.118 111.251C604.011 112.101 604.79 112.615 605.601 112.629C606.412 112.643 607.11 112.32 607.789 111.687C608.467 111.054 608.766 110.319 608.729 109.698C608.692 109.077 608.274 108.354 607.477 107.529C606.584 106.679 606.021 106.121 605.786 105.854L601.878 109.798C601.922 110.013 602.416 110.451 603.118 111.251ZM607.339 105.761L608.067 106.465C608.726 107.049 609.34 107.418 609.961 107.38C610.582 107.343 611.28 107.021 611.864 106.362C612.448 105.704 612.79 105.184 612.753 104.563C612.716 103.942 612.298 103.219 611.57 102.515C611.241 102.223 610.912 101.931 610.488 101.614L610.159 101.322L606.516 105.031C606.706 105.082 606.941 105.349 607.339 105.761Z" fill="#313131"/>
<path d="M620.953 110.835L622.383 112.338L616 124.379L616.651 125.368L615.972 126.001L612.668 122.366L613.347 121.733L614.499 122.754L615.998 120.202L612.296 116.154L609.626 117.374L610.607 118.656L609.928 119.289L606.928 116.04L607.607 115.407L608.525 116.162L620.953 110.835ZM619.473 113.697L620.381 112.209L618.84 113.019L613.139 115.667L616.373 119.182L619.473 113.697Z" fill="#313131"/>
<path d="M618.397 127.975C618.202 126.802 618.387 125.731 618.883 124.642C619.379 123.553 620.159 122.539 621.32 121.628C622.386 120.692 623.54 120.186 624.738 119.896C625.936 119.606 627.128 119.721 628.243 120.122C629.358 120.522 630.301 121.183 631.143 122.223C631.75 122.997 632.402 123.986 633.003 125.166L633.255 125.743L630.572 127.774L629.8 126.854L631.336 124.923C631.292 124.708 631.273 124.397 631.065 124.035C630.856 123.674 630.578 123.192 630.179 122.78C629.641 122.126 629.027 121.758 628.266 121.554C627.506 121.35 626.669 121.432 625.782 121.703C624.894 121.975 623.93 122.531 623.01 123.303C622.09 124.075 621.361 124.898 620.846 125.677C620.307 126.551 620.077 127.407 620.064 128.218C620.05 129.029 620.347 129.822 620.955 130.595C621.423 131.128 621.752 131.42 622.107 131.617C622.462 131.814 622.721 131.986 623.032 131.967L624.927 131.354L625.579 132.344L623.264 133.761C623.099 133.615 622.77 133.323 622.346 133.005C621.896 132.783 621.567 132.491 621.238 132.199C620.909 131.907 620.484 131.59 620.111 131.082C619.123 130.207 618.592 129.148 618.397 127.975Z" fill="#313131"/>
<path d="M637.421 134.906C638.568 134.806 639.544 134.965 640.469 135.315C641.394 135.665 642.217 136.394 642.824 137.168C643.571 138.183 643.937 139.096 644.063 140.148C644.093 141.175 643.933 142.151 643.368 143.12C642.803 144.089 642.048 145.007 640.912 145.823C639.752 146.734 638.477 147.31 637.279 147.6C636.081 147.89 634.984 147.8 633.869 147.399C632.754 146.999 632.001 146.389 631.324 145.495C630.577 144.48 630.141 143.446 630.016 142.394C629.89 141.342 630.145 140.392 630.615 139.397C631.18 138.428 631.936 137.51 632.976 136.668L631.179 134.252L626.827 137.567L627.662 139.013L626.914 139.526L623.832 135.441L624.581 134.928L625.707 136.045L634.918 129.04L634.153 127.715L634.927 127.107L637.939 131.072L637.165 131.679L636.038 130.563L632.073 133.575L633.87 135.991C635.24 135.442 636.343 135.126 637.421 134.906ZM639.041 136.46C637.799 136.535 636.309 137.154 634.641 138.439C633.213 139.584 632.217 140.641 631.791 141.851C631.365 143.061 631.49 144.113 632.237 145.128C633.009 146.048 633.909 146.493 635.176 146.323C636.419 146.249 637.839 145.509 639.482 144.319C640.909 143.174 641.906 142.117 642.332 140.907C642.758 139.697 642.632 138.645 641.955 137.75C641.278 136.856 640.284 136.386 639.041 136.46Z" fill="#313131"/>
<path d="M645.37 154.657C645.166 155.417 644.696 156.412 644.175 157.596C643.756 158.401 643.577 159.066 643.38 159.42C643.279 159.801 643.177 160.181 643.246 160.301L643.474 160.973L642.725 161.486L641.397 159.602C641.257 159.361 641.264 158.955 641.512 158.411C641.76 157.866 642.084 157.036 642.554 156.041C643.17 154.882 643.52 153.958 643.793 153.318C644.067 152.678 644.004 152.152 643.89 151.816L643.239 150.826L638.868 153.832L639.583 155.347L638.834 155.86L635.994 151.635L636.742 151.123L637.749 152.309L647.332 145.812L646.688 144.417L647.436 143.904L650.207 148.008L649.459 148.521L648.452 147.334L643.987 150.314L644.847 151.665L651.432 151.8L650.692 150.379L651.441 149.867L653.977 153.704L653.229 154.216L652.197 153.125L645.448 152.844C645.631 153.301 645.574 153.897 645.37 154.657Z" fill="#313131"/>
<path d="M644.997 164.03C645.062 163.028 645.342 161.983 646.097 161.065C646.758 160.121 647.703 159.254 648.908 158.559C650.138 157.768 651.362 157.383 652.509 157.283C653.751 157.208 654.822 157.393 655.817 157.863C656.811 158.334 657.634 159.063 658.26 160.148C659.234 161.835 659.543 163.344 659.015 164.934C658.513 166.429 657.345 167.746 655.512 168.884C654.282 169.675 653.058 170.06 651.79 170.23C650.548 170.304 649.477 170.119 648.388 169.623C647.393 169.153 646.596 168.328 645.944 167.339C645.248 166.134 645.028 165.056 644.997 164.03ZM654.535 158.844C653.319 158.824 651.759 159.323 650.047 160.392C648.455 161.391 647.363 162.423 646.842 163.607C646.226 164.766 646.352 165.818 646.978 166.903C647.629 167.892 648.598 168.458 649.815 168.478C651.127 168.524 652.591 168 654.304 166.931C655.896 165.931 656.987 164.9 657.508 163.715C658.004 162.626 657.999 161.504 657.373 160.419C656.721 159.43 655.847 158.89 654.535 158.844Z" fill="#313131"/>
<path d="M662.027 168.898L661.503 167.434L662.346 166.947L663.599 169.116C663.807 169.477 664.086 169.959 664.459 170.467C664.832 170.974 665.041 171.336 665.18 171.577C665.989 173.118 666.4 174.246 666.24 175.222C666.081 176.198 665.617 176.787 664.748 177.369C664.025 177.786 663.163 177.962 662.378 177.854C661.592 177.745 660.883 177.351 660.275 176.577C660.901 177.662 661.078 178.524 660.918 179.5C660.784 180.381 660.2 181.039 659.356 181.526C658.272 182.152 657.125 182.252 656.01 181.852C654.895 181.451 653.863 180.36 652.82 178.552C652.611 178.191 652.428 177.734 652.219 177.373C651.732 176.529 651.479 175.952 651.41 175.832L650.157 173.663L650.975 173.271L651.861 174.527L662.027 168.898ZM653.568 178.04C654.194 179.124 654.827 179.803 655.587 180.007C656.348 180.21 657.089 180.104 657.933 179.617C658.776 179.13 659.24 178.541 659.392 177.971C659.545 177.4 659.369 176.538 658.812 175.574C658.186 174.49 657.769 173.767 657.63 173.526L652.74 176.188C652.828 176.619 653.081 177.196 653.568 178.04ZM659.15 173.933L659.612 174.872C660.029 175.595 660.618 176.058 661.188 176.211C661.853 176.389 662.5 176.257 663.343 175.77C664.066 175.352 664.504 174.859 664.657 174.288C664.81 173.718 664.608 172.951 664.051 171.987C663.843 171.626 663.539 171.239 663.356 170.782L663.147 170.421L658.594 172.969C658.733 173.21 658.872 173.451 659.15 173.933Z" fill="#313131"/>
<path d="M676.586 194.393L675.768 194.785L674.907 193.434L664.489 198.485L665.057 200.165L664.239 200.557L661.957 195.77L662.775 195.378L663.635 196.729L674.149 191.703L671.519 186.313L660.98 191.434L661.548 193.114L660.73 193.506L658.423 188.813L659.241 188.421L660.031 189.652L670.45 184.6L669.951 183.041L670.769 182.649L676.586 194.393Z" fill="#313131"/>
<path d="M666.282 203.957C666.467 202.886 667.007 202.012 667.737 201.189C668.561 200.391 669.576 199.645 670.851 199.07C672.125 198.494 673.419 198.23 674.61 198.345C675.801 198.461 676.847 198.741 677.79 199.401C678.734 200.061 679.411 200.956 679.847 201.989C680.58 203.816 680.673 205.368 679.886 206.787C679.193 208.231 677.766 209.377 675.819 210.179C674.449 210.729 673.156 210.993 671.965 210.878C670.774 210.762 669.633 210.457 668.69 209.797C667.746 209.136 667.069 208.242 666.538 207.183C666.222 206.08 666.027 204.907 666.282 203.957ZM676.439 200.261C675.178 200.025 673.67 200.334 671.723 201.137C669.992 201.895 668.736 202.781 668.05 203.82C667.365 204.858 667.18 205.929 667.685 207.083C668.191 208.237 669.039 208.872 670.3 209.108C671.561 209.344 673.165 209.061 675.016 208.233C676.748 207.474 678.003 206.588 678.689 205.55C679.375 204.511 679.465 203.415 679.054 202.286C678.549 201.132 677.7 200.497 676.439 200.261Z" fill="#313131"/>
<path d="M676.192 216.39C674.468 216.743 673.105 216.887 672.129 216.728C671.654 216.6 671.179 216.473 670.944 216.207C670.615 215.915 670.381 215.648 670.198 215.192C669.945 214.615 669.857 214.184 669.838 213.873L671.233 213.228C671.252 213.539 671.435 213.995 671.688 214.572C671.732 214.788 671.897 214.934 672.061 215.08C672.226 215.226 672.416 215.277 672.701 215.353C674.437 215.717 677.455 215.099 681.658 213.475L683.028 212.926L682.466 210.84L683.379 210.473L687.195 220.561L686.282 220.928L685.473 219.387L674.592 223.499L675.04 225.249L674.153 225.52L672.144 220.093L673.032 219.822L673.885 221.578L684.765 217.465L683.464 213.959L681.879 214.553C679.786 215.52 677.916 216.038 676.192 216.39Z" fill="#313131"/>
<path d="M687.273 224.452L686.964 222.944L687.852 222.672L690.826 231.72L688.182 232.844L687.841 231.836L689.363 230.716L688.006 226.278L682.991 227.889L684.04 230.818L685.618 230.63L685.959 231.638L681.832 232.976L681.49 231.968L682.911 231.228L681.983 228.23L676.727 229.979L678.553 234.95L681.151 235.137L681.156 236.258L677.879 236.704L674.608 226.865L675.495 226.593L676.14 227.988L687.273 224.452Z" fill="#313131"/>
<path d="M692.059 239.282L691.036 236.258L687.043 236.715L686.753 235.517L691.615 234.477L694.815 245.724L690.015 247.29L689.7 246.187L693.308 244.506L692.526 241.342L681.184 244.516L681.713 247.103L680.825 247.374L678.888 240.54L679.776 240.268L680.597 242.526L692.059 239.282Z" fill="#313131"/>
<path d="M689.118 255.198L688.942 254.336C688.708 254.07 688.233 253.943 687.567 253.764C686.902 253.586 686.116 253.477 685.141 253.318C684.165 253.158 683.5 252.98 683.024 252.853C682.549 252.725 682.29 252.554 682.246 252.338L681.691 249.847L682.553 249.67L682.875 250.368C682.945 250.489 683.205 250.66 683.559 250.857C683.939 250.959 684.51 251.111 685.244 251.41C686.1 251.639 686.86 251.843 687.525 252.021C688.07 252.269 688.52 252.492 688.849 252.783C688.888 251.877 689.187 251.142 689.65 250.554C690.234 249.895 690.957 249.478 691.819 249.301C693.233 248.967 694.399 249.178 695.127 249.882C695.855 250.586 696.455 251.766 696.833 253.395C696.947 253.731 697.01 254.257 697.073 254.783C697.11 255.404 697.198 255.835 697.312 256.172L697.936 258.783L697.049 259.055L696.429 257.565L685.12 260.238L685.378 261.937L684.541 262.019L683.223 256.674L684.085 256.498L684.653 258.178L689.446 257.018L689.118 255.198ZM696.116 254.934C696.053 254.408 695.99 253.882 695.902 253.451C695.656 252.468 695.308 251.866 694.814 251.428C694.32 250.99 693.509 250.976 692.527 251.222C691.544 251.468 690.821 251.886 690.453 252.5C690.084 253.114 689.976 253.9 690.222 254.883C690.468 255.865 690.6 256.512 690.739 256.753L696.299 255.391L696.116 254.934Z" fill="#313131"/>
<path d="M698.302 265.4L697.615 262.262L693.603 262.41L693.408 261.237L698.359 260.628L700.601 272.026L695.713 273.161L695.518 271.988L699.24 270.643L698.769 267.461L687.181 269.652L687.495 272.283L686.633 272.459L685.247 265.467L686.109 265.291L686.809 267.617L698.302 265.4Z" fill="#313131"/>
<path d="M688.94 282.855C689.41 281.861 690.165 280.943 691.129 280.386C692.118 279.735 693.342 279.35 694.73 279.11C696.093 278.966 697.405 279.012 698.494 279.508C699.609 279.908 700.527 280.664 701.299 281.584C702.071 282.503 702.482 283.632 702.652 284.9C702.803 285.857 702.808 286.979 702.641 288.36L702.583 288.956L699.262 289.186L699.093 287.919L701.35 287.097C701.496 286.933 701.598 286.553 701.604 286.147C701.611 285.741 701.669 285.146 701.511 284.594C701.404 283.853 701.082 283.155 700.519 282.597C699.955 282.038 699.246 281.644 698.296 281.39C697.345 281.135 696.319 281.166 695.076 281.24C693.904 281.435 692.921 281.681 691.982 282.143C691.044 282.604 690.391 283.142 689.902 283.826C689.413 284.51 689.279 285.391 689.36 286.227C689.492 286.874 689.555 287.4 689.764 287.762C689.878 288.098 690.112 288.364 690.346 288.631L692.247 289.14L692.226 290.357L689.507 290.239C689.463 290.024 689.375 289.593 689.097 289.111C688.914 288.654 688.705 288.293 688.617 287.862C688.528 287.431 688.345 286.974 688.308 286.353C688.328 285.136 688.444 283.945 688.94 282.855Z" fill="#313131"/>
<path d="M703.842 296.423L702.91 296.479L702.488 294.634L693.095 295.479L695.482 296.832L702.562 301.581L703.088 301.518L703.141 299.8L704.073 299.744L704.536 304.859L703.604 304.915L703.27 303.502L691.677 304.572L691.65 306.194L690.718 306.25L690.281 301.04L691.212 300.984L691.59 302.613L701.079 301.794L698.761 300.562L691.611 295.692L690.99 295.73L690.938 297.447L690.006 297.503L689.568 292.293L690.5 292.237L690.809 293.746L702.402 292.676L702.499 291.174L703.43 291.118L703.842 296.423Z" fill="#313131"/>
<path d="M705.123 316.73L700.249 317.054L700.175 315.812L703.934 315.087L703.907 311.006L692.156 311.524L692.102 314.769L691.17 314.825L690.792 307.492L691.724 307.436L692 309.445L703.561 308.876L703.69 306.874L704.622 306.818L705.123 316.73Z" fill="#313131"/>
<path d="M704.042 320.006L704.234 318.529L705.14 318.568L705.102 323.651L704.196 323.612L704.008 322.034L699.02 322.021L698.981 328.631L703.968 328.644L704.16 327.167L705.066 327.206L705.054 332.194L704.148 332.155L703.934 330.672L692.311 330.715L692.119 332.191L691.213 332.152L691.225 327.164L692.131 327.204L692.32 328.782L697.713 328.801L697.752 322.191L692.359 322.172L692.142 323.743L691.236 323.704L691.178 318.596L692.085 318.635L692.298 320.118L704.042 320.006Z" fill="#313131"/>
<path d="M705.084 338.925L705.05 340.953L691.977 344.885L691.767 346.051L690.86 346.012L691.063 341.075L691.969 341.114L692.062 342.667L694.915 341.904L695.15 336.466L692.47 335.443L692.253 337.014L691.346 336.975L691.517 332.539L692.423 332.578L692.523 333.725L705.084 338.925ZM702.034 340.043L703.664 339.664L701.978 339.111L696.049 336.911L695.803 341.632L702.034 340.043Z" fill="#313131"/>
<path d="M695.449 351.316C693.738 350.858 692.528 350.431 691.68 349.797C691.255 349.479 690.926 349.187 690.812 348.851C690.604 348.49 690.611 348.084 690.617 347.679C690.675 347.083 690.682 346.677 690.853 346.418L692.381 346.42C692.304 346.705 692.272 347.205 692.214 347.801C692.163 347.991 692.208 348.207 692.347 348.448C692.391 348.663 692.555 348.809 692.815 348.98C694.157 350.053 697.224 350.773 701.704 351.159L703.206 351.255L703.576 349.114L704.482 349.153L703.538 359.9L702.632 359.861L702.589 358.118L691.056 357.065L690.667 358.896L689.761 358.857L690.288 353.091L691.194 353.13L691.185 355.063L702.718 356.116L703.021 352.326L701.329 352.178C699.041 351.973 697.09 351.654 695.449 351.316Z" fill="#313131"/>
<path d="M697.09 367.238C696.898 368.714 696.377 369.899 695.483 370.576C694.683 371.278 693.606 371.499 692.319 371.358C690.938 371.191 689.899 370.506 689.248 369.516C688.596 368.527 688.427 367.259 688.619 365.783C688.669 365.593 688.72 365.403 688.676 365.187C688.632 364.972 688.778 364.807 688.855 364.522C689.033 363.857 689.116 363.166 689.269 362.596L689.646 360.048L690.527 360.183L690.499 361.805L702.07 363.479L702.572 361.984L703.453 362.118L702.648 367.403L701.767 367.269L701.655 365.405L697.347 364.76L697.09 367.238ZM689.856 364.586C689.805 364.776 689.703 365.157 689.696 365.562C689.511 366.633 689.713 367.4 690.251 368.054C690.789 368.707 691.498 369.101 692.594 369.191C693.57 369.35 694.432 369.174 694.965 368.706C695.593 368.263 695.892 367.528 696.077 366.457L696.371 364.601L690.085 363.731C689.983 364.111 689.907 364.396 689.856 364.586ZM700.796 379.639L699.915 379.504L699.967 377.787L688.492 376.138L688.034 377.849L687.153 377.715L687.888 372.31L688.769 372.444L688.716 374.161L700.192 375.81L700.65 374.099L701.531 374.234L700.796 379.639Z" fill="#313131"/>
<path d="M697.984 387.849L698.557 386.474L699.412 386.703L698.278 391.696L697.422 391.467L697.545 389.87L692.647 388.761L691.226 395.205L696.124 396.314L696.696 394.939L697.551 395.168L696.443 400.066L695.587 399.837L695.684 398.335L684.317 395.9L683.84 397.3L682.985 397.071L684.094 392.173L684.949 392.403L684.852 393.905L690.155 395.02L691.576 388.576L686.273 387.461L685.745 389.051L684.89 388.822L686.024 383.829L686.879 384.058L686.782 385.56L697.984 387.849Z" fill="#313131"/>
<path d="M694.952 406.389L694.417 408.385L680.84 409.636L680.345 410.725L679.489 410.496L680.668 405.719L681.523 405.948L681.306 407.52L684.196 407.377L685.501 402.125L683.044 400.652L682.446 402.121L681.591 401.892L682.642 397.59L683.497 397.82L683.382 399.011L694.952 406.389ZM691.795 406.765L693.538 406.723L692.024 405.91L686.686 402.646L685.558 407.233L691.795 406.765Z" fill="#313131"/>
<path d="M689.427 421.308L690.341 419.414L691.171 419.738L689.613 424.413L680.81 424.194L678.402 424.058L680.505 425.334L687.673 430.514L686.114 435.189L685.285 434.865L685.724 432.844L674.212 430.574L673.519 432.018L672.689 431.694L674.375 426.543L675.205 426.868L674.867 428.509L683.116 430.414L686.683 431.166L684.372 429.528L676.121 423.446L676.522 422.331L685.997 422.324L689.742 422.411L686.379 420.898L678.632 417.498L677.863 419.228L677.033 418.903L678.566 414.323L679.396 414.647L679.083 416.193L689.427 421.308Z" fill="#313131"/>
<path d="M683.495 441.923L682.771 443.868L669.152 443.376L668.586 444.345L667.757 444.021L669.6 439.422L670.43 439.746L670.022 441.267L672.931 441.435L674.902 436.361L672.642 434.533L671.854 435.952L671.024 435.627L672.645 431.478L673.475 431.802L673.265 432.968L683.495 441.923ZM680.251 441.868L681.943 442.016L680.575 441.038L675.725 437.091L674.027 441.525L680.251 441.868Z" fill="#313131"/>
<path d="M678.427 450.954L679.259 449.751L680.089 450.075L679.072 452.349C678.85 452.799 678.748 453.179 678.551 453.534C678.277 454.174 678.125 454.744 677.877 455.289C677.133 456.923 676.353 457.936 675.414 458.397C674.501 458.764 673.474 458.794 672.195 458.248C671.295 457.803 670.612 457.314 670.099 456.566C669.587 455.817 669.385 455.05 669.329 454.119C669.273 453.187 669.528 452.236 669.972 451.337C670.169 450.982 670.246 450.697 670.442 450.343C670.639 449.988 670.69 449.798 670.811 449.728L667.067 448.114L665.86 450.337L665.03 450.013L667.534 444.471L668.364 444.795L667.862 446.29L678.427 450.954ZM670.872 451.782C670.427 452.681 670.413 453.492 670.685 454.38C670.956 455.268 671.71 455.877 672.989 456.423C673.984 456.894 674.795 456.907 675.372 456.654C676.069 456.332 676.558 455.648 677.028 454.654C677.225 454.299 677.327 453.919 677.454 453.444C677.531 453.159 677.582 452.969 677.607 452.874L671.495 450.217C671.418 450.502 671.17 451.047 670.872 451.782Z" fill="#313131"/>
<path d="M661.96 458.052C662.924 457.495 664.027 457.18 665.149 457.175C666.365 457.195 667.601 457.526 668.855 458.168C670.109 458.809 671.122 459.59 671.774 460.579C672.52 461.594 672.836 462.697 672.936 463.845C673.036 464.992 672.825 466.158 672.209 467.317C671.765 468.216 671.104 469.16 670.298 470.268L669.955 470.787L667.023 469.187L667.519 468.097L669.894 468.734C670.11 468.69 670.376 468.455 670.668 468.126C670.96 467.797 671.183 467.347 671.525 466.828C671.919 466.119 672.002 465.428 671.826 464.566C671.719 463.824 671.302 463.101 670.694 462.327C670.061 461.648 669.213 461.014 668.054 460.398C666.964 459.902 665.944 459.527 664.969 459.367C663.993 459.208 663.061 459.263 662.243 459.655C661.451 459.952 660.892 460.516 660.447 461.415C660.174 462.055 659.952 462.505 659.945 462.91C659.843 463.29 659.862 463.601 659.975 463.937L661.311 465.415L660.651 466.359L658.434 464.746C658.511 464.461 658.613 464.081 658.74 463.606C658.867 463.131 658.874 462.725 659.001 462.25C659.103 461.87 659.351 461.325 659.599 460.78C660.215 459.621 660.97 458.703 661.96 458.052Z" fill="#313131"/>
<path d="M662.332 485.551L661.553 485.037L662.322 483.307L654.216 478.589L655.392 481.043L658.336 489.064L658.785 489.286L659.858 487.944L660.637 488.458L658.033 492.853L657.254 492.339L657.826 490.964L647.782 485.115L646.83 486.388L646.025 485.969L648.654 481.479L649.459 481.898L648.741 483.437L656.917 488.276L655.69 486.012L652.772 477.896L652.157 477.528L651.059 478.965L650.255 478.546L652.91 473.961L653.714 474.38L653.116 475.85L663.161 481.699L664.088 480.521L664.866 481.035L662.332 485.551Z" fill="#313131"/>
<path d="M655.615 496.178C655.367 496.722 655.239 497.197 655.042 497.552C654.846 497.907 654.649 498.261 654.477 498.521C653.62 499.819 652.77 500.712 651.857 501.078C650.944 501.445 650.037 501.406 649.164 500.866C648.29 500.326 647.872 499.603 647.696 498.741C647.519 497.879 647.628 497.093 647.978 496.168C647.317 497.112 646.544 497.719 645.681 497.896C644.819 498.072 644.034 497.964 643.255 497.449C642.121 496.738 641.444 495.844 641.344 494.696C641.218 493.644 641.575 492.314 642.604 490.756C642.972 490.142 643.41 489.648 643.848 489.154C644.26 488.755 644.647 488.452 644.913 488.217C645.18 487.983 645.326 487.819 645.421 487.844L647.941 489.843L647.427 490.622L645.127 489.701C644.525 490.048 643.966 490.612 643.306 491.555C642.817 492.239 642.734 492.93 642.866 493.576C642.999 494.223 643.562 494.781 644.436 495.321C645.05 495.69 645.716 495.868 646.457 495.761C647.199 495.654 647.852 495.116 648.392 494.242L649.103 493.109L649.977 493.648L649.437 494.522C649.12 494.947 648.993 495.422 648.865 495.897C648.833 496.398 648.896 496.924 649.079 497.38C649.262 497.837 649.661 498.249 650.18 498.592C650.864 499.081 651.555 499.164 652.106 499.006C652.658 498.848 653.191 498.38 653.68 497.696C653.997 497.272 654.219 496.822 654.226 496.417C654.328 496.037 654.309 495.726 654.17 495.485L652.879 494.222L653.539 493.279L656.022 494.657C655.964 495.253 655.767 495.607 655.615 496.178Z" fill="#313131"/>
<path d="M645.827 509.139L646.943 508.012L647.722 508.527L646.256 510.578C645.964 510.907 645.742 511.357 645.373 511.971C645.03 512.491 644.833 512.845 644.662 513.105C643.684 514.473 642.739 515.34 641.851 515.611C640.964 515.883 640.083 515.749 639.33 515.139C638.646 514.651 638.108 513.997 637.931 513.135C637.73 512.368 637.838 511.582 638.162 510.752C637.502 511.696 636.728 512.303 635.841 512.575C634.979 512.751 634.098 512.617 633.344 512.008C632.331 511.227 631.775 510.263 631.675 509.116C631.575 507.969 632.077 506.473 633.321 504.872C633.613 504.542 633.81 504.188 634.102 503.859C634.711 503.105 635.054 502.586 635.175 502.516L636.641 500.465L637.42 500.979L636.658 502.303L645.827 509.139ZM633.91 505.335C633.129 506.348 632.875 507.298 632.887 508.015C632.898 508.731 633.411 509.479 634.19 509.993C634.943 510.603 635.703 510.806 636.35 510.674C636.997 510.542 637.65 510.004 638.285 509.155C639.066 508.142 639.459 507.433 639.631 507.173L635.103 503.923C634.983 503.993 634.545 504.486 633.91 505.335ZM639.965 508.587L639.33 509.436C638.841 510.119 638.663 510.785 638.795 511.431C638.928 512.078 639.371 512.706 640.055 513.195C640.738 513.683 641.404 513.862 642.025 513.824C642.576 513.667 643.204 513.224 643.865 512.28C644.156 511.951 644.379 511.501 644.576 511.147L644.773 510.792L640.6 507.739C640.549 507.929 640.282 508.163 639.965 508.587Z" fill="#313131"/>
<path d="M637.051 522.881L635.807 524.483L622.852 519.993L622.027 520.791L621.274 520.181L624.346 516.319L625.1 516.928L624.242 518.226L626.922 519.25L630.311 514.963L628.704 512.598L627.588 513.724L626.834 513.115L629.589 509.677L630.342 510.286L629.752 511.35L637.051 522.881ZM633.966 521.851L635.531 522.473L634.481 521.072L630.988 515.858L628.062 519.556L633.966 521.851Z" fill="#313131"/>
<path d="M619.699 523.019C620.802 522.703 621.924 522.698 623.064 523.004C624.205 523.309 625.338 524.021 626.421 524.922C627.504 525.823 628.25 526.838 628.661 527.966C629.071 529.095 629.171 530.242 628.961 531.408C628.75 532.574 628.16 533.638 627.404 534.556C626.795 535.309 625.875 536.082 624.835 536.923L624.327 537.297L621.909 534.917L622.76 534.024L624.888 535.206C625.103 535.162 625.439 535.048 625.826 534.744C626.188 534.536 626.6 534.137 626.943 533.618C627.501 533.054 627.8 532.319 627.814 531.508C627.922 530.722 627.72 529.955 627.233 529.112C626.746 528.268 626.164 527.399 625.151 526.619C624.233 525.863 623.385 525.229 622.46 524.879C621.535 524.529 620.654 524.395 619.818 524.477C618.981 524.558 618.258 524.975 617.649 525.729C617.211 526.223 616.893 526.647 616.792 527.027C616.595 527.382 616.613 527.692 616.537 527.977L617.39 529.734L616.47 530.506L614.787 528.425C614.933 528.261 615.13 527.906 615.378 527.361C615.6 526.911 615.797 526.557 615.994 526.202C616.191 525.847 616.508 525.423 616.946 524.929C617.581 524.081 618.596 523.334 619.699 523.019Z" fill="#313131"/>
<path d="M615.784 542.952C616.099 544.055 616.13 545.082 615.875 546.032C615.62 546.983 615.176 547.882 614.376 548.585C613.526 549.477 612.562 550.034 611.579 550.28C610.597 550.526 609.501 550.436 608.481 550.061C607.461 549.685 606.422 549 605.435 548.124C604.377 547.128 603.561 545.992 603.176 544.769C602.765 543.64 602.57 542.467 602.851 541.422C603.036 540.351 603.601 539.382 604.331 538.559C605.181 537.667 606.145 537.11 607.153 536.769C608.136 536.523 609.232 536.613 610.252 536.988C611.272 537.363 612.31 538.049 613.298 538.925L615.411 536.741L611.442 532.927L610.16 533.908L609.528 533.229L613.075 529.494L613.733 530.078L612.781 531.351L621.118 539.39L622.279 538.479L622.912 539.158L619.39 542.798L618.757 542.119L619.709 540.846L616.069 537.325L613.956 539.509C614.937 540.79 615.468 541.849 615.784 542.952ZM614.609 544.675C614.319 543.476 613.459 542.126 612.003 540.717C610.711 539.454 609.388 538.692 608.127 538.456C606.866 538.22 605.763 538.536 604.913 539.428C604.062 540.321 603.808 541.271 604.098 542.469C604.388 543.667 605.248 545.018 606.799 546.452C608.091 547.715 609.319 548.452 610.555 548.783C611.79 549.114 612.798 548.773 613.648 547.88C614.499 546.988 614.779 545.942 614.609 544.675Z" fill="#313131"/>
<path d="M597.512 553.742C596.726 553.634 595.681 553.354 594.446 553.022C593.59 552.793 592.925 552.615 592.45 552.488C592.07 552.386 591.759 552.405 591.518 552.544L590.821 552.866L590.188 552.187L591.838 550.592C592.079 550.453 592.415 550.339 593.08 550.517C593.65 550.67 594.505 550.899 595.646 551.205C596.856 551.631 597.806 551.886 598.592 551.994C599.257 552.173 599.783 552.11 600.075 551.781L600.9 550.983L597.267 547.056L595.89 548.011L595.257 547.332L599.039 543.864L599.672 544.543L598.65 545.695L606.549 554.228L607.805 553.343L608.438 554.022L604.777 557.42L604.144 556.742L605.096 555.469L601.463 551.541L600.251 552.643L601.143 559.197L602.399 558.311L603.032 558.99L599.638 562.155L599.005 561.476L599.932 560.298L599.186 553.58C599.014 553.839 598.298 553.851 597.512 553.742Z" fill="#313131"/>
<path d="M588.233 554.923C589.285 554.797 590.356 554.982 591.325 555.547C592.414 556.043 593.307 556.893 594.243 557.959C595.18 559.025 595.781 560.205 596.071 561.403C596.361 562.601 596.366 563.723 595.991 564.742C595.616 565.762 595.05 566.731 594.131 567.503C592.678 568.744 591.118 569.243 589.547 569.025C587.975 568.808 586.512 567.805 585.012 566.181C584.076 565.115 583.475 563.935 583.185 562.737C582.895 561.539 582.89 560.417 583.29 559.302C583.596 558.162 584.231 557.313 585.151 556.541C586.147 555.484 587.18 555.048 588.233 554.923ZM594.794 563.505C594.625 562.237 593.885 560.817 592.55 559.339C591.309 557.886 590.106 557.054 588.896 556.628C587.686 556.202 586.608 556.423 585.689 557.195C584.769 557.967 584.394 558.987 584.563 560.254C584.733 561.522 585.472 562.943 586.782 564.516C588.023 565.969 589.226 566.8 590.436 567.227C591.672 567.558 592.749 567.337 593.669 566.565C594.589 565.793 594.964 564.773 594.794 563.505Z" fill="#313131"/>
<path d="M586.101 572.38L587.427 571.615L588.034 572.389L586.099 573.908C585.738 574.116 585.325 574.515 584.888 575.009C584.475 575.408 584.088 575.711 583.847 575.851C582.445 576.901 581.386 577.432 580.455 577.488C579.523 577.544 578.719 577.125 578.111 576.351C577.573 575.697 577.276 574.905 577.29 574.093C577.303 573.282 577.602 572.547 578.186 571.889C577.266 572.661 576.353 573.028 575.447 572.989C574.541 572.949 573.736 572.53 573.129 571.756C572.382 570.741 572.067 569.638 572.277 568.472C572.488 567.307 573.44 566.034 574.988 564.819C575.375 564.515 575.736 564.306 576.003 564.072C576.777 563.465 577.259 563.186 577.404 563.022L579.339 561.503L579.852 562.252L578.735 563.378L586.101 572.38ZM575.716 565.523C574.701 566.27 574.187 567.049 574.078 567.834C573.969 568.62 574.171 569.387 574.778 570.161C575.386 570.935 576 571.303 576.691 571.387C577.382 571.47 578.079 571.147 578.974 570.47C579.989 569.724 580.642 569.186 580.813 568.926L577.403 564.549C577.023 564.447 576.515 564.821 575.716 565.523ZM580.647 570.308L579.873 570.915C579.22 571.453 578.851 572.067 578.768 572.758C578.685 573.449 578.912 574.121 579.545 574.8C580.083 575.453 580.697 575.821 581.293 575.879C581.889 575.937 582.586 575.615 583.481 574.937C583.868 574.634 584.16 574.305 584.547 574.001L584.813 573.767L581.636 569.656C581.3 569.77 581.034 570.004 580.647 570.308Z" fill="#313131"/>
<g style="mix-blend-mode:overlay">
<circle cx="171.44" cy="104.395" r="2" fill="#313131"/>
</g>
<g style="mix-blend-mode:overlay">
<circle cx="575.939" cy="78.7655" r="2" fill="#313131"/>
</g>
</g>
<symbol>
</svg>
