<svg width="777" height="700" viewBox="0 0 777 700" fill="none" xmlns="http://www.w3.org/2000/svg">
<symbol id="overlay">
<g style="mix-blend-mode:overlay">
<path d="M530.78 649.3L530.388 648.482L531.885 647.457L527.706 639.106L527.373 641.869L525.468 650.118L525.652 650.574L527.211 650.076L527.603 650.894L523.006 653.227L522.614 652.409L523.87 651.523L518.723 641.079L517.259 641.603L516.867 640.785L521.559 638.477L521.951 639.295L520.6 640.156L524.849 648.628L525.131 646.055L527.087 637.616L526.739 637.013L525.059 637.582L524.667 636.764L529.359 634.456L529.751 635.274L528.4 636.134L533.547 646.578L534.986 646.149L535.378 646.967L530.78 649.3Z" fill="#313131"/>
<path d="M519.405 654.502C518.897 654.876 518.536 655.084 518.174 655.293C517.813 655.502 517.451 655.711 517.115 655.824C515.72 656.469 514.522 656.759 513.546 656.599C512.57 656.44 511.886 655.951 511.45 654.918C511.084 654.004 511.002 653.168 511.327 652.338C511.651 651.508 512.235 650.85 512.983 650.337C511.95 650.773 511.018 650.829 510.163 650.6C509.333 650.276 508.769 649.717 508.377 648.899C507.802 647.625 507.772 646.598 508.242 645.604C508.712 644.609 509.753 643.768 511.389 642.984C512.086 642.661 512.758 642.434 513.284 642.371C513.836 642.213 514.362 642.151 514.672 642.132C514.983 642.113 515.199 642.069 515.294 642.095L516.291 645.214L515.473 645.606L513.98 643.576C513.289 643.493 512.522 643.695 511.489 644.131C510.696 644.428 510.258 644.922 510.08 645.587C509.902 646.252 510.008 646.994 510.375 647.907C510.697 648.604 511.166 649.137 511.805 649.411C512.445 649.684 513.282 649.602 514.315 649.166L515.47 648.661L515.931 649.599L514.898 650.035C514.441 650.219 514.054 650.522 513.642 650.921C513.324 651.345 513.102 651.795 512.975 652.27C512.942 652.771 512.98 653.392 513.232 653.969C513.529 654.762 514.023 655.199 514.593 655.352C515.163 655.505 515.81 655.373 516.603 655.076C517.085 654.797 517.541 654.614 517.833 654.285C518.125 653.956 518.296 653.696 518.347 653.506L517.994 651.782L519.054 651.251L520.394 653.851C520.274 653.92 519.912 654.129 519.405 654.502Z" fill="#313131"/>
<path d="M504.181 659.998L505.69 659.689L506.056 660.602L503.679 661.493C503.317 661.702 502.766 661.859 502.189 662.112C501.612 662.365 501.25 662.574 501.009 662.713C499.424 663.307 498.156 663.476 497.301 663.247C496.446 663.018 495.787 662.434 495.446 661.426C495.149 660.633 495.068 659.797 495.367 659.062C495.571 658.302 496.154 657.643 496.877 657.226C495.749 657.637 494.792 657.787 493.962 657.463C493.132 657.139 492.473 656.555 492.132 655.547C491.627 654.393 491.717 653.297 492.308 652.233C492.898 651.169 494.059 650.258 495.98 649.55C496.437 649.367 496.773 649.253 497.204 649.165C498.092 648.893 498.669 648.641 498.884 648.597L501.167 647.68L501.438 648.568L500.018 649.308L504.181 659.998ZM496.277 650.343C495.123 650.848 494.375 651.361 493.981 652.07C493.587 652.779 493.694 653.521 493.965 654.409C494.332 655.322 494.8 655.855 495.44 656.128C496.08 656.401 496.916 656.32 497.95 655.884C499.104 655.378 499.871 655.176 500.233 654.967L498.268 649.756C497.862 649.749 497.285 650.002 496.277 650.343ZM499.54 656.412L498.627 656.778C497.835 657.075 497.302 657.543 497.028 658.183C496.755 658.823 496.767 659.539 497.159 660.357C497.456 661.15 497.924 661.683 498.469 661.93C499.014 662.178 499.85 662.097 500.884 661.661C501.34 661.478 501.702 661.269 502.158 661.086L502.52 660.877L500.669 656.001C500.428 656.14 500.092 656.254 499.54 656.412Z" fill="#313131"/>
<path d="M489.343 666.717L487.422 667.425L479.012 656.615L477.84 656.81L477.568 655.923L482.273 654.331L482.544 655.219L481.149 655.864L482.851 658.255L488.012 656.48L487.965 653.616L486.361 653.899L486.089 653.011L490.337 651.603L490.609 652.491L489.55 653.022L489.343 666.717ZM487.356 664.25L488.312 665.626L488.174 663.858L488.017 657.602L483.528 659.15L487.356 664.25Z" fill="#313131"/>
<path d="M474.727 657.402C475.867 657.708 476.741 658.248 477.514 659.168C478.286 660.087 478.912 661.172 479.246 662.586C479.606 663.904 479.68 665.147 479.444 666.407C479.208 667.668 478.643 668.637 477.818 669.435C476.993 670.232 476.004 670.884 474.78 671.269C473.893 671.541 472.72 671.736 471.383 671.785L470.762 671.822L470.005 668.564L471.229 668.178L472.386 670.322C472.576 670.373 472.956 670.475 473.361 670.482C473.767 670.488 474.319 670.331 474.965 670.198C475.732 669.996 476.36 669.554 476.824 668.965C477.287 668.376 477.611 667.546 477.65 666.64C477.689 665.734 477.589 664.586 477.274 663.483C476.958 662.38 476.522 661.347 475.915 660.573C475.307 659.799 474.674 659.12 473.939 658.821C473.205 658.522 472.324 658.388 471.436 658.66C470.79 658.792 470.308 659.07 470.067 659.209C469.826 659.348 469.534 659.678 469.362 659.937L469.138 661.914L467.966 662.109L467.652 659.479C467.867 659.435 468.229 659.226 468.711 658.948C469.098 658.644 469.459 658.435 469.916 658.252C470.277 658.044 470.829 657.886 471.38 657.728C472.439 657.197 473.587 657.097 474.727 657.402Z" fill="#313131"/>
<path d="M460.64 671.962C460.265 672.982 459.7 673.951 459.021 674.584C458.222 675.286 457.378 675.773 456.421 675.924C455.223 676.214 454.127 676.124 453.202 675.775C452.277 675.425 451.428 674.79 450.751 673.896C450.074 673.001 449.543 671.942 449.304 670.554C448.995 669.045 448.946 667.708 449.157 666.542C449.393 665.281 449.958 664.312 450.688 663.489C451.417 662.666 452.356 662.205 453.459 661.889C454.657 661.599 455.779 661.594 456.799 661.969C457.819 662.344 458.572 662.954 459.275 663.753C459.952 664.648 460.483 665.707 460.722 667.095L463.644 666.452L462.421 661.133L460.843 661.321L460.667 660.459L465.675 659.255L465.851 660.117L464.387 660.641L467.06 671.951L468.518 671.832L468.694 672.694L463.807 673.829L463.63 672.967L465.095 672.443L463.96 667.555L461.012 668.293C461.036 669.725 460.92 670.917 460.64 671.962ZM458.573 672.834C458.999 671.624 459.001 670.097 458.535 668.037C458.087 666.287 457.442 664.892 456.549 664.041C455.657 663.191 454.637 662.816 453.344 663.081C452.145 663.371 451.441 664.099 451.04 665.214C450.64 666.329 450.708 667.976 451.174 670.037C451.622 671.786 452.172 673.156 453.064 674.006C453.931 674.952 454.977 675.232 456.08 674.916C457.348 674.747 458.147 674.044 458.573 672.834Z" fill="#313131"/>
<path d="M439.366 671.151C438.803 670.592 437.979 669.862 437.112 668.917C436.479 668.238 436.106 667.731 435.777 667.439C435.448 667.147 435.188 666.975 434.998 666.925L434.307 666.841L434.131 665.979L436.381 665.564C436.692 665.545 437.046 665.742 437.445 666.154C437.844 666.567 438.477 667.246 439.154 668.14C439.996 669.18 440.629 669.859 441.192 670.418C441.66 670.951 442.11 671.173 442.541 671.085L443.714 670.89L442.776 665.647L441.128 665.715L440.951 664.853L445.978 663.959L446.129 664.916L444.69 665.345L446.717 676.787L448.244 676.789L448.395 677.746L443.489 678.571L443.389 677.423L444.854 676.899L443.941 671.562L442.337 671.845L439.516 677.812L441.069 677.718L441.22 678.676L436.719 679.507L436.568 678.55L438.008 678.12L441.07 672.015C440.569 671.982 439.955 671.614 439.366 671.151Z" fill="#313131"/>
<path d="M431.012 666.977C432.006 667.447 432.734 668.151 433.265 669.21C433.822 670.174 434.207 671.398 434.446 672.786C434.685 674.174 434.544 675.461 434.118 676.671C433.718 677.786 433.057 678.729 432.258 679.432C431.363 680.109 430.425 680.57 429.157 680.74C427.243 681.042 425.627 680.609 424.501 679.492C423.374 678.375 422.564 676.834 422.339 674.635C422.125 673.152 422.266 671.865 422.667 670.75C423.093 669.54 423.728 668.692 424.553 667.894C425.447 667.217 426.48 666.781 427.653 666.586C428.921 666.417 430.017 666.507 431.012 666.977ZM431.785 677.777C432.306 676.592 432.498 675.116 432.247 673.012C432.04 671.123 431.49 669.753 430.648 668.713C429.807 667.672 428.787 667.297 427.614 667.492C426.441 667.687 425.572 668.269 425.051 669.454C424.53 670.638 424.313 672.21 424.589 674.219C424.796 676.108 425.346 677.478 426.213 678.423C426.985 679.343 427.98 679.813 429.247 679.644C430.369 679.639 431.263 678.961 431.785 677.777Z" fill="#313131"/>
<path d="M419.638 680.532L421.14 680.629L421.196 681.56L418.686 681.805C418.281 681.798 417.729 681.956 417.108 681.993C416.461 682.125 416.056 682.118 415.84 682.162C414.167 682.325 412.881 682.184 412.102 681.67C411.323 681.156 410.905 680.433 410.78 679.381C410.698 678.544 410.928 677.689 411.296 677.074C411.664 676.46 412.413 675.948 413.3 675.676C412.153 675.776 411.177 675.616 410.398 675.102C409.619 674.588 409.228 673.77 409.172 672.838C409.097 671.596 409.377 670.551 410.227 669.658C411.078 668.765 412.447 668.216 414.526 668.06C414.957 667.972 415.363 667.978 415.864 668.011C416.795 667.955 417.416 667.917 417.606 667.968L420.116 667.724L420.172 668.656L418.664 668.965L419.638 680.532ZM414.652 669.112C413.409 669.186 412.496 669.553 412.033 670.142C411.475 670.705 411.271 671.465 411.422 672.423C411.478 673.354 411.8 674.052 412.32 674.395C412.839 674.738 413.694 674.967 414.746 674.841C415.989 674.767 416.825 674.685 417.161 674.572L416.705 669.051C416.325 668.949 415.704 668.986 414.652 669.112ZM416.209 675.844L415.157 675.97C414.32 676.051 413.623 676.374 413.28 676.893C412.937 677.412 412.733 678.172 412.815 679.009C412.896 679.846 413.123 680.518 413.643 680.861C414.162 681.203 414.922 681.407 415.974 681.282C416.405 681.193 416.906 681.226 417.363 681.043L417.794 680.954L417.356 675.744C417.046 675.763 416.735 675.782 416.209 675.844Z" fill="#313131"/>
<path d="M390.286 683.26L390.23 682.328L391.833 682.045L391.48 670.44L389.693 670.267L389.637 669.336L394.865 669.209L394.921 670.14L393.343 670.329L393.671 682.028L399.616 681.89L399.288 670.19L397.596 670.042L397.54 669.11L402.769 668.984L402.825 669.915L401.341 670.129L401.695 681.734L403.267 681.951L403.322 682.883L390.286 683.26Z" fill="#313131"/>
<path d="M385.878 670.06C386.726 670.695 387.429 671.494 387.839 672.623C388.275 673.656 388.445 674.924 388.469 676.356C388.397 677.763 388.161 679.024 387.571 680.088C386.98 681.152 386.25 681.975 385.286 682.532C384.322 683.088 383.219 683.404 382.097 683.409C380.164 683.4 378.72 682.708 377.714 681.521C376.733 680.24 376.26 678.585 376.25 676.342C376.226 674.909 376.583 673.579 377.173 672.515C377.764 671.451 378.519 670.533 379.483 669.976C380.447 669.42 381.55 669.104 382.767 669.125C383.984 669.145 385.029 669.425 385.878 670.06ZM385.123 680.858C385.809 679.82 386.216 678.299 386.25 676.271C386.234 674.433 385.925 672.925 385.299 671.84C384.673 670.756 383.704 670.19 382.487 670.17C381.27 670.15 380.306 670.706 379.62 671.745C378.935 672.783 378.502 674.399 378.468 676.427C378.459 678.36 378.698 679.748 379.419 680.858C380.045 681.942 381.014 682.507 382.231 682.528C383.404 682.333 384.343 681.871 385.123 680.858Z" fill="#313131"/>
<path d="M370.371 673.952C370.735 672.216 371.161 671.006 371.795 670.157C372.113 669.733 372.405 669.404 372.766 669.195C373.128 668.986 373.559 668.898 373.964 668.905C374.56 668.963 374.966 668.97 375.251 669.046L375.249 670.573C374.964 670.497 374.463 670.465 373.868 670.407C373.677 670.356 373.462 670.4 373.221 670.539C372.98 670.678 372.834 670.843 372.688 671.007C371.59 672.445 370.991 675.442 370.7 679.947L370.603 681.449L372.745 681.82L372.706 682.726L361.882 682.066L361.921 681.16L363.689 681.023L364.457 669.413L362.601 669.119L362.64 668.213L368.337 668.619L368.298 669.526L366.339 669.612L365.571 681.222L369.386 681.429L369.534 679.737C369.809 677.57 370.033 675.593 370.371 673.952Z" fill="#313131"/>
<path d="M358.493 680.649L360.013 681.057L359.879 681.937L350.374 680.918L350.447 677.984L351.544 678.074L351.871 679.893L356.49 680.52L357.08 675.279L354.006 674.965L353.599 676.486L352.598 676.421L353.027 672.156L354.029 672.221L354.096 673.869L357.144 674.278L357.715 668.727L352.424 668.328L351.217 670.551L350.127 670.055L350.993 666.824L361.284 667.952L361.15 668.833L359.623 668.831L358.493 680.649Z" fill="#313131"/>
<path d="M343.057 678.957L346.225 679.297L347.434 675.547L348.599 675.757L347.586 680.68L336.041 678.911L336.554 673.956L337.72 674.166L337.772 678.153L340.984 678.708L342.684 667.042L340.093 666.45L340.227 665.569L347.273 666.642L347.139 667.523L344.731 667.387L343.057 678.957Z" fill="#313131"/>
<path d="M329.727 669.784L330.608 669.918C330.944 669.804 331.356 669.405 331.699 668.886C332.042 668.367 332.626 667.708 333.14 666.929C333.654 666.151 334.118 665.562 334.435 665.137C334.752 664.713 334.993 664.574 335.183 664.625L337.705 665.097L337.571 665.978L336.829 666.085C336.614 666.129 336.398 666.173 336.106 666.502C335.84 666.736 335.402 667.23 334.939 667.819C334.329 668.572 333.866 669.161 333.454 669.56C333.016 670.054 332.654 670.262 332.198 670.446C333.002 670.865 333.565 671.423 333.888 672.121C334.21 672.818 334.292 673.655 334.132 674.631C333.845 676.082 333.185 677.025 332.272 677.392C331.264 677.733 330.021 677.807 328.38 677.47C328 677.368 327.62 677.266 327.05 677.113C326.48 676.96 326.005 676.833 325.719 676.757L323.103 676.259L323.237 675.378L324.834 675.501L327.078 664.083L325.393 663.53L325.527 662.649L330.951 663.695L330.817 664.575L329.03 664.402L328.137 669.256L329.727 669.784ZM327.184 676.232C327.754 676.385 328.229 676.512 328.61 676.614C329.585 676.774 330.302 676.762 330.904 676.414C331.507 676.066 331.875 675.452 332.06 674.381C332.22 673.405 332.138 672.569 331.695 671.941C331.252 671.313 330.638 670.944 329.688 670.69C328.712 670.53 328.047 670.352 327.736 670.371L326.639 675.984L327.184 676.232Z" fill="#313131"/>
<path d="M316.603 673.906L319.79 674.557L321.284 670.883L322.519 671.214L321.031 676.009L309.74 673.29L310.659 668.341L311.799 668.647L311.446 672.626L314.582 673.467L317.258 661.961L314.717 661.178L314.946 660.323L321.935 661.992L321.706 662.847L319.253 662.495L316.603 673.906Z" fill="#313131"/>
<path d="M304.6 658.263C305.397 659.088 305.833 660.122 306.028 661.294C306.223 662.467 306.082 663.754 305.7 665.179C305.344 666.509 304.633 667.643 303.808 668.441C302.957 669.333 301.898 669.864 300.795 670.18C299.597 670.47 298.501 670.38 297.265 670.049C296.315 669.794 295.321 669.324 294.067 668.682L293.522 668.435L294.673 665.28L295.908 665.611L295.677 667.994C295.816 668.235 296.076 668.406 296.431 668.603C296.785 668.8 297.33 669.048 297.9 669.2C298.661 669.404 299.377 669.392 300.144 669.19C300.816 668.963 301.564 668.451 302.079 667.672C302.688 666.918 303.158 665.924 303.464 664.783C303.769 663.643 303.954 662.572 303.924 661.545C303.893 660.519 303.622 659.631 303.204 658.908C302.787 658.185 302.103 657.696 301.153 657.442C300.488 657.263 300.012 657.136 299.607 657.129C299.201 657.122 298.865 657.236 298.624 657.375L297.406 658.882L296.316 658.387L297.479 655.948C297.764 656.024 298.17 656.031 298.67 656.063C299.171 656.096 299.576 656.103 299.982 656.109C300.388 656.116 300.958 656.269 301.528 656.422C302.763 656.753 303.827 657.344 304.6 658.263Z" fill="#313131"/>
<path d="M286.16 666.259L286.484 665.429L288.315 665.817L291.4 656.968L289.224 658.625L282.013 663.11L281.885 663.585L283.425 664.303L283.1 665.133L278.26 663.429L278.585 662.599L280.036 662.886L283.801 651.876L282.357 651.183L282.681 650.353L287.616 652.083L287.291 652.913L285.65 652.575L282.541 661.52L284.596 659.932L292.023 655.403L292.201 654.738L290.567 653.994L290.891 653.164L295.826 654.894L295.502 655.724L293.956 655.411L290.191 666.422L291.54 667.089L291.215 667.919L286.16 666.259Z" fill="#313131"/>
<path d="M267.067 659.207L268.72 654.557L269.93 654.983L269.032 658.715L272.776 660.329L277.136 649.377L274.153 647.966L274.477 647.137L281.306 649.781L280.982 650.611L278.986 650.076L274.771 660.864L276.545 661.849L276.221 662.678L267.067 659.207Z" fill="#313131"/>
<path d="M264.528 656.897L265.732 657.729L265.407 658.559L260.764 656.5L261.089 655.67L262.609 656.077L264.643 651.53L258.625 648.899L256.591 653.446L257.89 654.304L257.565 655.133L253.017 653.1L253.342 652.27L254.767 652.652L259.457 641.992L258.133 641.229L258.458 640.4L263.006 642.433L262.681 643.263L261.186 642.76L258.93 647.758L264.948 650.389L267.204 645.391L265.785 644.604L266.109 643.774L270.847 645.858L270.523 646.688L269.123 646.211L264.528 656.897Z" fill="#313131"/>
<path d="M246.817 650.012L245.018 649.123L246.726 635.524L245.783 634.864L246.202 634.06L250.604 636.258L250.185 637.062L248.69 636.56L248.236 639.392L253.088 641.813L255.081 639.698L253.687 638.816L254.107 638.011L258.059 639.987L257.64 640.791L256.525 640.391L246.817 650.012ZM247.061 646.818L246.723 648.46L247.891 647.143L252.263 642.61L248.051 640.463L247.061 646.818Z" fill="#313131"/>
<path d="M239.507 636.239C240.579 634.896 241.55 633.934 242.419 633.352C242.901 633.074 243.237 632.96 243.668 632.872C244.074 632.879 244.454 632.981 244.904 633.203C245.448 633.451 245.778 633.743 246.037 633.914L245.465 635.289C245.206 635.117 244.851 634.92 244.237 634.552C244.072 634.406 243.882 634.355 243.666 634.399C243.451 634.443 243.235 634.487 242.994 634.627C241.453 635.436 239.575 637.886 237.288 641.857L236.526 643.181L238.318 644.476L237.899 645.28L228.513 640.015L228.932 639.211L230.592 639.859L236.276 629.669L234.718 628.64L235.138 627.836L240.198 630.618L239.779 631.422L238.049 630.653L232.391 640.749L235.678 642.546L236.491 641.032C237.38 639.234 238.434 637.581 239.507 636.239Z" fill="#313131"/>
<path d="M211.458 629.538L211.972 628.759L213.607 629.502L219.81 619.655L218.468 618.582L218.982 617.803L223.586 620.768L223.072 621.547L221.533 620.829L215.329 630.677L216.671 631.75L216.157 632.528L211.458 629.538ZM224.271 631.138C222.973 630.28 222.201 629.36 221.86 628.352C221.519 627.344 221.704 626.273 222.415 625.14C223.151 623.911 224.141 623.26 225.314 623.065C226.486 622.87 227.722 623.201 229.045 623.963C229.21 624.109 229.4 624.16 229.565 624.306C229.729 624.452 229.894 624.598 230.084 624.648C230.673 625.112 231.192 625.455 231.616 625.772L233.788 627.169L233.274 627.948L231.83 627.255L225.626 637.103L226.779 638.125L226.264 638.903L221.73 636.059L222.244 635.28L223.974 636.049L226.278 632.388L224.271 631.138ZM229.614 625.643C229.449 625.497 229.19 625.325 228.74 625.103C227.866 624.563 227.011 624.334 226.244 624.536C225.476 624.738 224.823 625.276 224.163 626.219C223.623 627.093 223.419 627.854 223.621 628.621C223.823 629.388 224.361 630.041 225.235 630.581L226.888 631.635L230.247 626.322C230.038 625.96 229.873 625.814 229.614 625.643Z" fill="#313131"/>
<path d="M205.02 623.535L206.052 624.626L205.538 625.405L201.46 622.377L201.974 621.598L203.393 622.386L206.421 618.308L201.14 614.448L198.112 618.526L199.143 619.617L198.629 620.396L194.646 617.394L195.161 616.615L196.51 617.282L203.397 607.923L202.34 606.927L202.854 606.148L206.932 609.176L206.418 609.955L205.094 609.193L201.895 613.53L207.176 617.39L210.375 613.052L209.153 611.91L209.668 611.131L213.841 614.184L213.326 614.963L212.003 614.201L205.02 623.535Z" fill="#313131"/>
<path d="M189.182 613.077L187.606 611.738L192.191 598.809L191.419 597.889L192.003 597.23L195.865 600.302L195.255 601.056L193.957 600.199L192.934 602.878L197.195 606.363L199.656 604.781L198.529 603.665L199.113 603.006L202.551 605.761L201.967 606.419L200.903 605.829L189.182 613.077ZM190.187 610.087L189.564 611.652L190.966 610.602L196.18 607.109L192.508 604.088L190.187 610.087Z" fill="#313131"/>
<path d="M178.079 602.056L179.389 603.629L178.805 604.287L175.14 600.861L178.901 592.905L180.083 590.777L178.078 592.175L170.487 596.558L166.891 593.252L167.475 592.594L169.172 593.863L175.99 584.384L174.914 583.077L175.498 582.419L179.398 586.112L178.814 586.77L177.446 585.793L172.393 592.485L170.197 595.36L172.607 593.969L181.593 588.941L182.486 589.791L178.641 598.438L177.034 601.776L179.724 599.339L186.024 593.693L184.758 592.335L185.342 591.677L188.938 594.983L188.354 595.642L187.081 594.69L178.079 602.056Z" fill="#313131"/>
<path d="M161.751 588.106L160.321 586.603L166.445 574.391L165.793 573.402L166.472 572.769L169.896 576.334L169.218 576.967L167.945 576.015L166.541 578.593L170.39 582.476L172.99 581.136L172.009 579.854L172.688 579.221L175.809 582.4L175.13 583.033L174.186 582.373L161.751 588.106ZM163.136 585.218L162.323 586.732L163.864 585.922L169.521 583.058L166.166 579.613L163.136 585.218Z" fill="#313131"/>
<path d="M155.544 579.72L156.335 580.951L155.656 581.584L154.017 579.719C153.688 579.427 153.384 579.04 153.055 578.748C152.561 578.31 152.092 577.777 151.694 577.364C150.523 576.032 149.922 574.853 149.892 573.826C149.861 572.799 150.401 571.925 151.372 570.963C152.146 570.356 152.894 569.843 153.731 569.762C154.593 569.585 155.474 569.719 156.303 570.044C157.133 570.368 157.887 570.977 158.589 571.777C158.823 572.043 159.058 572.31 159.292 572.576C159.526 572.842 159.665 573.083 159.76 573.109L162.837 570.368L161.249 568.313L161.928 567.68L166.004 572.235L165.325 572.868L164.173 571.847L155.544 579.72ZM157.885 572.505C157.252 571.826 156.448 571.406 155.662 571.298C154.876 571.189 153.843 571.625 152.872 572.587C152.072 573.29 151.679 573.999 151.69 574.715C151.702 575.432 152.094 576.25 152.797 577.049C153.031 577.315 153.36 577.607 153.689 577.899C153.854 578.045 154.019 578.191 154.088 578.312L159.03 573.932C158.796 573.666 158.423 573.158 157.885 572.505Z" fill="#313131"/>
<path d="M155.844 561.874C156.039 563.047 155.854 564.118 155.264 565.182C154.768 566.271 153.892 567.259 152.826 568.195C151.761 569.132 150.606 569.638 149.434 569.833C148.261 570.028 147.044 570.007 145.955 569.512C144.84 569.111 143.896 568.451 143.055 567.411C142.447 566.637 141.796 565.647 141.195 564.468L140.942 563.891L143.625 561.86L144.397 562.779L142.887 564.615C142.931 564.831 142.95 565.142 143.133 565.598C143.342 565.96 143.62 566.442 143.993 566.949C144.531 567.602 145.145 567.971 145.906 568.175C146.666 568.378 147.503 568.297 148.39 568.025C149.278 567.754 150.242 567.197 151.162 566.425C152.082 565.653 152.786 564.925 153.326 564.051C153.865 563.177 154.19 562.347 154.203 561.536C154.217 560.725 153.92 559.933 153.408 559.184C153.034 558.677 152.61 558.359 152.281 558.067C151.952 557.775 151.666 557.699 151.356 557.718L149.46 558.33L148.809 557.341L151.098 556.019C151.263 556.165 151.592 556.457 152.016 556.774C152.44 557.092 152.795 557.288 153.124 557.58C153.453 557.872 153.757 558.259 154.251 558.697C155.213 559.668 155.744 560.727 155.844 561.874Z" fill="#313131"/>
<path d="M125.37 543.319L126.118 542.807L127.264 544.234L135.084 538.996L132.34 538.973L123.906 538.139L123.519 538.443L124.233 539.959L123.485 540.471L120.67 536.152L121.418 535.639L122.45 536.731L132.129 530.259L131.389 528.839L132.138 528.326L135.048 532.671L134.299 533.183L133.223 531.876L125.282 537.184L127.836 537.156L136.461 538.04L137.063 537.693L136.254 536.152L137.002 535.639L139.912 539.984L139.164 540.496L138.158 539.31L128.479 545.782L129.124 547.177L128.375 547.689L125.37 543.319Z" fill="#313131"/>
<path d="M118.747 532.683C118.348 532.271 118.045 531.884 117.715 531.592C117.386 531.3 117.273 530.964 117.038 530.697C116.273 529.372 115.863 528.243 115.832 527.217C115.802 526.19 116.29 525.506 117.254 524.949C118.098 524.462 118.96 524.286 119.815 524.515C120.671 524.744 121.354 525.233 121.987 525.912C121.431 524.948 121.185 523.965 121.414 523.11C121.643 522.255 122.132 521.571 122.881 521.058C123.99 520.337 125.163 520.142 126.183 520.517C127.203 520.893 128.191 521.768 129.19 523.36C129.538 523.963 129.886 524.565 130.043 525.117C130.201 525.668 130.385 526.125 130.498 526.461C130.612 526.797 130.656 527.013 130.63 527.108L127.72 528.467L127.233 527.623L129.003 525.958C128.991 525.242 128.694 524.45 128.112 523.581C127.695 522.858 127.106 522.394 126.51 522.337C125.915 522.279 125.053 522.455 124.209 522.942C123.581 523.385 123.143 523.879 122.87 524.519C122.692 525.184 122.868 526.046 123.45 526.915L124.171 528.025L123.302 528.607L122.746 527.643C122.468 527.161 122.138 526.869 121.714 526.552C121.29 526.234 120.815 526.107 120.314 526.075C119.813 526.043 119.262 526.2 118.659 526.548C117.936 526.966 117.594 527.485 117.441 528.055C117.383 528.651 117.515 529.297 117.933 530.02C118.211 530.502 118.515 530.889 118.869 531.086C119.199 531.378 119.484 531.454 119.699 531.41L121.379 530.842L122.031 531.831L119.665 533.438C119.475 533.387 119.241 533.121 118.747 532.683Z" fill="#313131"/>
<path d="M111.4 518.288L111.924 519.752L111.106 520.144L109.88 517.88C109.671 517.519 109.393 517.037 109.019 516.529C108.646 516.022 108.437 515.66 108.298 515.419C107.489 513.878 107.199 512.68 107.238 511.774C107.372 510.893 107.861 510.209 108.825 509.653C109.643 509.261 110.41 509.059 111.17 509.263C111.956 509.371 112.64 509.86 113.178 510.514C112.647 509.455 112.401 508.472 112.63 507.617C112.859 506.761 113.348 506.078 114.286 505.616C115.371 504.99 116.518 504.89 117.607 505.385C118.722 505.786 119.754 506.877 120.772 508.78C120.981 509.141 121.164 509.598 121.373 509.959C121.765 510.777 122.018 511.354 122.182 511.5L123.339 513.644L122.521 514.036L121.636 512.78L111.4 518.288ZM114.398 513.183L113.936 512.245C113.519 511.522 113.05 510.989 112.385 510.811C111.72 510.632 111.073 510.765 110.255 511.157C109.532 511.574 108.999 512.042 108.847 512.613C108.694 513.183 108.896 513.95 109.357 514.888C109.566 515.25 109.844 515.732 110.053 516.093L110.262 516.455L114.885 514.027C114.885 514.027 114.676 513.665 114.398 513.183ZM120.049 509.197C119.423 508.113 118.79 507.434 118.055 507.135C117.32 506.836 116.579 506.943 115.735 507.43C114.892 507.917 114.359 508.386 114.276 509.076C114.193 509.767 114.299 510.509 114.856 511.473C115.482 512.557 115.804 513.255 116.013 513.616L120.903 510.954C120.764 510.713 120.511 510.136 120.049 509.197Z" fill="#313131"/>
<path d="M102.899 504.398L101.976 502.521L111.589 492.874L111.273 491.771L112.091 491.379L114.26 495.831L113.442 496.223L112.582 494.872L110.424 496.84L112.776 501.748L115.648 501.296L115.149 499.736L115.967 499.344L117.857 503.314L117.039 503.705L116.387 502.716L102.899 504.398ZM105.063 502.024L103.731 503.195L105.455 502.842L111.699 501.969L109.6 497.638L105.063 502.024Z" fill="#313131"/>
<path d="M110.276 488.652C110.091 489.723 109.595 490.812 108.865 491.635C108.136 492.458 107 493.274 105.726 493.85C104.451 494.425 103.183 494.595 101.992 494.479C100.801 494.364 99.6857 493.963 98.7422 493.303C97.7986 492.642 97.052 491.628 96.5464 490.473C96.1799 489.56 95.8643 488.457 95.5997 487.164L95.4674 486.517L98.6376 485.33L99.1432 486.484L97.1389 487.882C97.088 488.072 97.0811 488.478 97.1693 488.909C97.2576 489.34 97.4153 489.891 97.6681 490.468C97.9905 491.166 98.4334 491.794 99.1427 492.188C99.8521 492.582 100.612 492.785 101.544 492.729C102.476 492.673 103.553 492.453 104.707 491.947C105.741 491.511 106.705 490.955 107.504 490.252C108.304 489.55 108.793 488.866 109.022 488.01C109.346 487.181 109.265 486.344 108.873 485.526C108.62 484.949 108.342 484.467 108.107 484.2C107.873 483.934 107.639 483.667 107.259 483.566L105.231 483.531L104.915 482.428L107.527 481.804C107.666 482.045 107.875 482.407 108.179 482.793C108.483 483.18 108.812 483.472 109.02 483.834C109.229 484.195 109.507 484.677 109.76 485.254C110.266 486.408 110.461 487.581 110.276 488.652Z" fill="#313131"/>
<path d="M94.0852 476.47C93.0144 476.285 92.02 475.815 91.2665 475.206C90.5131 474.597 89.931 473.728 89.59 472.72C89.1794 471.591 89.0539 470.539 89.334 469.493C89.6141 468.448 90.0588 467.549 90.8582 466.846C91.6831 466.049 92.647 465.492 93.8961 465.012C95.3607 464.488 96.6285 464.318 97.8453 464.338C99.0366 464.454 100.152 464.855 101 465.489C101.849 466.124 102.526 467.019 102.962 468.052C103.372 469.181 103.472 470.328 103.287 471.399C103.102 472.47 102.562 473.343 101.738 474.141C100.913 474.939 99.9232 475.59 98.6741 476.07L99.7481 478.905L104.839 477.009L104.461 475.38L105.349 475.109L107.105 479.959L106.217 480.231L105.477 478.81L94.6226 482.828L94.9314 484.336L94.0438 484.608L92.2623 479.853L93.1499 479.581L93.8897 481.002L98.645 479.22L97.571 476.386C96.3729 476.676 95.1306 476.751 94.0852 476.47ZM92.9467 474.638C94.1821 474.969 95.7604 474.78 97.707 473.978C99.4126 473.314 100.643 472.524 101.424 471.511C102.205 470.497 102.39 469.427 101.979 468.298C101.568 467.169 100.72 466.535 99.5795 466.229C98.4391 465.924 96.8353 466.207 94.9142 466.914C93.2086 467.578 91.9782 468.368 91.2229 469.287C90.4421 470.3 90.2825 471.275 90.6931 472.404C90.9832 473.602 91.8062 474.332 92.9467 474.638Z" fill="#313131"/>
<path d="M92.2913 455.415C92.7802 454.731 93.4149 453.883 94.2907 452.895C94.8746 452.237 95.3125 451.743 95.6298 451.319C95.9218 450.989 95.9982 450.704 96.0491 450.514L96.0373 449.798L96.9248 449.527L97.651 451.758C97.7902 451.999 97.5678 452.449 97.2504 452.873C96.9076 453.393 96.3237 454.051 95.4989 454.849C94.6231 455.836 93.9187 456.564 93.4554 457.153C92.992 457.742 92.8647 458.217 92.9784 458.553L93.294 459.656L98.404 458.072L98.1462 456.373L99.0338 456.101L100.574 460.996L99.6867 461.267L99.0419 459.872L87.9343 463.313L88.148 464.796L87.2604 465.068L85.7894 460.294L86.6771 460.022L87.3218 461.417L92.4318 459.833L91.933 458.273L85.6422 456.282L85.9254 457.885L85.0378 458.157L83.6806 453.719L84.5682 453.448L85.2384 454.748L91.6684 456.98C91.5547 456.644 91.828 456.004 92.2913 455.415Z" fill="#313131"/>
<path d="M95.2808 446.539C94.9057 447.559 94.2709 448.408 93.3765 449.085C92.4821 449.762 91.3026 450.363 89.9839 450.722C88.5702 451.056 87.328 451.131 86.1621 450.92C84.9963 450.71 84.0273 450.145 83.2042 449.415C82.3812 448.685 81.8247 447.721 81.5346 446.523C81.0171 444.653 81.2345 443.081 82.2121 441.714C83.1643 440.441 84.6357 439.511 86.7215 438.949C88.1352 438.615 89.4725 438.566 90.6383 438.777C91.8042 438.987 92.8682 439.578 93.6912 440.308C94.5142 441.037 95.0708 442.001 95.3609 443.2C95.651 444.398 95.656 445.52 95.2808 446.539ZM84.6248 448.675C85.8348 449.101 87.3876 449.008 89.3528 448.516C91.1976 448.094 92.5231 447.328 93.3734 446.436C94.2237 445.543 94.5292 444.403 94.2137 443.3C93.9236 442.102 93.1006 441.372 91.8906 440.946C90.6806 440.52 89.0327 440.587 87.0675 441.079C85.2228 441.502 83.8973 442.267 83.047 443.16C82.1967 444.052 81.9166 445.097 82.2067 446.296C82.7123 447.45 83.5098 448.275 84.6248 448.675Z" fill="#313131"/>
<path d="M80.4305 436.958L80.5237 438.511L79.6616 438.688L79.1069 436.196C79.0187 435.765 78.8609 435.214 78.7031 434.662C78.5454 434.11 78.3621 433.654 78.3434 433.343C77.9906 431.619 78.0111 430.402 78.3353 429.572C78.6595 428.743 79.408 428.23 80.3906 427.984C81.2527 427.808 82.0384 427.916 82.7732 428.215C83.4826 428.609 84.046 429.167 84.4379 429.985C84.1478 428.787 84.1869 427.881 84.6062 427.077C85.0254 426.272 85.7739 425.76 86.731 425.609C87.9292 425.319 89.0951 425.529 90.0131 426.285C90.9566 426.945 91.6964 428.365 92.0934 430.305C92.1816 430.736 92.2698 431.167 92.263 431.573C92.4139 432.53 92.5717 433.081 92.6158 433.297L93.196 435.693L92.3339 435.87L91.8096 434.405L80.4305 436.958ZM84.6753 432.901L84.4293 431.918C84.2528 431.056 83.905 430.454 83.2907 430.085C82.7714 429.743 81.9857 429.634 81.0981 429.905C80.236 430.082 79.6335 430.43 79.3857 430.974C79.1378 431.519 79.0291 432.305 79.2497 433.382C79.3379 433.814 79.4261 434.245 79.6093 434.701L79.723 435.037L84.8008 433.953C84.8517 433.763 84.738 433.427 84.6753 432.901ZM91.1108 430.551C90.8207 429.353 90.4287 428.535 89.7448 428.046C89.156 427.583 88.3702 427.474 87.3876 427.72C86.4305 427.871 85.8025 428.314 85.5547 428.859C85.2118 429.378 85.1727 430.284 85.3932 431.362C85.6833 432.56 85.8598 433.422 85.9734 433.758L91.3872 432.56C91.4636 432.275 91.3313 431.629 91.1108 430.551Z" fill="#313131"/>
<path d="M73.9688 408.235L74.926 408.084L75.4248 409.643L86.9107 407.832L86.8684 406.089L87.8256 405.938L88.6686 411.155L87.7114 411.306L87.3076 409.772L75.8217 411.583L76.7716 417.542L88.3525 415.756L88.3102 414.013L89.2674 413.862L90.0154 419.053L89.0582 419.204L88.629 417.765L77.143 419.576L77.1158 421.199L76.1586 421.35L73.9688 408.235Z" fill="#313131"/>
<path d="M86.6007 402.147C86.156 403.046 85.3312 403.844 84.3672 404.4C83.4032 404.957 82.1795 405.342 80.7218 405.461C79.264 405.579 77.9776 405.438 76.8627 405.038C75.7477 404.637 74.8042 403.977 74.1271 403.082C73.4501 402.188 73.014 401.154 72.914 400.007C72.7071 398.118 73.14 396.503 74.2568 395.376C75.3736 394.249 76.9842 393.56 79.1836 393.335C80.6414 393.216 81.9277 393.357 83.0427 393.758C84.1576 394.158 85.1011 394.819 85.8732 395.739C86.5502 396.633 86.9863 397.667 87.0863 398.814C87.2305 400.177 87.0454 401.247 86.6007 402.147ZM75.7564 402.704C76.9154 403.32 78.4173 403.417 80.4962 403.261C82.3851 403.054 83.7292 402.6 84.7696 401.758C85.7845 401.011 86.2547 400.017 86.0851 398.749C85.985 397.602 85.308 396.708 84.1489 396.091C82.9899 395.475 81.393 395.353 79.4091 395.534C77.5202 395.741 76.0811 396.17 75.1357 397.038C74.1208 397.784 73.7457 398.804 73.9153 400.072C73.9898 401.314 74.6669 402.209 75.7564 402.704Z" fill="#313131"/>
<path d="M80.6928 387.322C82.3847 387.47 83.7407 387.732 84.6401 388.176C85.0898 388.399 85.419 388.691 85.6531 388.957C85.8618 389.319 85.9755 389.655 86.0637 390.086C86.101 390.707 86.0942 391.113 86.0178 391.398L84.5345 391.611C84.5159 391.301 84.5227 390.895 84.5109 390.179C84.4668 389.963 84.4227 389.748 84.2581 389.602C84.0935 389.456 83.9289 389.31 83.6693 389.139C82.1555 388.326 79.0822 388.011 74.5187 388.316L73.0609 388.435L73.0014 390.558L72.0697 390.614L71.3918 379.839L72.3235 379.783L72.6763 381.508L84.2877 380.748L84.3659 378.936L85.2976 378.88L85.7027 384.591L84.771 384.647L84.4691 382.732L72.8832 383.396L73.0814 387.218L74.7293 387.151C77.0678 387.166 79.0008 387.175 80.6928 387.322Z" fill="#313131"/>
<path d="M72.5241 376.374L72.3067 377.945L71.375 378.001L71.1773 368.476L74.1183 368.143L74.1488 369.17L72.3736 369.713L72.3426 374.39L77.5713 374.263L77.48 371.183L75.9085 370.966L75.878 369.939L80.175 369.868L80.2054 370.895L78.6017 371.178L78.5726 374.328L84.1118 374.182L83.7949 368.903L81.4005 367.955L81.706 366.815L84.944 367.275L85.1281 377.612L84.1964 377.668L84.0081 376.09L72.5241 376.374Z" fill="#313131"/>
<path d="M72.308 360.834L72.3739 364.009L76.2517 364.743L76.2312 365.959L71.2503 365.541L71.5178 353.9L76.5309 353.817L76.5105 355.034L72.5868 355.612L72.4372 358.831L84.1995 359.029L84.4119 356.336L85.3181 356.375L85.1512 363.46L84.245 363.421L84.0958 360.937L72.308 360.834Z" fill="#313131"/>
<path d="M79.734 346.425L79.695 347.331C79.9037 347.692 80.2329 347.984 80.8472 348.353C81.3664 348.695 82.0758 349.089 82.9752 349.534C83.8746 349.979 84.4889 350.347 84.9386 350.569C85.3883 350.792 85.6225 351.058 85.5716 351.248L85.4101 353.751L84.5039 353.712L84.3971 352.971C84.3529 352.755 84.1883 352.609 83.9542 352.343C83.5995 352.146 83.1752 351.828 82.4914 351.339C81.687 350.92 81.0982 350.457 80.5789 350.114C80.0596 349.771 79.7559 349.384 79.5472 349.023C79.2229 349.853 78.7596 350.441 78.0111 350.954C77.2881 351.371 76.5211 351.573 75.5198 351.509C74.0179 351.412 73.0235 350.942 72.4669 349.978C71.9104 349.014 71.7408 347.746 71.8631 346.149C71.8699 345.743 71.9717 345.363 72.0295 344.768C72.0873 344.172 72.2146 343.697 72.1959 343.386L72.4083 340.693L73.3145 340.732L73.4077 342.285L85.0173 343.053L85.2856 341.291L86.1918 341.331L85.8367 346.837L84.9305 346.798L84.9136 344.96L79.9073 344.638L79.734 346.425ZM72.9612 344.712C72.8084 345.282 72.7761 345.782 72.7693 346.188C72.7047 347.189 72.8116 347.931 73.2799 348.464C73.7483 348.997 74.388 349.27 75.4843 349.36C76.4856 349.425 77.2527 349.223 77.8807 348.78C78.5086 348.337 78.7123 347.577 78.8719 346.601C78.9365 345.6 78.9943 345.004 78.9061 344.573L73.209 344.167L72.9612 344.712Z" fill="#313131"/>
<path d="M73.9056 333.964L73.661 337.158L77.4623 338.177L77.3468 339.368L72.3728 338.545L73.6415 326.967L78.6478 327.29L78.5323 328.481L74.6155 328.654L74.1553 331.892L85.8276 333.186L86.3251 330.57L87.2058 330.704L86.4178 337.826L85.537 337.692L85.578 335.259L73.9056 333.964Z" fill="#313131"/>
<path d="M88.03 320.026C87.3002 320.849 86.3107 321.5 85.2076 321.816C84.1045 322.131 82.7672 322.181 81.4113 321.919C80.0553 321.658 78.8453 321.232 77.9273 320.476C77.0092 319.721 76.2372 318.801 75.8266 317.673C75.416 316.544 75.3159 315.397 75.5519 314.136C75.7115 313.16 76.0171 312.02 76.5382 310.835L76.786 310.29L80.0681 310.966L79.8321 312.227L77.3731 312.281C77.2271 312.446 77.0557 312.705 76.8333 313.155C76.6364 313.51 76.4836 314.08 76.4259 314.676C76.3172 315.461 76.4241 316.203 76.7464 316.9C77.0688 317.598 77.6322 318.156 78.5061 318.696C79.2851 319.21 80.3304 319.49 81.5913 319.726C82.7572 319.937 83.7839 319.907 84.8361 319.781C85.7933 319.63 86.7063 319.264 87.3598 318.726C88.0132 318.188 88.407 317.478 88.5666 316.503C88.6498 315.812 88.6821 315.311 88.6634 315.001C88.6448 314.69 88.5311 314.354 88.3224 313.993L86.6695 312.939L86.9751 311.798L89.4901 312.676C89.4137 312.961 89.5274 313.297 89.5901 313.823C89.6783 314.254 89.646 314.755 89.7343 315.186C89.8225 315.617 89.6951 316.092 89.6119 316.783C89.2809 318.018 88.7853 319.108 88.03 320.026Z" fill="#313131"/>
<path d="M77.7964 302.718L78.6772 302.852L78.5039 304.639L87.6595 306.583L85.7351 304.642L80.3815 298.012L79.9063 297.885L79.3784 299.475L78.4976 299.341L79.5366 294.323L80.4174 294.457L80.3206 295.959L91.6873 298.394L92.1898 296.898L93.0451 297.128L91.9806 302.241L91.1253 302.012L91.2731 300.32L81.9275 298.325L83.7822 300.146L89.2054 306.896L89.8707 307.074L90.4241 305.389L91.3048 305.523L90.2403 310.636L89.3596 310.502L89.4819 308.905L78.1151 306.47L77.6382 307.87L76.7574 307.736L77.7964 302.718Z" fill="#313131"/>
<path d="M82.3768 282.963L87.1794 284.046L86.8484 285.281L83.0843 284.884L81.9198 288.85L93.3748 291.716L94.4052 288.63L95.2605 288.86L93.4711 295.918L92.6158 295.688L92.9605 293.642L81.6956 290.827L80.9963 292.677L80.141 292.448L82.3768 282.963Z" fill="#313131"/>
<path d="M84.3575 280.132L83.6904 281.482L82.8351 281.252L84.3493 276.362L85.2046 276.591L84.9873 278.162L89.7831 279.651L91.6792 273.335L86.8834 271.846L86.2164 273.195L85.3611 272.966L86.8498 268.17L87.7051 268.399L87.5132 269.876L98.6253 273.261L99.1974 271.886L100.053 272.115L98.5639 276.911L97.7086 276.682L98.021 275.136L92.8451 273.545L90.9489 279.861L96.1248 281.452L96.7223 279.982L97.5776 280.212L96.0634 285.103L95.2081 284.873L95.4951 283.422L84.3575 280.132Z" fill="#313131"/>
<path d="M88.8919 261.689L89.6167 259.744L103.268 259.735L103.859 258.671L104.688 258.996L103.035 263.645L102.205 263.321L102.518 261.775L99.5834 261.702L97.8028 266.827L100.089 268.56L100.781 267.116L101.611 267.44L100.18 271.64L99.3501 271.316L99.5606 270.15L88.8919 261.689ZM92.1621 261.649L90.4702 261.501L91.933 262.504L96.9288 266.287L98.5312 261.827L92.1621 261.649Z" fill="#313131"/>
<path d="M101.787 252.718C103.275 253.626 104.383 254.432 104.991 255.206C105.295 255.593 105.478 256.049 105.592 256.385C105.68 256.817 105.578 257.197 105.476 257.577C105.228 258.122 105.031 258.476 104.86 258.736L103.46 258.259C103.631 257.999 103.759 257.524 104.007 256.979C104.057 256.789 104.134 256.504 104.064 256.384C104.02 256.168 103.881 255.927 103.742 255.686C102.692 254.284 100.07 252.665 95.8255 251.018L94.4509 250.446L93.441 252.315L92.6111 251.991L96.6221 241.963L97.452 242.287L96.9936 243.998L107.756 248.308L108.595 246.699L109.424 247.023L107.282 252.357L106.452 252.033L106.962 250.132L96.1993 245.822L94.7564 249.306L96.3211 249.929C98.4746 251.015 100.299 251.81 101.787 252.718Z" fill="#313131"/>
<path d="M104.797 236.922C105.464 235.572 106.22 234.654 107.253 234.218C108.287 233.782 109.288 233.847 110.472 234.368C111.727 235.01 112.619 235.86 112.909 237.058C113.225 238.161 113.084 239.448 112.417 240.797C112.366 240.987 112.22 241.151 112.169 241.341C112.023 241.506 111.972 241.696 111.801 241.956C111.432 242.57 111.184 243.115 110.937 243.659L109.92 245.933L109.116 245.514L109.618 244.019L99.0338 239.044L98.1767 240.342L97.3723 239.923L99.5772 235.115L100.382 235.535L99.8027 237.315L103.685 239.17L104.797 236.922ZM104.8 223.987L105.604 224.406L105.051 226.091L115.54 231.04L116.448 229.552L117.253 229.971L114.902 234.944L114.097 234.524L114.651 232.839L104.162 227.89L103.254 229.378L102.449 228.959L104.8 223.987ZM110.971 241.631C111.117 241.467 111.219 241.087 111.415 240.732C111.86 239.833 111.899 238.926 111.602 238.134C111.305 237.341 110.647 236.757 109.653 236.287C108.753 235.843 107.847 235.803 107.175 236.031C106.477 236.353 105.919 236.917 105.474 237.816L104.705 239.545L110.412 242.195C110.653 242.056 110.825 241.796 110.971 241.631Z" fill="#313131"/>
<path d="M109.86 216.888L108.933 218.066L108.129 217.647L110.637 213.226L111.442 213.645L110.844 215.115L115.29 217.528L118.466 211.759L114.02 209.345L113.093 210.523L112.289 210.104L114.677 205.752L115.481 206.172L115.004 207.572L125.195 213.256L126.121 212.078L126.926 212.498L124.512 216.944L123.708 216.525L124.305 215.055L119.504 212.444L116.329 218.214L121.13 220.825L122.107 219.457L122.912 219.876L120.377 224.392L119.573 223.973L120.145 222.598L109.86 216.888Z" fill="#313131"/>
<path d="M118.284 199.894L119.363 198.147L132.726 201.116L133.481 200.198L134.26 200.712L131.612 204.892L130.833 204.377L131.526 202.933L128.675 202.169L125.804 206.799L127.652 209.025L128.7 207.778L129.478 208.292L127.148 212.048L126.369 211.534L126.865 210.444L118.284 199.894ZM121.376 200.519L119.76 200.086L120.956 201.324L125.076 206.094L127.578 202.079L121.376 200.519Z" fill="#313131"/>
<path d="M127.849 187.383L126.51 188.959L125.731 188.445L128.639 184.437L136.97 187.178L139.269 188.1L137.63 186.235L132.283 179.2L135.19 175.192L135.969 175.706L134.985 177.479L145.321 182.999L146.463 181.777L147.242 182.292L144.017 186.724L143.239 186.21L144.052 184.696L136.724 180.492L133.532 178.72L135.285 180.921L141.422 189.186L140.737 190.225L131.69 187.495L128.13 186.337L130.858 188.698L137.234 194.175L138.427 192.763L139.206 193.278L136.419 197.216L135.64 196.702L136.427 195.283L127.849 187.383Z" fill="#313131"/>
<path d="M139.557 169.538L140.801 167.936L153.756 172.426L154.581 171.628L155.335 172.237L152.263 176.1L151.509 175.49L152.366 174.192L149.687 173.168L146.297 177.455L147.904 179.821L149.021 178.694L149.775 179.303L147.02 182.741L146.266 182.132L146.857 181.068L139.557 169.538ZM142.573 170.447L141.008 169.825L142.059 171.226L145.551 176.44L148.477 172.742L142.573 170.447Z" fill="#313131"/>
<path d="M147.101 162.29L145.941 163.201L145.187 162.592L146.818 160.686C147.11 160.357 147.402 160.028 147.599 159.673C148.037 159.179 148.38 158.66 148.818 158.166C149.985 156.85 151.121 156.033 152.078 155.882C153.035 155.731 154.055 156.107 155.042 156.982C155.796 157.592 156.308 158.34 156.58 159.228C156.851 160.115 156.838 160.926 156.608 161.782C156.379 162.637 155.935 163.537 155.23 164.264C154.964 164.499 154.767 164.853 154.5 165.088C154.234 165.322 154.088 165.486 154.063 165.581L157.215 168.26L159.011 166.5L159.67 167.084L155.678 171.718L155.019 171.134L155.876 169.836L147.101 162.29ZM154.572 163.681C155.181 162.927 155.505 162.097 155.424 161.261C155.343 160.424 154.856 159.581 153.798 158.584C152.975 157.854 152.241 157.556 151.499 157.663C150.757 157.769 150.129 158.212 149.279 159.105C148.987 159.434 148.79 159.789 148.498 160.118C148.327 160.378 148.206 160.447 148.181 160.542L153.239 164.852C153.576 164.738 153.988 164.339 154.572 163.681Z" fill="#313131"/>
<path d="M164.938 160.347C163.835 160.662 162.738 160.572 161.598 160.267C160.483 159.866 159.419 159.275 158.362 158.279C157.4 157.308 156.653 156.293 156.268 155.07C155.857 153.941 155.878 152.724 156.088 151.558C156.394 150.418 156.89 149.329 157.835 148.461C158.539 147.733 159.339 147.031 160.569 146.24L161.076 145.867L163.374 148.316L162.524 149.209L160.421 147.932C160.206 147.976 159.87 148.09 159.508 148.299C159.147 148.507 158.734 148.906 158.322 149.305C157.763 149.868 157.465 150.603 157.381 151.294C157.273 152.08 157.475 152.847 157.841 153.76C158.233 154.578 158.91 155.472 159.803 156.322C160.6 157.147 161.569 157.712 162.469 158.157C163.368 158.602 164.249 158.736 165.086 158.655C165.922 158.573 166.645 158.156 167.324 157.523C167.762 157.029 168.079 156.605 168.251 156.345C168.422 156.086 168.524 155.705 168.505 155.395L167.677 153.543L168.597 152.771L170.255 154.947C170.109 155.112 169.912 155.466 169.664 156.011C169.442 156.461 169.245 156.815 169.048 157.17C168.851 157.525 168.534 157.949 168.096 158.443C167.03 159.379 165.946 160.006 164.938 160.347Z" fill="#313131"/>
<path d="M176.007 130.82L176.64 131.499L175.447 132.911L181.725 139.89L181.342 137.139L180.959 128.684L180.655 128.297L179.279 129.253L178.646 128.574L182.522 125.131L183.155 125.809L182.229 126.987L189.982 135.685L191.238 134.8L191.871 135.478L187.994 138.921L187.361 138.243L188.504 137.021L182.156 129.921L182.59 132.482L182.922 141.127L183.39 141.66L184.792 140.61L185.425 141.289L181.523 144.827L180.89 144.148L181.912 142.996L174.159 134.297L172.928 135.088L172.295 134.409L176.007 130.82Z" fill="#313131"/>
<path d="M185.688 122.821C186.005 122.397 186.323 121.973 186.614 121.644C186.906 121.314 187.173 121.08 187.439 120.846C188.626 119.84 189.78 119.334 190.737 119.183C191.694 119.032 192.498 119.451 193.201 120.251C193.808 121.025 194.105 121.817 193.971 122.698C193.837 123.579 193.538 124.314 192.929 125.067C193.823 124.39 194.736 124.024 195.617 124.158C196.523 124.197 197.233 124.591 197.84 125.365C198.682 126.405 198.997 127.508 198.812 128.579C198.627 129.65 197.821 130.758 196.394 131.903C195.861 132.372 195.258 132.719 194.776 132.998C194.294 133.276 193.838 133.459 193.502 133.573C193.166 133.687 192.95 133.731 192.925 133.826L191.109 131.098L191.883 130.491L193.814 132.027C194.461 131.895 195.279 131.503 196.078 130.8C196.732 130.262 197.1 129.648 197.063 129.027C197.051 128.311 196.823 127.638 196.121 126.839C195.678 126.211 195.064 125.843 194.373 125.76C193.682 125.676 192.89 125.973 191.995 126.65L190.955 127.492L190.253 126.693L191.052 125.99C191.439 125.686 191.756 125.262 191.979 124.812C192.201 124.363 192.328 123.888 192.266 123.361C192.203 122.835 191.925 122.353 191.551 121.846C191.013 121.193 190.494 120.85 189.873 120.887C189.252 120.924 188.675 121.177 188.047 121.62C187.634 122.019 187.342 122.348 187.05 122.677C186.759 123.006 186.777 123.317 186.821 123.532L187.631 125.073L186.711 125.846L184.742 123.688C184.983 123.549 185.275 123.22 185.688 122.821Z" fill="#313131"/>
<path d="M198.875 113.521L197.454 114.261L196.942 113.512L198.972 112.019C199.333 111.81 199.745 111.411 200.253 111.038C200.665 110.639 201.052 110.336 201.293 110.196C202.695 109.146 203.849 108.64 204.755 108.679C205.662 108.719 206.466 109.138 207.074 109.912C207.586 110.66 207.788 111.427 207.774 112.239C207.761 113.05 207.367 113.759 206.783 114.417C207.703 113.645 208.685 113.399 209.592 113.439C210.498 113.478 211.277 113.992 211.789 114.74C212.536 115.755 212.756 116.833 212.546 117.999C212.335 119.165 211.314 120.317 209.645 121.601C209.258 121.905 208.897 122.114 208.535 122.323C207.692 122.81 207.279 123.208 207.064 123.252L205.034 124.746L204.522 123.997L205.613 122.965L198.875 113.521ZM204.278 115.783L205.147 115.201C205.895 114.689 206.264 114.075 206.321 113.479C206.379 112.883 206.177 112.116 205.665 111.368C205.152 110.619 204.633 110.276 204.037 110.219C203.442 110.161 202.649 110.458 201.875 111.065C201.488 111.369 201.127 111.578 200.835 111.907L200.568 112.141L203.625 116.321C203.529 116.296 203.891 116.087 204.278 115.783ZM209.063 120.732C210.078 119.986 210.687 119.232 210.796 118.447C210.905 117.661 210.703 116.894 210.19 116.145C209.583 115.371 208.994 114.908 208.398 114.85C207.708 114.767 207.01 115.09 206.116 115.767C205.101 116.513 204.473 116.956 204.207 117.19L207.471 121.732C207.687 121.688 208.194 121.314 209.063 120.732Z" fill="#313131"/>
<path d="M211.436 103.136L213.174 101.972L224.109 110.198L225.168 109.667L225.68 110.416L221.577 113.187L221.064 112.438L222.25 111.432L219.99 109.604L215.404 112.653L216.193 115.411L217.614 114.671L218.126 115.42L214.409 117.887L213.897 117.138L214.722 116.341L211.436 103.136ZM214.102 104.97L212.759 103.898L213.328 105.578L215.063 111.645L219.021 109.039L214.102 104.97Z" fill="#313131"/>
<path d="M228.009 108.188C226.887 108.193 225.867 107.817 224.803 107.227C223.86 106.566 222.992 105.621 222.202 104.391C221.506 103.186 221.121 101.962 221.021 100.815C220.921 99.6677 221.252 98.4322 221.817 97.4632C222.408 96.3992 223.233 95.6017 224.343 94.8805C225.186 94.3935 226.22 93.9575 227.564 93.5028L228.141 93.25L229.69 96.2115L228.605 96.8376L226.941 95.0674C226.751 95.0165 226.415 95.1302 225.984 95.2184C225.553 95.3066 225.071 95.5849 224.589 95.8632C223.866 96.2806 223.402 96.8694 223.129 97.5092C222.83 98.244 222.722 99.0297 222.872 99.9869C223.023 100.944 223.46 101.978 224.111 102.967C224.763 103.956 225.44 104.851 226.193 105.46C226.947 106.07 227.751 106.489 228.606 106.718C229.462 106.947 230.229 106.745 231.072 106.258C231.675 105.91 232.062 105.607 232.233 105.347C232.5 105.113 232.696 104.758 232.773 104.473L232.496 102.464L233.555 101.933L234.516 104.431C234.275 104.57 234.008 104.804 233.691 105.228C233.399 105.558 233.107 105.887 232.72 106.191C232.428 106.52 231.946 106.798 231.464 107.076C230.329 107.892 229.131 108.183 228.009 108.188Z" fill="#313131"/>
<path d="M237.758 90.4286C237.848 89.3323 238.128 88.2869 238.668 87.413C239.208 86.539 239.887 85.9061 240.851 85.3495C241.935 84.7234 243.013 84.5028 244.014 84.5674C245.015 84.632 246.035 85.0071 246.858 85.737C247.681 86.4668 248.453 87.3866 249.175 88.4966C249.94 89.8221 250.299 91.1407 250.374 92.383C250.449 93.6252 250.264 94.6961 249.698 95.6651C249.133 96.634 248.429 97.362 247.465 97.9186C246.38 98.5447 245.303 98.7652 244.206 98.6752C243.205 98.6106 242.185 98.2355 241.337 97.6007C240.488 96.9659 239.621 96.0206 239.02 94.8411L236.395 96.2765L238.988 101.046L240.478 100.426L240.87 101.244L236.342 103.698L235.95 102.88L237.206 101.994L231.698 91.7585L230.233 92.2828L229.746 91.4393L234.154 89.0553L234.641 89.8988L233.385 90.7846L235.769 95.1921L238.489 93.782C237.958 92.723 237.738 91.6454 237.758 90.4286ZM239.522 89.1695C239.381 90.4559 239.784 91.99 240.828 93.7975C241.732 95.364 242.644 96.5249 243.803 97.141C244.962 97.7571 245.963 97.8217 247.142 97.221C248.201 96.69 248.767 95.721 248.787 94.5042C248.808 93.2874 248.404 91.7532 247.455 89.9712C246.551 88.4047 245.64 87.2438 244.576 86.6532C243.512 86.0625 242.415 85.9725 241.356 86.5036C240.297 87.0347 239.663 87.8831 239.522 89.1695Z" fill="#313131"/>
<path d="M258.481 85.694C259.191 86.0878 260.065 86.6275 261.224 87.2437C262.003 87.7579 262.522 88.1008 262.972 88.3231C263.421 88.5455 263.611 88.5964 263.827 88.5523L264.569 88.4455L264.961 89.2635L262.868 90.2306C262.627 90.3698 262.247 90.2679 261.702 90.0201C261.157 89.7723 260.474 89.2835 259.53 88.6232C258.517 87.8425 257.643 87.3027 257.029 86.9344C256.414 86.5661 255.914 86.5338 255.578 86.6475L254.519 87.1786L256.801 91.9662L258.361 91.4674L258.752 92.2854L254.085 94.498L253.693 93.68L255.019 92.9147L250.088 82.4264L248.649 82.8556L248.257 82.0376L252.804 79.8946L253.196 80.7126L251.845 81.5729L254.101 86.4556L255.522 85.7158L256.658 79.1958L255.098 79.6946L254.706 78.8765L258.891 76.9422L259.283 77.7603L258.053 78.551L256.676 85.2102C257.081 85.217 257.747 85.3952 258.481 85.694Z" fill="#313131"/>
<path d="M267.688 87.4478C266.617 87.2627 265.743 86.723 264.946 85.8982C264.148 85.0733 263.401 84.0584 262.852 82.6888C262.302 81.3192 262.012 80.1211 262.127 78.9298C262.243 77.7384 262.523 76.693 263.183 75.7495C263.843 74.806 264.738 74.129 265.771 73.6929C267.597 72.9599 269.125 72.9618 270.569 73.6543C272.013 74.3468 273.159 75.7741 273.961 77.7208C274.511 79.0903 274.775 80.3835 274.66 81.5748C274.544 82.7662 274.239 83.9066 273.579 84.8501C272.918 85.7936 272.024 86.4707 270.99 86.9067C269.811 87.5074 268.759 87.6329 267.688 87.4478ZM264.088 77.316C263.852 78.5769 264.16 80.0856 264.868 82.0068C265.626 83.7378 266.512 84.9938 267.551 85.6795C268.564 86.4602 269.66 86.5502 270.814 86.0446C271.943 85.634 272.603 84.6905 272.839 83.4296C273.075 82.1687 272.792 80.5649 271.964 78.7134C271.205 76.9823 270.319 75.7264 269.281 75.0407C268.242 74.355 267.171 74.1699 266.017 74.6755C264.958 75.2066 264.324 76.0551 264.088 77.316Z" fill="#313131"/>
<path d="M275.046 71.3906L273.537 71.6993L273.266 70.8117L275.644 69.921C276.075 69.8328 276.557 69.5545 277.134 69.3017C277.711 69.0489 278.072 68.8402 278.383 68.8215C279.968 68.2277 281.236 68.0581 282.091 68.2873C282.946 68.5164 283.605 69.1003 283.946 70.1084C284.243 70.9009 284.324 71.7376 284.025 72.4724C283.727 73.2072 283.238 73.8911 282.515 74.3085C283.643 73.8979 284.575 73.842 285.43 74.0712C286.286 74.3003 286.919 74.9792 287.26 75.9873C287.67 77.1159 287.65 78.3327 287.085 79.3017C286.494 80.3657 285.238 81.2514 283.317 81.959C282.86 82.1422 282.524 82.2559 282.093 82.3441C281.206 82.6155 280.629 82.8683 280.413 82.9125L278.035 83.8032L277.738 83.0107L279.159 82.2709L275.046 71.3906ZM279.662 75.0719L280.67 74.7309C281.463 74.434 281.995 73.9656 282.269 73.3259C282.542 72.6861 282.53 71.9699 282.138 71.1519C281.841 70.3594 281.373 69.8264 280.828 69.5786C280.284 69.3308 279.447 69.4122 278.439 69.7532C277.982 69.9365 277.621 70.1452 277.164 70.3284L276.803 70.5371L278.654 75.413C278.774 75.3434 279.11 75.2297 279.662 75.0719ZM282.83 81.1155C283.958 80.7049 284.732 80.0974 285.126 79.388C285.52 78.6787 285.508 77.9625 285.167 76.9545C284.801 76.0414 284.332 75.5085 283.787 75.2607C283.148 74.9874 282.311 75.0688 281.277 75.5048C280.054 75.8899 279.356 76.2123 279.02 76.326L280.985 81.5379C281.245 81.7093 281.917 81.482 282.83 81.1155Z" fill="#313131"/>
<path d="M302.57 61.0426L302.842 61.9302L301.421 62.67L304.767 73.7522L306.491 73.3993L306.762 74.2869L301.773 75.802L301.501 74.9144L302.897 74.2696L299.481 63.067L293.725 64.7839L297.14 75.9865L298.864 75.6337L299.136 76.5213L294.146 78.0363L293.875 77.1487L295.27 76.504L291.924 65.4218L290.32 65.7051L290.049 64.8175L302.57 61.0426Z" fill="#313131"/>
<path d="M310.37 72.6055C309.351 72.2303 308.502 71.5955 307.825 70.7011C307.148 69.8067 306.642 68.6527 306.308 67.239C305.974 65.8253 305.899 64.583 306.135 63.3221C306.346 62.1563 306.911 61.1873 307.641 60.3643C308.371 59.5413 309.335 58.9847 310.533 58.6946C312.403 58.1772 313.975 58.3945 315.342 59.3722C316.615 60.3243 317.545 61.7958 318.081 63.9765C318.415 65.3902 318.464 66.7275 318.254 67.8934C318.018 69.1543 317.453 70.1233 316.628 70.9208C315.803 71.7184 314.839 72.2749 313.736 72.5905C312.417 72.9501 311.39 72.9806 310.37 72.6055ZM308.235 61.9494C307.809 63.1594 307.902 64.7122 308.394 66.6774C308.816 68.5222 309.582 69.8477 310.474 70.698C311.367 71.5483 312.507 71.8539 313.61 71.5383C314.808 71.2482 315.513 70.5202 315.964 69.2152C316.39 68.0052 316.323 66.3574 315.831 64.3921C315.408 62.5474 314.643 61.2219 313.75 60.3716C312.858 59.5213 311.812 59.2412 310.614 59.5313C309.46 60.0369 308.635 60.8344 308.235 61.9494Z" fill="#313131"/>
<path d="M324.297 64.7255C324.435 66.4938 324.294 67.7802 323.919 68.8001C323.791 69.2753 323.474 69.6995 323.207 69.9337C322.941 70.1679 322.579 70.3766 322.148 70.4648C321.597 70.6226 321.096 70.5903 320.881 70.6344L320.451 69.1952C320.762 69.1766 321.193 69.0884 321.84 68.9561C322.055 68.912 322.271 68.8678 322.417 68.7032C322.563 68.5386 322.709 68.374 322.785 68.0889C323.433 66.4293 323.221 63.4186 322.295 58.8925L321.961 57.4788L319.762 57.7043L319.585 56.8422L330.146 54.681L330.323 55.5432L328.643 56.1115L330.98 67.5347L332.869 67.3278L333.045 68.1899L327.442 69.3367L327.265 68.4746L329.161 67.8621L326.823 56.4389L323.159 57.1887L323.538 58.8179C323.858 61.0428 324.135 63.0522 324.297 64.7255Z" fill="#313131"/>
<path d="M333.91 55.0786L332.383 55.0767L332.232 54.1196L341.614 52.5591L342.377 55.4119L341.325 55.5374L340.471 53.7809L335.927 54.3965L336.77 59.6134L339.882 59.0214L339.884 57.494L340.936 57.3685L341.628 61.6282L340.576 61.7537L340.077 60.1941L336.99 60.691L337.852 66.2185L343.024 65.1599L343.591 62.6636L344.757 62.8741L344.798 66.1444L334.58 67.7863L334.403 66.9242L335.937 66.5204L333.91 55.0786Z" fill="#313131"/>
<path d="M349.32 52.6887L346.138 53.1602L346 57.0957L344.732 57.2653L344.434 52.2962L356.008 50.9158L356.833 55.8221L355.685 55.9221L354.581 52.0612L351.355 52.3172L352.805 64.0118L355.479 63.9136L355.535 64.8453L348.48 65.7051L348.425 64.7734L350.795 64.2883L349.32 52.6887Z" fill="#313131"/>
<path d="M364.6 58.0051L363.668 58.061C363.402 58.2952 363.084 58.7194 362.836 59.2642C362.563 59.904 362.264 60.6388 362.01 61.5891C361.66 62.514 361.482 63.1792 361.26 63.6289C361.037 64.0786 360.866 64.3382 360.65 64.3824L358.14 64.6265L358.084 63.6948L358.756 63.4675C358.972 63.4234 359.118 63.2588 359.315 62.9041C359.512 62.5494 359.759 62.0047 360.058 61.2699C360.382 60.44 360.776 59.7307 361.024 59.186C361.367 58.6667 361.684 58.2425 362.046 58.0337C361.165 57.8996 360.456 57.5058 359.918 56.8524C359.38 56.199 359.083 55.4064 359.027 54.4747C358.908 53.0169 359.309 51.902 360.083 51.2945C360.977 50.6175 362.201 50.2323 363.849 50.1646C364.159 50.1459 364.685 50.0832 365.281 50.1409C365.902 50.1037 366.308 50.1105 366.618 50.0918L369.318 49.8986L369.374 50.8303L367.866 51.139L368.771 62.5859L370.488 62.6386L370.544 63.5703L365.024 64.0263L364.968 63.0947L366.787 62.7673L366.394 57.7728L364.6 58.0051ZM365.362 50.9776C364.767 50.9199 364.336 51.0081 363.835 50.9758C362.903 51.0317 362.111 51.3286 361.698 51.7274C361.165 52.1957 360.962 52.956 361.087 54.0082C361.118 55.0349 361.535 55.7579 362.003 56.2908C362.592 56.7542 363.353 56.9579 364.284 56.902C365.311 56.8715 365.958 56.7392 366.268 56.7206L365.863 51.0099L365.362 50.9776Z" fill="#313131"/>
<path d="M376.086 50.4898L372.86 50.7458L372.317 54.6745L371.075 54.749L371.207 49.6918L382.837 49.2431L383.231 54.2376L382.109 54.2426L381.315 50.363L378.045 50.4034L378.443 62.2236L381.066 62.3154L381.122 63.2471L374.03 63.4858L373.974 62.5541L376.389 62.2845L376.086 50.4898Z" fill="#313131"/>
<path d="M391.922 62.4743C390.979 61.8141 390.276 61.0147 389.745 59.9557C389.214 58.8967 389.045 57.629 389.021 56.1966C389.092 54.7898 389.423 53.5543 390.014 52.4903C390.605 51.4263 391.43 50.6287 392.489 50.0977C393.548 49.5666 394.651 49.251 395.963 49.2969C396.869 49.3361 398.06 49.4516 399.391 49.8081L399.961 49.9608L399.665 53.3448L398.448 53.3243L398.058 50.9789C397.894 50.833 397.634 50.6615 397.159 50.5342C396.684 50.4069 396.183 50.3746 395.587 50.3168C394.776 50.3032 394.104 50.5305 393.476 50.9734C392.848 51.4163 392.359 52.1002 391.94 52.9046C391.59 53.8294 391.336 54.7798 391.29 56.0916C391.269 57.3084 391.395 58.3606 391.666 59.2482C391.938 60.1358 392.425 60.9792 393.083 61.5631C393.742 62.1469 394.476 62.4457 395.383 62.4848C396.099 62.473 396.504 62.4798 396.935 62.3916C397.272 62.2779 397.608 62.1643 397.874 61.9301L398.668 60.1058L399.834 60.3163L399.337 62.9332C399.026 62.9518 398.69 63.0655 398.164 63.1282C397.733 63.2165 397.277 63.3997 396.871 63.3929C396.44 63.4811 395.939 63.4488 395.318 63.4861C394.006 63.4401 392.866 63.1346 391.922 62.4743Z" fill="#313131"/>
<path d="M407.528 49.8494L407.489 50.7556L405.625 50.8674L404.942 60.2589L406.65 58.0682L412.481 51.8896L412.514 51.389L410.873 51.0512L410.912 50.1449L416.013 50.4933L415.974 51.3995L414.516 51.5182L413.748 63.1277L415.294 63.4401L415.255 64.3464L410.059 63.9726L410.098 63.0663L411.746 62.9986L412.359 53.4866L410.798 55.5128L404.845 61.7608L404.762 62.4515L406.524 62.7198L406.485 63.6261L401.193 63.2268L401.232 62.3206L402.785 62.2274L403.553 50.6178L402.102 50.3308L402.141 49.4246L407.528 49.8494Z" fill="#313131"/>
<path d="M427.806 51.7177L427.414 56.6036L426.127 56.4626L426.024 52.6662L421.905 52.0719L420.586 63.8393L423.798 64.3945L423.664 65.2752L416.352 64.4363L416.486 63.5555L418.514 63.5896L419.757 52.1074L417.856 51.5981L417.99 50.7173L427.806 51.7177Z" fill="#313131"/>
<path d="M430.954 53.2744L429.554 52.7974L429.688 51.9167L434.688 52.6451L434.553 53.5259L432.931 53.4986L432.203 58.4981L438.653 59.5135L439.381 54.514L437.886 54.0115L438.021 53.1308L443.02 53.8592L442.886 54.74L441.359 54.7382L439.615 66.1882L441.04 66.5701L440.906 67.4509L435.907 66.7224L436.041 65.8417L437.568 65.8435L438.398 60.4638L431.948 59.4484L431.118 64.8281L432.733 65.261L432.599 66.1417L427.504 65.3878L427.639 64.507L429.166 64.5089L430.954 53.2744Z" fill="#313131"/>
<path d="M449.774 55.2616L451.795 55.7013L453.668 69.2407L454.783 69.6413L454.649 70.5221L449.821 69.534L449.955 68.6532L451.552 68.7755L451.219 65.8345L445.916 64.719L444.512 67.2967L446.007 67.7992L445.873 68.68L441.52 67.8192L441.654 66.9384L442.871 66.9589L449.774 55.2616ZM450.366 58.3741L450.203 56.7008L449.485 58.2399L446.481 63.75L451.119 64.6872L450.366 58.3741Z" fill="#313131"/>
<path d="M460.465 66.682C459.842 68.2466 459.105 69.4753 458.401 70.2032C457.988 70.602 457.627 70.8107 457.291 70.9244C456.955 71.0381 456.549 71.0312 456.074 70.9039C455.504 70.7511 455.029 70.6238 454.769 70.4524L454.961 68.976C455.246 69.0523 455.721 69.1797 456.292 69.3325C456.482 69.3834 456.697 69.3393 456.913 69.2952C457.128 69.2511 457.274 69.0865 457.541 68.8523C458.778 67.656 460.042 64.8372 461.144 60.3452L461.526 58.9197L459.53 58.3849L459.785 57.4346L470.29 60.0456L470.035 60.9959L468.248 60.8227L465.433 72.0876L467.188 72.7615L466.959 73.6168L461.327 72.2094L461.556 71.3541L463.507 71.6733L466.322 60.4084L462.59 59.5104L462.157 61.1259C461.718 63.1471 461.088 65.1173 460.465 66.682Z" fill="#313131"/>
<path d="M476.536 67.5251C477.936 68.0021 478.975 68.6878 479.557 69.5567C480.139 70.4257 480.239 71.5729 479.813 72.7829C479.336 74.1829 478.58 75.101 477.547 75.5371C476.393 76.0427 475.176 76.0222 473.75 75.6402C473.56 75.5893 473.37 75.5384 473.18 75.4875C472.99 75.4365 472.8 75.3856 472.541 75.2142C471.901 74.9409 471.235 74.7626 470.691 74.5148L468.245 73.7577L468.474 72.9024L470.021 73.2148L473.405 62.1027L472.056 61.4356L472.285 60.5803L477.366 62.1455L477.137 63.0008L475.281 62.707L473.97 66.8376L476.536 67.5251ZM472.7 74.2384C472.89 74.2893 473.245 74.4862 473.625 74.588C474.67 74.8681 475.482 74.8818 476.205 74.4644C476.927 74.047 477.416 73.3631 477.696 72.3177C477.977 71.2724 477.965 70.5562 477.547 69.8332C477.199 69.2307 476.516 68.7419 475.496 68.3668L473.69 67.8829L471.87 73.9142C472.25 74.016 472.51 74.1874 472.7 74.2384ZM489.334 65.7596L489.105 66.6149L487.343 66.3466L483.958 77.4587L485.592 78.2021L485.363 79.0574L480.092 77.4414L480.321 76.5861L482.058 76.9494L485.442 65.8373L483.808 65.0938L484.037 64.2385L489.334 65.7596Z" fill="#313131"/>
<path d="M497.023 69.7552L495.699 68.9931L496.023 68.1633L500.743 69.9371L500.419 70.7669L498.873 70.4545L497.099 75.1739L503.288 77.5453L505.062 72.8259L503.738 72.0638L504.062 71.2339L508.782 73.0078L508.457 73.8376L507.006 73.5507L502.861 84.4591L504.21 85.1262L503.886 85.956L499.167 84.1822L499.491 83.3523L501.012 83.7598L502.982 78.6857L496.793 76.3143L494.823 81.3884L496.241 82.176L495.917 83.0058L491.128 81.1115L491.452 80.2816L492.973 80.6891L497.023 69.7552Z" fill="#313131"/>
<path d="M515.015 75.5946L516.934 76.4144L515.916 90.0961L516.86 90.7564L516.536 91.5862L511.988 89.5527L512.312 88.7229L513.807 89.2254L514.191 86.2725L509.168 84.1117L507.27 86.2515L508.689 87.0391L508.365 87.8689L504.266 86.0578L504.59 85.228L505.731 85.5335L515.015 75.5946ZM514.96 78.8394L515.203 77.1729L514.13 78.5152L510.018 83.2191L514.401 85.1066L514.96 78.8394Z" fill="#313131"/>
<path d="M528.726 83.343L527.004 82.1685L527.423 81.3641L531.8 83.6572L530.294 92.3189L529.752 94.7202L531.358 92.9096L537.525 86.6174L541.902 88.9105L541.483 89.7149L539.538 88.9901L535.488 99.924L536.855 100.902L536.436 101.706L531.705 99.2159L532.124 98.4116L533.689 99.0345L536.804 91.2113L538.126 87.7969L536.159 89.8163L528.925 97.0452L527.861 96.4545L529.356 87.0766L530.013 83.484L528.076 86.5301L523.517 93.6607L525.075 94.6893L524.656 95.4937L520.374 93.226L520.793 92.4216L522.263 93.0191L528.726 83.343Z" fill="#313131"/>
<path d="M548.096 92.4037L549.844 93.4832L547.255 106.947L548.198 107.608L547.779 108.412L543.548 105.954L543.967 105.15L545.437 105.747L546.081 102.966L541.426 100.191L539.269 102.159L540.541 103.112L540.122 103.916L536.341 101.681L536.76 100.876L537.875 101.277L548.096 92.4037ZM547.661 95.5466L548.094 93.931L546.857 95.1274L542.156 99.3679L546.291 101.8L547.661 95.5466Z" fill="#313131"/>
<path d="M556.365 98.7953L555.308 97.7991L555.822 97.0202L557.899 98.3916C558.254 98.5885 558.678 98.9059 559.033 99.1027C559.647 99.4711 560.192 99.7189 560.711 100.062C562.174 101.065 563.136 102.036 563.382 103.018C563.628 104.001 563.443 105.072 562.757 106.11C562.218 106.984 561.564 107.522 560.746 107.914C559.928 108.306 559.091 108.387 558.211 108.253C557.33 108.119 556.405 107.769 555.531 107.23C555.176 107.033 554.917 106.861 554.588 106.569C554.233 106.373 554.068 106.227 553.999 106.106L551.745 109.576L553.771 111.138L553.257 111.917L548.133 108.609L548.648 107.83L550.092 108.522L556.365 98.7953ZM556.045 106.451C556.919 106.991 557.68 107.194 558.542 107.018C559.404 106.841 560.178 106.234 560.914 105.005C561.454 104.131 561.683 103.276 561.456 102.604C561.229 101.932 560.691 101.279 559.747 100.618C559.392 100.421 559.038 100.225 558.588 100.002C558.328 99.8307 558.138 99.7798 558.138 99.7798L554.513 105.327C554.842 105.619 555.266 105.937 556.045 106.451Z" fill="#313131"/>
<path d="M560.774 116.172C560.338 115.138 560.238 113.991 560.423 112.92C560.608 111.849 561.155 110.57 561.987 109.367C562.793 108.259 563.738 107.392 564.797 106.86C565.856 106.329 567.029 106.134 568.22 106.25C569.412 106.365 570.527 106.766 571.54 107.547C572.319 108.061 573.211 108.911 574.078 109.857L574.572 110.294L572.452 112.884L571.414 112.198L572.405 110.019C572.361 109.804 572.127 109.537 571.918 109.176C571.709 108.814 571.19 108.472 570.671 108.129C569.987 107.64 569.322 107.462 568.51 107.448C567.699 107.434 566.907 107.731 566.158 108.244C565.41 108.756 564.585 109.554 563.925 110.497C563.264 111.441 562.794 112.435 562.445 113.36C562.19 114.31 562.056 115.191 562.327 116.079C562.599 116.966 563.042 117.594 563.82 118.109C564.34 118.451 564.764 118.769 565.144 118.871C565.524 118.973 565.809 119.049 566.12 119.03L567.832 117.961L568.725 118.812L566.783 120.736C566.524 120.564 566.144 120.463 565.694 120.24C565.219 120.113 564.864 119.916 564.389 119.789C564.034 119.592 563.584 119.369 563.065 119.027C562.078 118.151 561.21 117.205 560.774 116.172Z" fill="#313131"/>
<path d="M588.034 120.115L587.425 120.868L585.867 119.84L579.945 127.115L582.608 126.3L590.893 124.65L591.211 124.226L590.109 123.014L590.719 122.26L594.72 125.573L594.111 126.327L592.787 125.565L585.38 134.581L586.507 135.697L585.923 136.356L581.922 133.043L582.506 132.384L583.899 133.267L589.941 125.923L587.494 126.693L578.993 128.387L578.555 128.881L579.751 130.119L579.168 130.777L575.071 127.438L575.655 126.78L576.953 127.637L584.36 118.621L583.328 117.53L583.938 116.777L588.034 120.115Z" fill="#313131"/>
<path d="M597.512 128.46C598.056 128.708 598.385 129 598.74 129.197C599.095 129.394 599.424 129.686 599.684 129.857C600.836 130.879 601.583 131.894 601.828 132.876C602.074 133.859 601.845 134.714 601.141 135.442C600.437 136.17 599.714 136.588 598.807 136.549C597.971 136.63 597.115 136.401 596.337 135.886C597.134 136.711 597.621 137.555 597.702 138.391C597.784 139.228 597.46 140.058 596.876 140.716C596 141.704 594.941 142.235 593.845 142.145C592.723 142.15 591.564 141.534 590.152 140.341C589.563 139.877 589.19 139.37 588.817 138.862C588.443 138.355 588.235 137.994 588 137.727C587.861 137.486 587.722 137.245 587.653 137.125L590.076 134.922L590.735 135.506L589.553 137.634C589.781 138.306 590.318 138.959 591.046 139.664C591.705 140.248 592.25 140.495 592.991 140.388C593.638 140.256 594.335 139.934 594.945 139.18C595.503 138.617 595.681 137.952 595.765 137.261C595.848 136.57 595.335 135.822 594.512 135.092L593.525 134.216L594.229 133.488L595.052 134.218C595.476 134.536 595.9 134.853 596.376 134.98C596.851 135.108 597.351 135.14 597.903 134.982C598.455 134.824 598.841 134.521 599.279 134.027C599.863 133.368 600.111 132.824 599.979 132.177C599.941 131.556 599.568 131.048 598.91 130.465C598.511 130.052 598.156 129.855 597.707 129.633C597.352 129.436 597.041 129.455 596.826 129.499L595.424 130.549L594.506 129.794L596.334 127.533C596.638 127.92 596.992 128.117 597.512 128.46Z" fill="#313131"/>
<path d="M608.652 140.103L607.766 138.847L608.445 138.214L610.204 140.01C610.534 140.302 610.932 140.714 611.426 141.152C611.92 141.59 612.249 141.882 612.414 142.028C613.61 143.265 614.357 144.28 614.413 145.212C614.589 146.074 614.265 146.904 613.561 147.632C612.882 148.265 612.184 148.587 611.443 148.694C610.701 148.801 609.846 148.572 609.067 148.057C609.959 148.908 610.446 149.751 610.502 150.683C610.558 151.614 610.259 152.349 609.555 153.077C608.705 153.97 607.576 154.38 606.48 154.29C605.288 154.175 603.965 153.413 602.509 152.004C602.18 151.712 601.876 151.325 601.642 151.059C601.009 150.38 600.61 149.967 600.445 149.822L598.686 148.026L599.365 147.393L600.637 148.345L608.652 140.103ZM603.118 151.251C604.011 152.101 604.79 152.615 605.601 152.629C606.412 152.643 607.11 152.32 607.788 151.687C608.467 151.054 608.766 150.319 608.729 149.698C608.692 149.077 608.274 148.354 607.477 147.529C606.584 146.679 606.021 146.121 605.786 145.854L601.878 149.798C601.922 150.013 602.416 150.451 603.118 151.251ZM607.339 145.761L608.067 146.465C608.726 147.049 609.34 147.418 609.961 147.38C610.582 147.343 611.28 147.021 611.864 146.362C612.447 145.704 612.79 145.184 612.753 144.563C612.716 143.942 612.298 143.219 611.57 142.515C611.241 142.223 610.912 141.931 610.488 141.614L610.158 141.322L606.516 145.031C606.706 145.082 606.94 145.349 607.339 145.761Z" fill="#313131"/>
<path d="M620.953 150.835L622.383 152.338L616 164.379L616.651 165.368L615.972 166.001L612.668 162.366L613.347 161.733L614.499 162.754L615.998 160.202L612.296 156.154L609.626 157.374L610.607 158.656L609.928 159.289L606.928 156.04L607.607 155.407L608.525 156.162L620.953 150.835ZM619.473 153.697L620.381 152.209L618.84 153.019L613.139 155.667L616.373 159.182L619.473 153.697Z" fill="#313131"/>
<path d="M618.397 167.975C618.202 166.802 618.387 165.731 618.883 164.642C619.379 163.553 620.159 162.539 621.32 161.628C622.386 160.692 623.54 160.186 624.738 159.896C625.936 159.606 627.128 159.721 628.243 160.122C629.358 160.522 630.301 161.183 631.143 162.223C631.75 162.997 632.402 163.986 633.003 165.166L633.255 165.743L630.572 167.774L629.8 166.854L631.336 164.923C631.292 164.708 631.273 164.397 631.065 164.035C630.856 163.674 630.578 163.192 630.179 162.78C629.641 162.126 629.027 161.758 628.266 161.554C627.506 161.35 626.669 161.432 625.782 161.703C624.894 161.975 623.93 162.531 623.01 163.303C622.09 164.075 621.361 164.898 620.846 165.677C620.307 166.551 620.077 167.407 620.064 168.218C620.05 169.029 620.347 169.822 620.955 170.595C621.423 171.128 621.752 171.42 622.107 171.617C622.461 171.814 622.721 171.986 623.032 171.967L624.927 171.354L625.579 172.344L623.264 173.761C623.099 173.615 622.77 173.323 622.346 173.005C621.896 172.783 621.567 172.491 621.238 172.199C620.909 171.907 620.484 171.59 620.111 171.082C619.123 170.207 618.592 169.148 618.397 167.975Z" fill="#313131"/>
<path d="M637.421 174.906C638.568 174.806 639.544 174.965 640.469 175.315C641.394 175.665 642.217 176.394 642.824 177.168C643.571 178.183 643.937 179.096 644.063 180.148C644.093 181.175 643.934 182.151 643.368 183.12C642.803 184.089 642.048 185.007 640.912 185.823C639.752 186.734 638.477 187.31 637.279 187.6C636.081 187.89 634.984 187.8 633.869 187.399C632.754 186.999 632.001 186.389 631.324 185.495C630.577 184.48 630.141 183.446 630.016 182.394C629.89 181.342 630.145 180.392 630.615 179.397C631.18 178.428 631.936 177.51 632.976 176.668L631.179 174.252L626.827 177.567L627.662 179.013L626.914 179.526L623.832 175.441L624.581 174.928L625.707 176.045L634.918 169.04L634.153 167.715L634.927 167.107L637.939 171.072L637.165 171.679L636.038 170.563L632.073 173.575L633.87 175.991C635.24 175.442 636.343 175.126 637.421 174.906ZM639.041 176.46C637.799 176.535 636.309 177.154 634.641 178.439C633.213 179.584 632.217 180.641 631.791 181.851C631.365 183.061 631.49 184.113 632.237 185.128C633.009 186.048 633.909 186.493 635.176 186.323C636.419 186.249 637.839 185.509 639.482 184.319C640.909 183.174 641.906 182.117 642.332 180.907C642.758 179.697 642.632 178.645 641.955 177.75C641.278 176.856 640.284 176.386 639.041 176.46Z" fill="#313131"/>
<path d="M645.37 194.657C645.166 195.417 644.696 196.412 644.175 197.596C643.756 198.401 643.577 199.066 643.38 199.42C643.279 199.801 643.177 200.181 643.246 200.301L643.474 200.973L642.725 201.486L641.397 199.602C641.257 199.361 641.264 198.955 641.512 198.411C641.76 197.866 642.084 197.036 642.554 196.041C643.17 194.882 643.52 193.958 643.793 193.318C644.067 192.678 644.004 192.152 643.89 191.816L643.239 190.826L638.868 193.832L639.583 195.347L638.834 195.86L635.994 191.635L636.742 191.123L637.749 192.309L647.332 185.812L646.688 184.417L647.436 183.904L650.207 188.008L649.459 188.521L648.452 187.334L643.987 190.314L644.847 191.665L651.432 191.8L650.692 190.379L651.441 189.867L653.977 193.704L653.229 194.216L652.197 193.125L645.448 192.844C645.631 193.301 645.574 193.897 645.37 194.657Z" fill="#313131"/>
<path d="M644.998 204.03C645.062 203.028 645.342 201.983 646.097 201.065C646.758 200.121 647.703 199.254 648.908 198.559C650.138 197.768 651.362 197.383 652.509 197.283C653.752 197.208 654.822 197.393 655.817 197.863C656.811 198.334 657.634 199.063 658.26 200.148C659.234 201.835 659.543 203.344 659.015 204.934C658.513 206.429 657.345 207.746 655.512 208.884C654.282 209.675 653.058 210.06 651.79 210.23C650.548 210.304 649.477 210.119 648.388 209.623C647.393 209.153 646.596 208.328 645.944 207.339C645.248 206.134 645.028 205.056 644.998 204.03ZM654.535 198.844C653.319 198.824 651.759 199.323 650.047 200.392C648.455 201.391 647.363 202.423 646.842 203.607C646.226 204.766 646.352 205.818 646.978 206.903C647.629 207.892 648.598 208.458 649.815 208.478C651.127 208.524 652.592 208 654.304 206.931C655.896 205.931 656.987 204.9 657.508 203.715C658.004 202.626 657.999 201.504 657.373 200.419C656.721 199.43 655.847 198.89 654.535 198.844Z" fill="#313131"/>
<path d="M662.027 208.898L661.503 207.434L662.346 206.947L663.599 209.116C663.807 209.477 664.086 209.959 664.459 210.467C664.832 210.974 665.041 211.336 665.18 211.577C665.989 213.118 666.4 214.246 666.24 215.222C666.081 216.198 665.617 216.787 664.748 217.369C664.025 217.786 663.163 217.962 662.378 217.854C661.592 217.745 660.883 217.351 660.275 216.577C660.901 217.662 661.078 218.524 660.918 219.5C660.784 220.381 660.2 221.039 659.356 221.526C658.272 222.152 657.125 222.252 656.01 221.852C654.895 221.451 653.863 220.36 652.82 218.552C652.611 218.191 652.428 217.734 652.219 217.373C651.732 216.529 651.479 215.952 651.41 215.832L650.157 213.663L650.975 213.271L651.861 214.527L662.027 208.898ZM653.568 218.04C654.194 219.124 654.827 219.803 655.587 220.007C656.348 220.21 657.089 220.104 657.933 219.617C658.776 219.13 659.24 218.541 659.392 217.971C659.545 217.4 659.369 216.538 658.812 215.574C658.186 214.49 657.769 213.767 657.63 213.526L652.74 216.188C652.828 216.619 653.081 217.196 653.568 218.04ZM659.15 213.933L659.612 214.872C660.029 215.595 660.618 216.058 661.188 216.211C661.853 216.389 662.5 216.257 663.343 215.77C664.066 215.352 664.504 214.859 664.657 214.288C664.81 213.718 664.608 212.951 664.051 211.987C663.843 211.626 663.539 211.239 663.356 210.782L663.147 210.421L658.594 212.969C658.733 213.21 658.872 213.451 659.15 213.933Z" fill="#313131"/>
<path d="M676.586 234.393L675.768 234.785L674.908 233.434L664.489 238.485L665.057 240.165L664.239 240.557L661.957 235.77L662.775 235.378L663.635 236.729L674.149 231.703L671.519 226.313L660.98 231.434L661.548 233.114L660.73 233.506L658.423 228.813L659.241 228.421L660.031 229.652L670.45 224.6L669.951 223.041L670.769 222.649L676.586 234.393Z" fill="#313131"/>
<path d="M666.282 243.957C666.467 242.886 667.007 242.012 667.737 241.189C668.562 240.391 669.576 239.645 670.851 239.07C672.126 238.494 673.419 238.23 674.61 238.345C675.801 238.461 676.847 238.741 677.79 239.401C678.734 240.061 679.411 240.956 679.847 241.989C680.58 243.816 680.673 245.368 679.886 246.787C679.193 248.231 677.766 249.377 675.819 250.179C674.449 250.729 673.156 250.993 671.965 250.878C670.774 250.762 669.633 250.457 668.69 249.797C667.746 249.136 667.069 248.242 666.538 247.183C666.223 246.08 666.027 244.907 666.282 243.957ZM676.439 240.261C675.178 240.025 673.67 240.334 671.723 241.137C669.992 241.895 668.736 242.781 668.05 243.82C667.365 244.858 667.18 245.929 667.685 247.083C668.191 248.237 669.039 248.872 670.3 249.108C671.561 249.344 673.165 249.061 675.017 248.233C676.748 247.474 678.004 246.588 678.689 245.55C679.375 244.511 679.465 243.415 679.054 242.286C678.549 241.132 677.7 240.497 676.439 240.261Z" fill="#313131"/>
<path d="M676.192 256.39C674.468 256.743 673.105 256.887 672.129 256.728C671.654 256.6 671.179 256.473 670.944 256.207C670.615 255.915 670.381 255.648 670.198 255.192C669.945 254.615 669.857 254.184 669.838 253.873L671.233 253.228C671.252 253.539 671.435 253.995 671.688 254.572C671.732 254.788 671.897 254.934 672.061 255.08C672.226 255.226 672.416 255.277 672.701 255.353C674.437 255.717 677.455 255.099 681.658 253.475L683.028 252.926L682.466 250.84L683.379 250.473L687.195 260.561L686.282 260.928L685.473 259.387L674.592 263.499L675.04 265.249L674.153 265.52L672.144 260.093L673.032 259.822L673.885 261.578L684.765 257.465L683.464 253.959L681.879 254.553C679.786 255.52 677.916 256.038 676.192 256.39Z" fill="#313131"/>
<path d="M687.273 264.452L686.964 262.944L687.852 262.672L690.826 271.72L688.182 272.844L687.841 271.836L689.363 270.716L688.006 266.278L682.991 267.889L684.04 270.818L685.618 270.63L685.959 271.638L681.831 272.976L681.49 271.968L682.911 271.228L681.983 268.23L676.727 269.979L678.553 274.95L681.151 275.137L681.156 276.258L677.879 276.704L674.608 266.865L675.495 266.593L676.14 267.988L687.273 264.452Z" fill="#313131"/>
<path d="M692.059 279.282L691.036 276.258L687.043 276.715L686.753 275.517L691.615 274.477L694.815 285.724L690.015 287.29L689.7 286.187L693.308 284.506L692.526 281.342L681.184 284.516L681.713 287.103L680.826 287.374L678.888 280.54L679.776 280.268L680.597 282.526L692.059 279.282Z" fill="#313131"/>
<path d="M689.118 295.198L688.942 294.336C688.708 294.07 688.233 293.943 687.567 293.764C686.902 293.586 686.116 293.477 685.141 293.318C684.165 293.158 683.5 292.98 683.024 292.853C682.549 292.725 682.29 292.554 682.246 292.338L681.691 289.847L682.553 289.67L682.875 290.368C682.945 290.489 683.204 290.66 683.559 290.857C683.939 290.959 684.51 291.111 685.244 291.41C686.1 291.639 686.86 291.843 687.525 292.021C688.07 292.269 688.52 292.492 688.849 292.783C688.888 291.877 689.187 291.142 689.65 290.554C690.234 289.895 690.957 289.478 691.819 289.301C693.233 288.967 694.399 289.178 695.126 289.882C695.854 290.586 696.455 291.766 696.833 293.395C696.947 293.731 697.01 294.257 697.073 294.783C697.11 295.404 697.198 295.835 697.312 296.172L697.936 298.783L697.048 299.055L696.429 297.565L685.12 300.238L685.377 301.937L684.541 302.019L683.223 296.674L684.085 296.498L684.653 298.178L689.446 297.018L689.118 295.198ZM696.115 294.934C696.053 294.408 695.99 293.882 695.902 293.451C695.656 292.468 695.308 291.866 694.814 291.428C694.32 290.99 693.509 290.976 692.526 291.222C691.544 291.468 690.821 291.886 690.453 292.5C690.084 293.114 689.976 293.9 690.222 294.883C690.468 295.865 690.6 296.512 690.739 296.753L696.299 295.391L696.115 294.934Z" fill="#313131"/>
<path d="M698.302 305.4L697.615 302.262L693.603 302.41L693.408 301.237L698.359 300.628L700.601 312.026L695.714 313.161L695.518 311.988L699.24 310.643L698.769 307.461L687.181 309.652L687.495 312.283L686.633 312.459L685.247 305.467L686.109 305.291L686.81 307.617L698.302 305.4Z" fill="#313131"/>
<path d="M688.94 322.855C689.41 321.861 690.165 320.943 691.129 320.386C692.118 319.735 693.342 319.35 694.73 319.11C696.093 318.966 697.405 319.012 698.494 319.508C699.609 319.908 700.527 320.664 701.299 321.584C702.072 322.503 702.482 323.632 702.652 324.9C702.803 325.857 702.808 326.979 702.641 328.36L702.583 328.956L699.262 329.186L699.093 327.919L701.35 327.097C701.496 326.933 701.598 326.553 701.605 326.147C701.611 325.741 701.669 325.146 701.511 324.594C701.404 323.853 701.082 323.155 700.519 322.597C699.955 322.038 699.246 321.644 698.296 321.39C697.345 321.135 696.319 321.166 695.076 321.24C693.904 321.435 692.921 321.681 691.982 322.143C691.044 322.604 690.391 323.142 689.902 323.826C689.413 324.51 689.279 325.391 689.36 326.227C689.492 326.874 689.555 327.4 689.764 327.762C689.878 328.098 690.112 328.364 690.346 328.631L692.247 329.14L692.226 330.357L689.507 330.239C689.463 330.024 689.375 329.593 689.097 329.111C688.914 328.654 688.705 328.293 688.617 327.862C688.529 327.431 688.345 326.974 688.308 326.353C688.328 325.136 688.444 323.945 688.94 322.855Z" fill="#313131"/>
<path d="M703.842 336.423L702.91 336.479L702.488 334.634L693.095 335.479L695.482 336.832L702.562 341.581L703.088 341.518L703.141 339.8L704.073 339.744L704.536 344.859L703.604 344.915L703.27 343.502L691.677 344.572L691.65 346.194L690.718 346.25L690.281 341.04L691.212 340.984L691.59 342.613L701.079 341.794L698.761 340.562L691.611 335.692L690.99 335.73L690.938 337.447L690.006 337.503L689.568 332.293L690.5 332.237L690.809 333.746L702.402 332.676L702.499 331.174L703.43 331.118L703.842 336.423Z" fill="#313131"/>
<path d="M705.123 356.73L700.249 357.054L700.175 355.812L703.934 355.087L703.907 351.006L692.156 351.524L692.102 354.769L691.17 354.825L690.792 347.492L691.724 347.436L692.001 349.445L703.561 348.876L703.69 346.874L704.622 346.818L705.123 356.73Z" fill="#313131"/>
<path d="M704.042 360.006L704.234 358.529L705.14 358.568L705.102 363.651L704.196 363.612L704.008 362.034L699.02 362.021L698.981 368.631L703.968 368.644L704.16 367.167L705.066 367.206L705.054 372.194L704.148 372.155L703.934 370.672L692.311 370.715L692.119 372.191L691.213 372.152L691.225 367.164L692.131 367.204L692.32 368.782L697.713 368.801L697.752 362.191L692.359 362.172L692.142 363.743L691.236 363.704L691.178 358.596L692.085 358.635L692.298 360.118L704.042 360.006Z" fill="#313131"/>
<path d="M705.084 378.925L705.05 380.953L691.977 384.885L691.767 386.051L690.86 386.012L691.063 381.075L691.969 381.114L692.062 382.667L694.915 381.904L695.15 376.466L692.47 375.443L692.253 377.014L691.346 376.975L691.517 372.539L692.423 372.578L692.523 373.725L705.084 378.925ZM702.034 380.043L703.664 379.664L701.978 379.111L696.049 376.911L695.803 381.632L702.034 380.043Z" fill="#313131"/>
<path d="M695.449 391.316C693.738 390.858 692.528 390.431 691.68 389.797C691.255 389.479 690.926 389.187 690.812 388.851C690.604 388.49 690.611 388.084 690.617 387.679C690.675 387.083 690.682 386.677 690.853 386.418L692.381 386.42C692.304 386.705 692.272 387.205 692.214 387.801C692.163 387.991 692.208 388.207 692.347 388.448C692.391 388.663 692.555 388.809 692.815 388.98C694.157 390.053 697.224 390.773 701.704 391.159L703.206 391.255L703.576 389.114L704.482 389.153L703.538 399.9L702.632 399.861L702.589 398.118L691.056 397.065L690.667 398.896L689.761 398.857L690.288 393.091L691.194 393.13L691.185 395.063L702.718 396.116L703.021 392.326L701.329 392.178C699.041 391.973 697.09 391.654 695.449 391.316Z" fill="#313131"/>
<path d="M697.09 407.238C696.898 408.714 696.377 409.899 695.483 410.576C694.683 411.278 693.606 411.499 692.319 411.358C690.938 411.191 689.899 410.506 689.248 409.516C688.596 408.527 688.427 407.259 688.618 405.783C688.669 405.593 688.72 405.403 688.676 405.187C688.632 404.972 688.778 404.807 688.854 404.522C689.033 403.857 689.116 403.166 689.269 402.596L689.646 400.048L690.526 400.183L690.499 401.805L702.07 403.479L702.572 401.984L703.453 402.118L702.648 407.403L701.767 407.269L701.655 405.405L697.347 404.76L697.09 407.238ZM689.856 404.586C689.805 404.776 689.703 405.157 689.696 405.562C689.511 406.633 689.713 407.4 690.251 408.054C690.789 408.707 691.498 409.101 692.594 409.191C693.57 409.35 694.432 409.174 694.965 408.706C695.593 408.263 695.892 407.528 696.077 406.457L696.371 404.601L690.085 403.731C689.983 404.111 689.907 404.396 689.856 404.586ZM700.795 419.639L699.915 419.504L699.967 417.787L688.492 416.138L688.034 417.849L687.153 417.715L687.888 412.31L688.769 412.444L688.716 414.161L700.192 415.81L700.65 414.099L701.531 414.234L700.795 419.639Z" fill="#313131"/>
<path d="M697.984 427.849L698.557 426.474L699.412 426.703L698.278 431.696L697.422 431.467L697.545 429.87L692.647 428.761L691.226 435.205L696.124 436.314L696.696 434.939L697.551 435.168L696.443 440.066L695.587 439.837L695.684 438.335L684.317 435.9L683.84 437.3L682.985 437.071L684.094 432.173L684.949 432.403L684.852 433.905L690.155 435.02L691.576 428.576L686.273 427.461L685.745 429.051L684.89 428.822L686.024 423.829L686.879 424.058L686.782 425.56L697.984 427.849Z" fill="#313131"/>
<path d="M694.952 446.389L694.417 448.385L680.84 449.636L680.345 450.725L679.49 450.496L680.668 445.719L681.523 445.948L681.306 447.52L684.196 447.377L685.501 442.125L683.044 440.652L682.447 442.121L681.591 441.892L682.642 437.59L683.497 437.82L683.382 439.011L694.952 446.389ZM691.795 446.765L693.538 446.723L692.024 445.91L686.686 442.646L685.559 447.233L691.795 446.765Z" fill="#313131"/>
<path d="M689.427 461.308L690.341 459.414L691.171 459.738L689.613 464.413L680.81 464.194L678.402 464.058L680.505 465.334L687.673 470.514L686.114 475.189L685.285 474.865L685.724 472.844L674.212 470.574L673.519 472.018L672.689 471.694L674.375 466.543L675.205 466.868L674.867 468.509L683.116 470.414L686.683 471.166L684.372 469.528L676.121 463.446L676.522 462.331L685.997 462.324L689.742 462.411L686.379 460.898L678.632 457.498L677.863 459.228L677.033 458.903L678.566 454.323L679.396 454.647L679.083 456.193L689.427 461.308Z" fill="#313131"/>
<path d="M683.495 481.923L682.771 483.868L669.152 483.376L668.586 484.345L667.757 484.021L669.6 479.422L670.43 479.746L670.022 481.267L672.931 481.435L674.902 476.361L672.642 474.533L671.854 475.952L671.024 475.627L672.645 471.478L673.475 471.802L673.265 472.968L683.495 481.923ZM680.251 481.868L681.943 482.016L680.575 481.038L675.725 477.091L674.027 481.525L680.251 481.868Z" fill="#313131"/>
<path d="M678.427 490.954L679.259 489.751L680.089 490.075L679.072 492.349C678.849 492.799 678.748 493.179 678.551 493.534C678.277 494.174 678.125 494.744 677.877 495.289C677.133 496.923 676.353 497.936 675.414 498.397C674.501 498.764 673.474 498.794 672.195 498.248C671.295 497.803 670.611 497.314 670.099 496.566C669.587 495.817 669.385 495.05 669.329 494.119C669.273 493.187 669.527 492.236 669.972 491.337C670.169 490.982 670.245 490.697 670.442 490.343C670.639 489.988 670.69 489.798 670.811 489.728L667.067 488.114L665.86 490.337L665.03 490.013L667.534 484.471L668.364 484.795L667.861 486.29L678.427 490.954ZM670.872 491.782C670.427 492.681 670.413 493.492 670.685 494.38C670.956 495.268 671.71 495.877 672.989 496.423C673.984 496.894 674.795 496.907 675.372 496.654C676.069 496.332 676.558 495.648 677.028 494.654C677.225 494.299 677.327 493.919 677.454 493.444C677.531 493.159 677.582 492.969 677.607 492.874L671.495 490.217C671.418 490.502 671.17 491.047 670.872 491.782Z" fill="#313131"/>
<path d="M661.96 498.052C662.924 497.495 664.027 497.18 665.149 497.175C666.365 497.195 667.601 497.526 668.855 498.168C670.109 498.809 671.122 499.59 671.774 500.579C672.52 501.594 672.836 502.697 672.936 503.845C673.036 504.992 672.825 506.158 672.209 507.317C671.765 508.216 671.104 509.16 670.298 510.268L669.955 510.787L667.023 509.187L667.519 508.097L669.894 508.734C670.11 508.69 670.376 508.455 670.668 508.126C670.96 507.797 671.183 507.347 671.525 506.828C671.919 506.119 672.002 505.428 671.826 504.566C671.719 503.824 671.302 503.101 670.694 502.327C670.061 501.648 669.213 501.014 668.054 500.398C666.964 499.902 665.944 499.527 664.969 499.367C663.993 499.208 663.061 499.263 662.243 499.655C661.451 499.952 660.892 500.516 660.447 501.415C660.174 502.055 659.952 502.505 659.945 502.91C659.843 503.29 659.862 503.601 659.975 503.937L661.311 505.415L660.651 506.359L658.434 504.746C658.511 504.461 658.613 504.081 658.74 503.606C658.867 503.131 658.874 502.725 659.001 502.25C659.103 501.87 659.351 501.325 659.599 500.78C660.215 499.621 660.97 498.703 661.96 498.052Z" fill="#313131"/>
<path d="M662.332 525.551L661.553 525.037L662.322 523.307L654.216 518.589L655.392 521.043L658.335 529.064L658.785 529.286L659.858 527.944L660.637 528.458L658.033 532.853L657.254 532.339L657.826 530.964L647.782 525.115L646.83 526.388L646.025 525.969L648.654 521.479L649.459 521.898L648.741 523.437L656.917 528.276L655.69 526.012L652.772 517.896L652.157 517.528L651.059 518.965L650.255 518.546L652.91 513.961L653.714 514.38L653.116 515.85L663.161 521.699L664.088 520.521L664.866 521.035L662.332 525.551Z" fill="#313131"/>
<path d="M655.615 536.178C655.367 536.722 655.239 537.197 655.043 537.552C654.846 537.907 654.649 538.261 654.477 538.521C653.62 539.819 652.77 540.712 651.857 541.078C650.944 541.445 650.038 541.406 649.164 540.866C648.29 540.326 647.872 539.603 647.696 538.741C647.519 537.879 647.628 537.093 647.978 536.168C647.318 537.112 646.544 537.719 645.681 537.896C644.819 538.072 644.034 537.964 643.255 537.449C642.121 536.738 641.444 535.844 641.344 534.696C641.219 533.644 641.575 532.314 642.604 530.756C642.972 530.142 643.41 529.648 643.848 529.154C644.26 528.755 644.647 528.452 644.914 528.217C645.18 527.983 645.326 527.819 645.421 527.844L647.941 529.843L647.427 530.622L645.127 529.701C644.525 530.048 643.966 530.612 643.306 531.555C642.817 532.239 642.734 532.93 642.866 533.576C642.999 534.223 643.562 534.781 644.436 535.321C645.05 535.69 645.716 535.868 646.457 535.761C647.199 535.654 647.852 535.116 648.392 534.242L649.103 533.109L649.977 533.648L649.437 534.522C649.12 534.947 648.993 535.422 648.865 535.897C648.833 536.398 648.896 536.924 649.079 537.38C649.262 537.837 649.661 538.249 650.18 538.592C650.864 539.081 651.555 539.164 652.106 539.006C652.658 538.848 653.191 538.38 653.68 537.696C653.997 537.272 654.22 536.822 654.226 536.417C654.328 536.037 654.31 535.726 654.17 535.485L652.879 534.222L653.539 533.279L656.022 534.657C655.964 535.253 655.767 535.607 655.615 536.178Z" fill="#313131"/>
<path d="M645.827 549.139L646.943 548.012L647.722 548.527L646.256 550.578C645.964 550.907 645.742 551.357 645.373 551.971C645.03 552.491 644.833 552.845 644.662 553.105C643.684 554.473 642.739 555.34 641.851 555.611C640.964 555.883 640.083 555.749 639.33 555.139C638.646 554.651 638.108 553.997 637.931 553.135C637.73 552.368 637.838 551.582 638.162 550.752C637.502 551.696 636.728 552.303 635.841 552.575C634.979 552.751 634.098 552.617 633.344 552.008C632.331 551.227 631.775 550.263 631.675 549.116C631.575 547.969 632.077 546.473 633.321 544.872C633.613 544.542 633.81 544.188 634.102 543.859C634.711 543.105 635.054 542.586 635.175 542.516L636.641 540.465L637.42 540.979L636.658 542.303L645.827 549.139ZM633.91 545.335C633.129 546.348 632.875 547.298 632.887 548.015C632.898 548.731 633.411 549.479 634.19 549.993C634.943 550.603 635.703 550.806 636.35 550.674C636.997 550.542 637.65 550.004 638.285 549.155C639.066 548.142 639.459 547.433 639.631 547.173L635.103 543.923C634.983 543.993 634.545 544.486 633.91 545.335ZM639.965 548.587L639.33 549.436C638.841 550.119 638.663 550.785 638.795 551.431C638.928 552.078 639.371 552.706 640.055 553.195C640.738 553.683 641.404 553.862 642.025 553.824C642.576 553.667 643.204 553.224 643.865 552.28C644.156 551.951 644.379 551.501 644.576 551.147L644.773 550.792L640.6 547.739C640.549 547.929 640.282 548.163 639.965 548.587Z" fill="#313131"/>
<path d="M637.051 562.881L635.807 564.483L622.852 559.993L622.027 560.791L621.274 560.181L624.346 556.319L625.1 556.928L624.242 558.226L626.922 559.25L630.311 554.963L628.704 552.598L627.588 553.724L626.834 553.115L629.589 549.677L630.342 550.286L629.752 551.35L637.051 562.881ZM633.966 561.851L635.531 562.473L634.481 561.072L630.988 555.858L628.062 559.556L633.966 561.851Z" fill="#313131"/>
<path d="M619.699 563.019C620.802 562.703 621.924 562.698 623.064 563.004C624.205 563.309 625.338 564.021 626.421 564.922C627.503 565.823 628.25 566.838 628.661 567.966C629.071 569.095 629.171 570.242 628.961 571.408C628.75 572.574 628.16 573.638 627.404 574.556C626.795 575.309 625.875 576.082 624.835 576.923L624.327 577.297L621.909 574.917L622.759 574.024L624.887 575.206C625.103 575.162 625.439 575.048 625.826 574.744C626.187 574.536 626.6 574.137 626.943 573.618C627.501 573.054 627.8 572.319 627.814 571.508C627.922 570.722 627.72 569.955 627.233 569.112C626.746 568.268 626.164 567.399 625.151 566.619C624.233 565.863 623.385 565.229 622.46 564.879C621.535 564.529 620.654 564.395 619.818 564.477C618.981 564.558 618.258 564.975 617.649 565.729C617.211 566.223 616.893 566.647 616.791 567.027C616.595 567.382 616.613 567.692 616.537 567.977L617.39 569.734L616.47 570.506L614.787 568.425C614.933 568.261 615.13 567.906 615.378 567.361C615.6 566.911 615.797 566.557 615.994 566.202C616.191 565.847 616.508 565.423 616.946 564.929C617.581 564.081 618.596 563.334 619.699 563.019Z" fill="#313131"/>
<path d="M615.784 582.952C616.099 584.055 616.13 585.082 615.875 586.032C615.62 586.983 615.176 587.882 614.376 588.585C613.526 589.477 612.562 590.034 611.579 590.28C610.597 590.526 609.501 590.436 608.481 590.061C607.461 589.685 606.422 589 605.435 588.124C604.377 587.128 603.561 585.992 603.176 584.769C602.765 583.64 602.57 582.467 602.851 581.422C603.036 580.351 603.601 579.382 604.331 578.559C605.181 577.667 606.145 577.11 607.153 576.769C608.136 576.523 609.232 576.613 610.252 576.988C611.272 577.363 612.31 578.049 613.298 578.925L615.411 576.741L611.442 572.927L610.16 573.908L609.528 573.229L613.075 569.494L613.733 570.078L612.781 571.351L621.118 579.39L622.279 578.479L622.912 579.158L619.39 582.798L618.757 582.119L619.709 580.846L616.069 577.325L613.956 579.509C614.937 580.79 615.468 581.849 615.784 582.952ZM614.609 584.675C614.319 583.476 613.459 582.126 612.003 580.717C610.711 579.454 609.388 578.692 608.127 578.456C606.866 578.22 605.763 578.536 604.913 579.428C604.062 580.321 603.808 581.271 604.098 582.469C604.388 583.667 605.248 585.018 606.799 586.452C608.091 587.715 609.319 588.452 610.555 588.783C611.79 589.114 612.798 588.773 613.648 587.88C614.499 586.988 614.779 585.942 614.609 584.675Z" fill="#313131"/>
<path d="M597.512 593.742C596.726 593.634 595.681 593.354 594.446 593.022C593.59 592.793 592.925 592.615 592.45 592.488C592.07 592.386 591.759 592.405 591.518 592.544L590.821 592.866L590.188 592.187L591.838 590.592C592.079 590.453 592.415 590.339 593.08 590.517C593.65 590.67 594.505 590.899 595.646 591.205C596.856 591.631 597.806 591.886 598.592 591.994C599.257 592.173 599.783 592.11 600.075 591.781L600.9 590.983L597.267 587.056L595.89 588.011L595.257 587.332L599.039 583.864L599.672 584.543L598.65 585.695L606.549 594.228L607.805 593.343L608.438 594.022L604.777 597.42L604.144 596.742L605.096 595.469L601.463 591.541L600.251 592.643L601.143 599.197L602.399 598.311L603.032 598.99L599.638 602.155L599.005 601.476L599.932 600.298L599.186 593.58C599.014 593.839 598.298 593.851 597.512 593.742Z" fill="#313131"/>
<path d="M588.233 594.923C589.285 594.797 590.356 594.982 591.325 595.547C592.414 596.043 593.307 596.893 594.243 597.959C595.18 599.025 595.781 600.205 596.071 601.403C596.361 602.601 596.366 603.723 595.991 604.742C595.616 605.762 595.05 606.731 594.131 607.503C592.678 608.744 591.118 609.243 589.547 609.025C587.975 608.808 586.512 607.805 585.012 606.181C584.076 605.115 583.475 603.935 583.185 602.737C582.895 601.539 582.89 600.417 583.29 599.302C583.596 598.162 584.231 597.313 585.151 596.541C586.147 595.484 587.18 595.048 588.233 594.923ZM594.794 603.505C594.625 602.237 593.885 600.817 592.55 599.339C591.309 597.886 590.106 597.054 588.896 596.628C587.686 596.202 586.608 596.423 585.689 597.195C584.769 597.967 584.394 598.987 584.563 600.254C584.733 601.522 585.472 602.943 586.782 604.516C588.023 605.969 589.226 606.8 590.436 607.227C591.672 607.558 592.749 607.337 593.669 606.565C594.589 605.793 594.964 604.773 594.794 603.505Z" fill="#313131"/>
<path d="M586.101 612.38L587.427 611.615L588.034 612.389L586.099 613.908C585.738 614.116 585.325 614.515 584.888 615.009C584.475 615.408 584.088 615.711 583.847 615.851C582.445 616.901 581.386 617.432 580.455 617.488C579.523 617.544 578.719 617.125 578.111 616.351C577.573 615.697 577.276 614.905 577.29 614.093C577.304 613.282 577.602 612.547 578.186 611.889C577.266 612.661 576.353 613.028 575.447 612.989C574.541 612.949 573.736 612.53 573.129 611.756C572.382 610.741 572.067 609.638 572.277 608.472C572.488 607.307 573.44 606.034 574.988 604.819C575.375 604.515 575.736 604.306 576.003 604.072C576.777 603.465 577.259 603.186 577.405 603.022L579.339 601.503L579.852 602.252L578.735 603.378L586.101 612.38ZM575.716 605.523C574.701 606.27 574.187 607.049 574.078 607.834C573.969 608.62 574.171 609.387 574.779 610.161C575.386 610.935 576 611.303 576.691 611.387C577.382 611.47 578.079 611.147 578.974 610.47C579.989 609.724 580.642 609.186 580.813 608.926L577.403 604.549C577.023 604.447 576.515 604.821 575.716 605.523ZM580.647 610.308L579.873 610.915C579.22 611.453 578.851 612.067 578.768 612.758C578.685 613.449 578.912 614.121 579.545 614.8C580.083 615.453 580.697 615.821 581.293 615.879C581.889 615.937 582.586 615.615 583.481 614.937C583.868 614.634 584.16 614.305 584.547 614.001L584.813 613.767L581.636 609.656C581.3 609.77 581.034 610.004 580.647 610.308Z" fill="#313131"/>

</g>
</symbol>
</svg>
