<svg width="634" height="634" viewBox="0 0 634 634" fill="none" xmlns="http://www.w3.org/2000/svg">
<symbol id="overlay" width="634" height="634" viewBox="0 0 634 634">
<g style="mix-blend-mode:overlay">
<path d="M435.804 516.181L435.483 515.509L436.712 514.668L433.28 507.81L433.007 510.079L431.443 516.852L431.593 517.227L432.874 516.817L433.196 517.489L429.421 519.405L429.099 518.733L430.13 518.006L425.905 509.43L424.702 509.861L424.38 509.189L428.233 507.294L428.555 507.966L427.446 508.672L430.934 515.629L431.166 513.516L432.772 506.587L432.486 506.092L431.107 506.559L430.785 505.887L434.638 503.993L434.96 504.664L433.85 505.371L438.076 513.946L439.257 513.594L439.579 514.265L435.804 516.181Z" fill="#313131"/>
<path d="M426.464 520.452C426.047 520.758 425.751 520.93 425.454 521.101C425.157 521.272 424.86 521.444 424.584 521.537C423.439 522.067 422.455 522.305 421.654 522.174C420.853 522.043 420.291 521.641 419.933 520.793C419.632 520.043 419.565 519.356 419.832 518.675C420.098 517.993 420.577 517.453 421.192 517.032C420.343 517.39 419.578 517.436 418.876 517.248C418.195 516.982 417.732 516.523 417.41 515.852C416.938 514.805 416.913 513.962 417.299 513.146C417.685 512.329 418.539 511.638 419.883 510.994C420.455 510.73 421.007 510.543 421.439 510.491C421.892 510.362 422.324 510.31 422.579 510.295C422.834 510.28 423.011 510.244 423.089 510.264L423.908 512.826L423.236 513.147L422.01 511.481C421.443 511.412 420.813 511.578 419.965 511.936C419.314 512.18 418.954 512.585 418.808 513.132C418.662 513.678 418.749 514.287 419.05 515.037C419.315 515.609 419.7 516.047 420.225 516.271C420.75 516.496 421.437 516.429 422.286 516.071L423.233 515.656L423.612 516.426L422.764 516.784C422.389 516.935 422.071 517.184 421.732 517.511C421.472 517.86 421.289 518.229 421.185 518.619C421.158 519.03 421.189 519.54 421.396 520.014C421.64 520.665 422.046 521.024 422.514 521.15C422.982 521.275 423.513 521.166 424.164 520.923C424.559 520.694 424.934 520.544 425.174 520.273C425.414 520.003 425.554 519.79 425.596 519.634L425.306 518.218L426.176 517.782L427.277 519.917C427.178 519.974 426.881 520.145 426.464 520.452Z" fill="#313131"/>
<path d="M413.965 524.964L415.204 524.711L415.505 525.46L413.553 526.192C413.256 526.363 412.803 526.493 412.329 526.7C411.856 526.908 411.559 527.079 411.361 527.193C410.059 527.681 409.019 527.82 408.316 527.632C407.614 527.444 407.073 526.964 406.793 526.137C406.55 525.486 406.483 524.799 406.728 524.196C406.895 523.572 407.375 523.031 407.968 522.688C407.042 523.025 406.256 523.149 405.574 522.883C404.893 522.617 404.352 522.138 404.072 521.31C403.657 520.362 403.731 519.462 404.216 518.589C404.701 517.715 405.654 516.967 407.232 516.386C407.607 516.235 407.883 516.142 408.236 516.07C408.965 515.847 409.439 515.639 409.616 515.603L411.49 514.851L411.713 515.579L410.547 516.187L413.965 524.964ZM407.476 517.037C406.528 517.452 405.913 517.872 405.59 518.455C405.267 519.037 405.355 519.646 405.577 520.375C405.878 521.125 406.263 521.562 406.788 521.787C407.313 522.011 408 521.944 408.849 521.586C409.797 521.171 410.426 521.005 410.723 520.834L409.11 516.555C408.777 516.549 408.303 516.757 407.476 517.037ZM410.155 522.02L409.405 522.321C408.754 522.564 408.317 522.949 408.092 523.474C407.868 523.999 407.878 524.587 408.199 525.259C408.443 525.91 408.828 526.347 409.275 526.551C409.722 526.754 410.409 526.688 411.258 526.329C411.633 526.179 411.929 526.008 412.304 525.857L412.601 525.686L411.081 521.682C410.883 521.797 410.607 521.89 410.155 522.02Z" fill="#313131"/>
<path d="M401.782 530.481L400.205 531.062L393.3 522.187L392.337 522.347L392.114 521.618L395.977 520.312L396.2 521.04L395.054 521.57L396.452 523.533L400.689 522.076L400.65 519.724L399.333 519.957L399.111 519.228L402.598 518.072L402.821 518.8L401.952 519.236L401.782 530.481ZM400.151 528.455L400.935 529.585L400.822 528.133L400.693 522.997L397.007 524.267L400.151 528.455Z" fill="#313131"/>
<path d="M389.781 522.833C390.717 523.084 391.435 523.527 392.069 524.282C392.703 525.038 393.217 525.928 393.491 527.089C393.787 528.172 393.848 529.191 393.654 530.227C393.46 531.262 392.996 532.058 392.319 532.712C391.642 533.367 390.829 533.902 389.825 534.219C389.096 534.441 388.133 534.602 387.035 534.642L386.525 534.672L385.904 531.997L386.908 531.681L387.859 533.441C388.015 533.483 388.327 533.566 388.66 533.572C388.993 533.577 389.446 533.448 389.977 533.339C390.606 533.174 391.122 532.81 391.502 532.326C391.883 531.843 392.149 531.162 392.181 530.418C392.213 529.673 392.131 528.732 391.872 527.826C391.613 526.92 391.255 526.071 390.756 525.436C390.257 524.801 389.738 524.243 389.134 523.998C388.531 523.753 387.808 523.642 387.079 523.865C386.548 523.974 386.152 524.202 385.955 524.317C385.757 524.431 385.517 524.701 385.376 524.914L385.192 526.538L384.229 526.698L383.972 524.538C384.149 524.502 384.445 524.331 384.841 524.102C385.159 523.853 385.456 523.681 385.831 523.531C386.127 523.359 386.58 523.23 387.033 523.1C387.903 522.664 388.845 522.582 389.781 522.833Z" fill="#313131"/>
<path d="M378.215 534.787C377.907 535.625 377.443 536.42 376.885 536.94C376.229 537.517 375.536 537.916 374.75 538.04C373.767 538.279 372.866 538.205 372.107 537.918C371.348 537.63 370.651 537.109 370.095 536.375C369.539 535.641 369.103 534.771 368.907 533.631C368.653 532.392 368.613 531.294 368.786 530.337C368.98 529.302 369.444 528.506 370.043 527.831C370.642 527.155 371.413 526.776 372.318 526.517C373.302 526.279 374.223 526.275 375.061 526.583C375.898 526.891 376.517 527.391 377.094 528.047C377.649 528.782 378.085 529.651 378.282 530.791L380.681 530.263L379.677 525.896L378.381 526.051L378.236 525.343L382.348 524.354L382.493 525.062L381.291 525.492L383.486 534.778L384.683 534.68L384.828 535.388L380.815 536.32L380.67 535.612L381.872 535.182L380.94 531.169L378.52 531.775C378.539 532.951 378.445 533.929 378.215 534.787ZM376.517 535.503C376.867 534.51 376.869 533.256 376.486 531.564C376.118 530.127 375.589 528.982 374.856 528.284C374.123 527.586 373.285 527.278 372.224 527.495C371.24 527.733 370.662 528.331 370.333 529.246C370.004 530.162 370.059 531.515 370.442 533.206C370.81 534.643 371.261 535.767 371.994 536.466C372.706 537.242 373.565 537.472 374.47 537.213C375.511 537.074 376.168 536.497 376.517 535.503Z" fill="#313131"/>
<path d="M360.747 534.121C360.285 533.663 359.609 533.063 358.897 532.287C358.377 531.73 358.071 531.313 357.8 531.073C357.53 530.834 357.317 530.693 357.161 530.651L356.594 530.583L356.449 529.875L358.296 529.534C358.551 529.518 358.843 529.68 359.17 530.019C359.498 530.357 360.017 530.915 360.573 531.649C361.264 532.503 361.784 533.061 362.246 533.519C362.631 533.957 363 534.139 363.354 534.067L364.317 533.907L363.547 529.602L362.194 529.658L362.049 528.95L366.176 528.216L366.3 529.002L365.119 529.355L366.783 538.749L368.037 538.75L368.161 539.536L364.133 540.213L364.05 539.271L365.253 538.841L364.504 534.458L363.187 534.691L360.871 539.59L362.146 539.514L362.27 540.299L358.574 540.982L358.45 540.196L359.632 539.844L362.146 534.83C361.735 534.804 361.231 534.501 360.747 534.121Z" fill="#313131"/>
<path d="M353.889 530.694C354.705 531.08 355.303 531.658 355.739 532.528C356.196 533.319 356.512 534.324 356.709 535.464C356.905 536.604 356.789 537.66 356.439 538.653C356.11 539.569 355.568 540.344 354.912 540.92C354.178 541.476 353.407 541.855 352.366 541.994C350.794 542.242 349.468 541.887 348.543 540.97C347.618 540.053 346.953 538.788 346.768 536.982C346.592 535.764 346.708 534.708 347.037 533.792C347.387 532.799 347.908 532.102 348.585 531.447C349.32 530.892 350.168 530.534 351.131 530.373C352.172 530.234 353.072 530.308 353.889 530.694ZM354.523 539.562C354.951 538.589 355.109 537.377 354.903 535.649C354.733 534.098 354.282 532.974 353.59 532.12C352.899 531.265 352.062 530.957 351.099 531.118C350.136 531.278 349.423 531.756 348.995 532.728C348.567 533.701 348.389 534.991 348.616 536.641C348.785 538.192 349.237 539.316 349.949 540.092C350.583 540.848 351.399 541.234 352.44 541.094C353.361 541.09 354.096 540.534 354.523 539.562Z" fill="#313131"/>
<path d="M344.55 541.824L345.783 541.903L345.829 542.668L343.768 542.869C343.435 542.863 342.982 542.993 342.472 543.023C341.941 543.132 341.608 543.126 341.431 543.163C340.057 543.296 339.001 543.181 338.362 542.758C337.722 542.336 337.379 541.742 337.276 540.878C337.21 540.192 337.398 539.489 337.7 538.985C338.003 538.48 338.617 538.06 339.346 537.837C338.404 537.919 337.603 537.788 336.963 537.366C336.324 536.943 336.002 536.272 335.956 535.507C335.895 534.487 336.125 533.628 336.823 532.896C337.521 532.163 338.646 531.711 340.352 531.583C340.706 531.511 341.039 531.517 341.45 531.543C342.215 531.497 342.725 531.467 342.881 531.508L344.942 531.308L344.988 532.073L343.749 532.326L344.55 541.824ZM340.455 532.447C339.435 532.509 338.686 532.809 338.305 533.293C337.847 533.755 337.68 534.38 337.804 535.166C337.85 535.931 338.114 536.503 338.541 536.785C338.967 537.066 339.669 537.254 340.533 537.151C341.553 537.09 342.24 537.023 342.516 536.93L342.141 532.397C341.829 532.314 341.319 532.344 340.455 532.447ZM341.734 537.975L340.87 538.078C340.183 538.145 339.611 538.41 339.329 538.836C339.048 539.262 338.88 539.886 338.947 540.573C339.014 541.26 339.201 541.812 339.627 542.094C340.053 542.375 340.678 542.542 341.541 542.439C341.895 542.367 342.306 542.394 342.681 542.243L343.035 542.171L342.676 537.893C342.421 537.908 342.166 537.923 341.734 537.975Z" fill="#313131"/>
<path d="M320.449 544.064L320.403 543.299L321.72 543.066L321.43 533.538L319.962 533.396L319.916 532.631L324.21 532.527L324.255 533.292L322.96 533.446L323.229 543.052L328.11 542.939L327.841 533.332L326.451 533.211L326.406 532.446L330.699 532.342L330.745 533.107L329.527 533.282L329.817 542.81L331.107 542.989L331.153 543.754L320.449 544.064Z" fill="#313131"/>
<path d="M316.83 533.226C317.527 533.747 318.104 534.403 318.441 535.33C318.799 536.179 318.938 537.219 318.958 538.395C318.899 539.551 318.705 540.586 318.22 541.459C317.735 542.333 317.136 543.009 316.345 543.466C315.553 543.923 314.647 544.182 313.726 544.186C312.139 544.179 310.954 543.61 310.127 542.636C309.322 541.584 308.933 540.225 308.925 538.383C308.906 537.207 309.199 536.115 309.684 535.241C310.169 534.368 310.789 533.614 311.58 533.157C312.372 532.7 313.277 532.441 314.276 532.458C315.275 532.475 316.134 532.705 316.83 533.226ZM316.211 542.092C316.774 541.239 317.109 539.991 317.137 538.326C317.123 536.817 316.869 535.578 316.355 534.687C315.841 533.797 315.045 533.333 314.046 533.316C313.047 533.299 312.256 533.756 311.693 534.609C311.13 535.462 310.774 536.788 310.746 538.453C310.739 540.04 310.936 541.18 311.528 542.091C312.042 542.982 312.837 543.446 313.837 543.463C314.799 543.303 315.57 542.924 316.211 542.092Z" fill="#313131"/>
<path d="M304.098 536.421C304.397 534.996 304.746 534.002 305.268 533.306C305.528 532.957 305.768 532.687 306.065 532.516C306.361 532.344 306.715 532.272 307.048 532.277C307.537 532.325 307.87 532.33 308.105 532.393L308.103 533.647C307.869 533.584 307.458 533.558 306.969 533.511C306.813 533.469 306.636 533.505 306.438 533.619C306.24 533.733 306.12 533.869 306 534.004C305.099 535.184 304.607 537.644 304.368 541.344L304.289 542.577L306.047 542.881L306.015 543.625L297.128 543.084L297.16 542.34L298.612 542.227L299.243 532.695L297.718 532.453L297.75 531.709L302.428 532.043L302.396 532.787L300.788 532.858L300.157 542.39L303.29 542.56L303.411 541.171C303.637 539.392 303.821 537.768 304.098 536.421Z" fill="#313131"/>
<path d="M294.345 541.92L295.594 542.255L295.484 542.978L287.679 542.141L287.739 539.732L288.64 539.806L288.908 541.3L292.701 541.814L293.185 537.511L290.662 537.253L290.327 538.502L289.505 538.449L289.858 534.947L290.68 535L290.735 536.353L293.238 536.689L293.707 532.131L289.362 531.804L288.371 533.629L287.477 533.222L288.187 530.569L296.637 531.495L296.527 532.218L295.273 532.217L294.345 541.92Z" fill="#313131"/>
<path d="M281.671 540.531L284.273 540.81L285.265 537.731L286.222 537.903L285.39 541.946L275.911 540.493L276.332 536.424L277.289 536.597L277.332 539.87L279.97 540.326L281.366 530.748L279.238 530.261L279.348 529.538L285.133 530.419L285.023 531.143L283.046 531.031L281.671 540.531Z" fill="#313131"/>
<path d="M270.727 532.999L271.45 533.109C271.726 533.016 272.064 532.688 272.346 532.262C272.627 531.836 273.107 531.295 273.529 530.655C273.951 530.016 274.332 529.532 274.592 529.184C274.853 528.836 275.051 528.722 275.207 528.763L277.277 529.151L277.167 529.874L276.558 529.962C276.381 529.998 276.204 530.034 275.965 530.305C275.746 530.497 275.386 530.902 275.006 531.386C274.506 532.004 274.125 532.488 273.787 532.815C273.427 533.221 273.13 533.392 272.755 533.543C273.416 533.887 273.878 534.345 274.143 534.918C274.408 535.491 274.475 536.178 274.344 536.979C274.108 538.17 273.566 538.945 272.816 539.246C271.989 539.526 270.969 539.587 269.621 539.309C269.309 539.226 268.997 539.142 268.529 539.017C268.061 538.891 267.67 538.787 267.436 538.724L265.288 538.316L265.398 537.592L266.709 537.693L268.552 528.318L267.168 527.864L267.279 527.141L271.732 527.999L271.622 528.723L270.154 528.58L269.421 532.565L270.727 532.999ZM268.639 538.294C269.107 538.419 269.497 538.524 269.809 538.607C270.611 538.738 271.199 538.729 271.693 538.443C272.188 538.157 272.49 537.653 272.642 536.774C272.773 535.973 272.707 535.286 272.343 534.77C271.979 534.254 271.475 533.952 270.695 533.743C269.893 533.612 269.347 533.466 269.092 533.481L268.192 538.09L268.639 538.294Z" fill="#313131"/>
<path d="M259.951 536.384L262.568 536.918L263.795 533.901L264.809 534.173L263.587 538.11L254.316 535.877L255.071 531.814L256.007 532.065L255.717 535.333L258.292 536.023L260.489 526.576L258.403 525.933L258.591 525.231L264.329 526.601L264.141 527.303L262.127 527.015L259.951 536.384Z" fill="#313131"/>
<path d="M250.096 523.54C250.75 524.217 251.108 525.066 251.269 526.029C251.429 526.991 251.313 528.048 250.999 529.218C250.707 530.311 250.123 531.241 249.445 531.896C248.747 532.629 247.878 533.065 246.972 533.324C245.988 533.562 245.088 533.488 244.074 533.217C243.294 533.008 242.477 532.621 241.447 532.095L241 531.891L241.945 529.301L242.959 529.573L242.77 531.529C242.884 531.727 243.097 531.868 243.388 532.029C243.68 532.191 244.127 532.394 244.595 532.52C245.219 532.687 245.807 532.677 246.437 532.512C246.989 532.325 247.603 531.904 248.026 531.265C248.526 530.646 248.912 529.83 249.163 528.893C249.414 527.957 249.566 527.078 249.541 526.235C249.516 525.392 249.293 524.663 248.95 524.069C248.607 523.476 248.046 523.074 247.266 522.865C246.719 522.719 246.329 522.614 245.996 522.609C245.663 522.603 245.387 522.697 245.189 522.811L244.189 524.048L243.294 523.641L244.249 521.639C244.483 521.702 244.816 521.707 245.227 521.734C245.638 521.76 245.971 521.766 246.304 521.771C246.637 521.777 247.105 521.902 247.574 522.028C248.588 522.3 249.462 522.785 250.096 523.54Z" fill="#313131"/>
<path d="M234.955 530.104L235.222 529.423L236.725 529.742L239.258 522.476L237.471 523.837L231.55 527.519L231.446 527.91L232.709 528.499L232.443 529.18L228.469 527.781L228.736 527.1L229.927 527.335L233.018 518.295L231.833 517.727L232.099 517.045L236.151 518.465L235.884 519.147L234.537 518.869L231.984 526.214L233.671 524.91L239.769 521.191L239.915 520.645L238.574 520.035L238.84 519.353L242.892 520.773L242.625 521.455L241.356 521.198L238.265 530.238L239.373 530.786L239.106 531.468L234.955 530.104Z" fill="#313131"/>
<path d="M219.279 524.315L220.636 520.497L221.63 520.847L220.892 523.911L223.966 525.236L227.547 516.244L225.097 515.085L225.363 514.404L230.97 516.576L230.704 517.257L229.065 516.818L225.605 525.675L227.061 526.484L226.795 527.165L219.279 524.315Z" fill="#313131"/>
<path d="M217.194 522.418L218.182 523.101L217.916 523.782L214.104 522.092L214.37 521.411L215.619 521.745L217.288 518.011L212.347 515.851L210.678 519.585L211.744 520.289L211.477 520.97L207.743 519.3L208.009 518.619L209.18 518.933L213.031 510.18L211.944 509.554L212.21 508.873L215.944 510.542L215.678 511.224L214.45 510.811L212.598 514.914L217.539 517.075L219.391 512.971L218.226 512.325L218.493 511.643L222.383 513.355L222.117 514.036L220.967 513.644L217.194 522.418Z" fill="#313131"/>
<path d="M202.652 516.765L201.175 516.035L202.578 504.87L201.804 504.328L202.148 503.667L205.762 505.472L205.418 506.133L204.19 505.72L203.818 508.046L207.802 510.033L209.438 508.297L208.294 507.572L208.638 506.912L211.883 508.534L211.539 509.194L210.623 508.865L202.652 516.765ZM202.853 514.143L202.576 515.49L203.535 514.409L207.124 510.688L203.666 508.925L202.853 514.143Z" fill="#313131"/>
<path d="M196.65 505.456C197.531 504.354 198.328 503.564 199.041 503.086C199.437 502.858 199.713 502.764 200.067 502.692C200.4 502.698 200.712 502.781 201.081 502.964C201.529 503.167 201.799 503.407 202.012 503.548L201.542 504.676C201.329 504.536 201.038 504.374 200.534 504.072C200.399 503.952 200.242 503.91 200.065 503.946C199.889 503.982 199.712 504.019 199.514 504.133C198.248 504.797 196.706 506.809 194.829 510.07L194.203 511.156L195.674 512.22L195.33 512.88L187.623 508.557L187.968 507.897L189.33 508.429L193.998 500.062L192.718 499.218L193.063 498.557L197.218 500.841L196.873 501.502L195.454 500.87L190.807 509.159L193.506 510.635L194.174 509.392C194.904 507.915 195.769 506.558 196.65 505.456Z" fill="#313131"/>
<path d="M173.621 499.954L174.043 499.315L175.385 499.925L180.478 491.84L179.376 490.959L179.799 490.32L183.579 492.754L183.156 493.394L181.893 492.804L176.799 500.89L177.901 501.77L177.479 502.41L173.621 499.954ZM184.141 501.268C183.075 500.564 182.441 499.809 182.161 498.981C181.881 498.153 182.033 497.274 182.617 496.344C183.222 495.335 184.034 494.8 184.997 494.64C185.96 494.479 186.974 494.751 188.061 495.377C188.196 495.497 188.352 495.539 188.487 495.658C188.622 495.778 188.758 495.898 188.914 495.94C189.397 496.32 189.824 496.602 190.172 496.863L191.955 498.009L191.533 498.649L190.347 498.08L185.254 506.166L186.2 507.005L185.778 507.644L182.055 505.309L182.477 504.669L183.897 505.3L185.789 502.295L184.141 501.268ZM188.528 496.757C188.393 496.637 188.179 496.496 187.81 496.313C187.093 495.87 186.39 495.682 185.76 495.848C185.131 496.014 184.594 496.455 184.052 497.23C183.609 497.947 183.442 498.572 183.607 499.202C183.773 499.831 184.215 500.368 184.932 500.811L186.289 501.676L189.047 497.314C188.876 497.017 188.741 496.897 188.528 496.757Z" fill="#313131"/>
<path d="M168.335 495.025L169.182 495.921L168.76 496.561L165.411 494.075L165.834 493.435L166.999 494.082L169.485 490.734L165.149 487.565L162.663 490.913L163.51 491.809L163.087 492.449L159.817 489.983L160.24 489.344L161.347 489.892L167.002 482.208L166.134 481.389L166.557 480.75L169.905 483.236L169.482 483.876L168.396 483.25L165.769 486.811L170.105 489.98L172.732 486.419L171.728 485.481L172.151 484.841L175.577 487.348L175.155 487.988L174.068 487.362L168.335 495.025Z" fill="#313131"/>
<path d="M155.33 486.439L154.036 485.34L157.801 474.724L157.167 473.968L157.646 473.428L160.817 475.95L160.317 476.569L159.251 475.865L158.411 478.065L161.909 480.926L163.93 479.628L163.005 478.711L163.484 478.17L166.307 480.432L165.827 480.972L164.954 480.487L155.33 486.439ZM156.156 483.984L155.644 485.269L156.795 484.406L161.076 481.539L158.061 479.059L156.156 483.984Z" fill="#313131"/>
<path d="M146.215 477.39L147.29 478.682L146.811 479.222L143.801 476.409L146.89 469.877L147.86 468.129L146.214 469.277L139.981 472.876L137.029 470.161L137.508 469.621L138.901 470.663L144.499 462.88L143.616 461.807L144.095 461.267L147.297 464.299L146.818 464.839L145.695 464.037L141.546 469.532L139.743 471.892L141.721 470.75L149.1 466.622L149.833 467.32L146.676 474.419L145.356 477.16L147.565 475.159L152.738 470.524L151.698 469.409L152.178 468.868L155.13 471.583L154.651 472.123L153.606 471.342L146.215 477.39Z" fill="#313131"/>
<path d="M132.808 465.936L131.634 464.702L136.662 454.675L136.127 453.863L136.684 453.343L139.496 456.271L138.938 456.791L137.893 456.009L136.741 458.125L139.901 461.314L142.036 460.213L141.23 459.161L141.788 458.641L144.35 461.251L143.793 461.771L143.018 461.229L132.808 465.936ZM133.945 463.565L133.278 464.808L134.543 464.143L139.187 461.792L136.433 458.963L133.945 463.565Z" fill="#313131"/>
<path d="M127.712 459.051L128.361 460.061L127.804 460.581L126.458 459.049C126.187 458.81 125.938 458.492 125.668 458.252C125.262 457.893 124.878 457.455 124.55 457.117C123.589 456.023 123.096 455.054 123.071 454.211C123.046 453.368 123.489 452.651 124.286 451.861C124.921 451.362 125.536 450.941 126.223 450.874C126.931 450.73 127.654 450.84 128.335 451.106C129.017 451.372 129.635 451.872 130.212 452.529C130.404 452.747 130.597 452.966 130.789 453.185C130.981 453.404 131.095 453.602 131.173 453.623L133.7 451.372L132.396 449.685L132.953 449.165L136.3 452.905L135.742 453.425L134.796 452.586L127.712 459.051ZM129.634 453.126C129.114 452.569 128.454 452.225 127.808 452.136C127.163 452.046 126.315 452.404 125.518 453.194C124.861 453.771 124.538 454.354 124.548 454.942C124.557 455.53 124.879 456.201 125.456 456.858C125.648 457.076 125.919 457.316 126.189 457.556C126.324 457.676 126.459 457.795 126.516 457.894L130.574 454.298C130.382 454.08 130.075 453.663 129.634 453.126Z" fill="#313131"/>
<path d="M127.958 444.398C128.118 445.361 127.966 446.24 127.481 447.114C127.074 448.008 126.355 448.819 125.48 449.588C124.605 450.357 123.658 450.773 122.695 450.933C121.732 451.093 120.733 451.076 119.838 450.669C118.923 450.34 118.148 449.798 117.457 448.944C116.958 448.308 116.423 447.496 115.93 446.528L115.723 446.054L117.926 444.386L118.56 445.141L117.319 446.649C117.356 446.826 117.371 447.081 117.521 447.456C117.693 447.753 117.921 448.148 118.228 448.565C118.669 449.101 119.174 449.404 119.798 449.571C120.422 449.738 121.109 449.672 121.838 449.449C122.567 449.226 123.358 448.769 124.113 448.135C124.869 447.501 125.447 446.903 125.89 446.186C126.333 445.468 126.6 444.787 126.611 444.121C126.622 443.455 126.378 442.804 125.957 442.189C125.651 441.773 125.303 441.512 125.032 441.272C124.762 441.033 124.528 440.97 124.273 440.985L122.716 441.488L122.181 440.676L124.061 439.591C124.196 439.71 124.467 439.95 124.815 440.211C125.163 440.471 125.455 440.633 125.725 440.873C125.995 441.112 126.245 441.43 126.65 441.79C127.44 442.587 127.876 443.456 127.958 444.398Z" fill="#313131"/>
<path d="M102.937 429.163L103.551 428.742L104.492 429.914L110.913 425.614L108.66 425.595L101.734 424.91L101.417 425.16L102.003 426.404L101.389 426.825L99.0773 423.279L99.6919 422.858L100.539 423.754L108.486 418.44L107.879 417.274L108.493 416.853L110.882 420.42L110.268 420.841L109.385 419.768L102.865 424.126L104.962 424.103L112.043 424.829L112.537 424.544L111.873 423.278L112.487 422.858L114.877 426.425L114.262 426.846L113.436 425.872L105.489 431.185L106.018 432.331L105.404 432.751L102.937 429.163Z" fill="#313131"/>
<path d="M97.4994 420.43C97.1719 420.092 96.9225 419.774 96.6522 419.534C96.3819 419.295 96.2886 419.019 96.0963 418.8C95.468 417.712 95.1309 416.785 95.1059 415.942C95.0809 415.099 95.4822 414.537 96.2737 414.08C96.9663 413.681 97.6741 413.536 98.3764 413.724C99.0786 413.912 99.6401 414.313 100.16 414.871C99.7029 414.079 99.5009 413.273 99.689 412.57C99.8772 411.868 100.279 411.307 100.893 410.886C101.804 410.294 102.767 410.134 103.605 410.442C104.442 410.75 105.253 411.469 106.074 412.776C106.359 413.27 106.645 413.765 106.774 414.218C106.904 414.671 107.054 415.046 107.148 415.322C107.241 415.597 107.277 415.774 107.256 415.852L104.867 416.968L104.467 416.276L105.92 414.909C105.91 414.321 105.667 413.67 105.189 412.957C104.846 412.363 104.363 411.983 103.873 411.935C103.384 411.888 102.677 412.033 101.984 412.433C101.468 412.796 101.109 413.202 100.884 413.727C100.738 414.273 100.883 414.981 101.361 415.694L101.953 416.606L101.24 417.084L100.783 416.292C100.554 415.896 100.284 415.657 99.9354 415.396C99.5871 415.136 99.197 415.031 98.7859 415.005C98.3749 414.978 97.922 415.108 97.4273 415.393C96.8337 415.736 96.5522 416.162 96.4268 416.63C96.3794 417.119 96.488 417.65 96.8307 418.244C97.0592 418.64 97.3086 418.957 97.5998 419.119C97.8701 419.359 98.1042 419.422 98.2811 419.385L99.6606 418.919L100.196 419.731L98.2531 421.05C98.0971 421.009 97.9048 420.79 97.4994 420.43Z" fill="#313131"/>
<path d="M91.4666 408.611L91.897 409.814L91.2254 410.135L90.2181 408.276C90.0467 407.98 89.8182 407.584 89.5117 407.167C89.2052 406.751 89.0339 406.454 88.9196 406.256C88.2551 404.991 88.0169 404.007 88.049 403.263C88.1591 402.54 88.5605 401.978 89.352 401.521C90.0236 401.199 90.6535 401.034 91.2777 401.201C91.9228 401.29 92.4843 401.691 92.926 402.228C92.4899 401.358 92.288 400.552 92.4761 399.849C92.6643 399.147 93.0656 398.586 93.8362 398.207C94.7266 397.693 95.6686 397.61 96.5631 398.017C97.4786 398.346 98.3257 399.242 99.1616 400.804C99.3329 401.101 99.4834 401.476 99.6547 401.773C99.9766 402.445 100.184 402.918 100.319 403.038L101.269 404.798L100.598 405.12L99.8705 404.089L91.4666 408.611ZM93.9276 404.42L93.5487 403.649C93.206 403.056 92.8215 402.618 92.2753 402.472C91.7291 402.325 91.1982 402.434 90.5265 402.756C89.9329 403.099 89.4953 403.483 89.3699 403.951C89.2444 404.42 89.4102 405.049 89.7891 405.82C89.9605 406.117 90.189 406.512 90.3603 406.809L90.5317 407.106L94.3275 405.112C94.3275 405.112 94.1561 404.816 93.9276 404.42ZM98.5679 401.147C98.0538 400.257 97.5342 399.699 96.9308 399.454C96.3275 399.209 95.7186 399.297 95.0261 399.696C94.3335 400.096 93.8959 400.481 93.8276 401.048C93.7593 401.615 93.847 402.224 94.304 403.015C94.8181 403.906 95.0828 404.479 95.2541 404.775L99.2687 402.589C99.1545 402.392 98.9469 401.918 98.5679 401.147Z" fill="#313131"/>
<path d="M84.4872 397.207L83.7293 395.666L91.6222 387.745L91.3631 386.839L92.0348 386.517L93.8152 390.172L93.1436 390.494L92.4372 389.385L90.6661 391.001L92.597 395.031L94.9546 394.659L94.5451 393.379L95.2167 393.057L96.7687 396.316L96.097 396.638L95.5621 395.826L84.4872 397.207ZM86.264 395.258L85.1701 396.219L86.5858 395.929L91.7122 395.212L89.9888 391.656L86.264 395.258Z" fill="#313131"/>
<path d="M90.5439 384.278C90.392 385.157 89.9851 386.052 89.3858 386.727C88.7866 387.403 87.8544 388.073 86.8079 388.546C85.7614 389.018 84.7205 389.157 83.7424 389.062C82.7642 388.967 81.8488 388.639 81.0741 388.096C80.2994 387.554 79.6864 386.721 79.2712 385.773C78.9703 385.024 78.7112 384.118 78.4939 383.056L78.3853 382.525L80.9883 381.55L81.4034 382.498L79.7577 383.646C79.7159 383.802 79.7103 384.135 79.7827 384.489C79.8551 384.843 79.9847 385.296 80.1923 385.769C80.4569 386.342 80.8206 386.858 81.403 387.181C81.9854 387.504 82.6096 387.672 83.3746 387.626C84.1396 387.58 85.0244 387.399 85.972 386.984C86.8206 386.625 87.6121 386.169 88.2684 385.592C88.9248 385.015 89.3261 384.453 89.5143 383.751C89.7805 383.07 89.7137 382.383 89.3918 381.711C89.1843 381.237 88.9558 380.842 88.7635 380.623C88.5712 380.404 88.379 380.185 88.0669 380.102L86.4017 380.074L86.1426 379.168L88.2871 378.655C88.4014 378.853 88.5727 379.15 88.8221 379.468C89.0715 379.785 89.3418 380.025 89.5132 380.322C89.6845 380.619 89.913 381.015 90.1206 381.488C90.5358 382.436 90.6959 383.399 90.5439 384.278Z" fill="#313131"/>
<path d="M77.2499 374.276C76.3706 374.124 75.5541 373.738 74.9355 373.238C74.3169 372.738 73.839 372.024 73.559 371.197C73.2219 370.27 73.1188 369.406 73.3488 368.548C73.5788 367.689 73.9439 366.951 74.6003 366.374C75.2775 365.719 76.069 365.262 77.0946 364.868C78.2971 364.438 79.338 364.298 80.3371 364.315C81.3152 364.41 82.2307 364.739 82.9273 365.26C83.624 365.781 84.1799 366.516 84.5379 367.364C84.875 368.291 84.9572 369.233 84.8052 370.112C84.6532 370.991 84.2101 371.709 83.5329 372.364C82.8556 373.018 82.0432 373.554 81.0176 373.948L81.8994 376.275L86.0798 374.719L85.7692 373.381L86.4979 373.158L87.9398 377.141L87.211 377.363L86.6036 376.197L77.6911 379.496L77.9446 380.735L77.2158 380.958L75.7531 377.053L76.4819 376.83L77.0893 377.997L80.9937 376.534L80.1119 374.207C79.1281 374.445 78.1082 374.506 77.2499 374.276ZM76.315 372.771C77.3294 373.043 78.6253 372.889 80.2235 372.23C81.6239 371.685 82.6342 371.036 83.2753 370.204C83.9163 369.372 84.0682 368.493 83.7311 367.566C83.394 366.64 82.6973 366.118 81.761 365.867C80.8247 365.617 79.5079 365.849 77.9305 366.43C76.5301 366.975 75.5198 367.624 74.8997 368.378C74.2587 369.21 74.1276 370.011 74.4647 370.937C74.7029 371.921 75.3787 372.52 76.315 372.771Z" fill="#313131"/>
<path d="M75.7769 356.988C76.1782 356.427 76.6995 355.73 77.4185 354.919C77.8979 354.379 78.2574 353.973 78.518 353.625C78.7577 353.355 78.8204 353.121 78.8622 352.965L78.8525 352.377L79.5813 352.154L80.1775 353.986C80.2918 354.184 80.1092 354.553 79.8486 354.901C79.5671 355.328 79.0877 355.868 78.4105 356.523C77.6914 357.334 77.1131 357.932 76.7327 358.415C76.3522 358.899 76.2477 359.289 76.341 359.565L76.6001 360.471L80.7957 359.17L80.5841 357.775L81.3128 357.552L82.5777 361.571L81.8489 361.793L81.3195 360.648L72.1995 363.473L72.3749 364.691L71.6462 364.914L70.4384 360.994L71.1672 360.771L71.6966 361.917L75.8923 360.615L75.4827 359.335L70.3175 357.7L70.5501 359.017L69.8213 359.24L68.7069 355.596L69.4357 355.373L69.986 356.44L75.2654 358.273C75.1721 357.997 75.3965 357.472 75.7769 356.988Z" fill="#313131"/>
<path d="M78.2314 349.701C77.9234 350.538 77.4022 351.235 76.6678 351.791C75.9334 352.347 74.965 352.84 73.8823 353.135C72.7216 353.41 71.7016 353.471 70.7444 353.298C69.7871 353.125 68.9915 352.661 68.3157 352.062C67.64 351.463 67.183 350.671 66.9449 349.688C66.52 348.152 66.6985 346.862 67.5012 345.739C68.2829 344.694 69.4911 343.93 71.2036 343.469C72.3643 343.195 73.4623 343.154 74.4196 343.327C75.3768 343.5 76.2505 343.985 76.9262 344.584C77.6019 345.184 78.0589 345.975 78.2971 346.959C78.5353 347.943 78.5394 348.864 78.2314 349.701ZM69.4821 351.455C70.4756 351.804 71.7505 351.728 73.3641 351.324C74.8788 350.977 75.9671 350.349 76.6652 349.616C77.3634 348.883 77.6143 347.947 77.3552 347.041C77.117 346.057 76.4412 345.458 75.4478 345.108C74.4543 344.758 73.1013 344.814 71.4877 345.218C69.9731 345.565 68.8848 346.193 68.1866 346.926C67.4885 347.659 67.2585 348.517 67.4967 349.501C67.9118 350.448 68.5667 351.126 69.4821 351.455Z" fill="#313131"/>
<path d="M66.0387 341.834L66.1152 343.109L65.4074 343.254L64.9519 341.208C64.8795 340.855 64.7499 340.402 64.6204 339.949C64.4908 339.496 64.3404 339.121 64.325 338.866C64.0353 337.45 64.0522 336.451 64.3183 335.77C64.5845 335.089 65.1991 334.668 66.0059 334.466C66.7137 334.321 67.3589 334.41 67.9622 334.656C68.5446 334.979 69.0072 335.437 69.329 336.109C69.0908 335.125 69.1229 334.381 69.4671 333.721C69.8114 333.06 70.4259 332.639 71.2118 332.516C72.1956 332.277 73.1528 332.45 73.9066 333.07C74.6812 333.612 75.2887 334.779 75.6146 336.371C75.687 336.725 75.7595 337.079 75.7539 337.412C75.8778 338.198 76.0073 338.651 76.0436 338.828L76.5199 340.796L75.8121 340.94L75.3816 339.738L66.0387 341.834ZM69.5239 338.503L69.3219 337.696C69.177 336.988 68.8914 336.494 68.387 336.191C67.9607 335.91 67.3156 335.82 66.5868 336.043C65.8789 336.188 65.3842 336.474 65.1808 336.921C64.9773 337.368 64.8881 338.013 65.0691 338.898C65.1415 339.252 65.214 339.606 65.3644 339.981L65.4578 340.257L69.6269 339.367C69.6687 339.211 69.5754 338.935 69.5239 338.503ZM74.8078 336.573C74.5696 335.59 74.2478 334.918 73.6863 334.517C73.2028 334.136 72.5577 334.047 71.7509 334.249C70.965 334.373 70.4494 334.737 70.2459 335.184C69.9644 335.61 69.9323 336.354 70.1134 337.239C70.3516 338.223 70.4964 338.931 70.5898 339.207L75.0348 338.223C75.0975 337.989 74.9889 337.458 74.8078 336.573Z" fill="#313131"/>
<path d="M60.7332 318.25L61.5191 318.126L61.9287 319.407L71.3593 317.919L71.3246 316.488L72.1105 316.364L72.8027 320.648L72.0168 320.772L71.6853 319.512L62.2546 320.999L63.0345 325.892L72.5432 324.425L72.5085 322.994L73.2943 322.87L73.9085 327.133L73.1226 327.257L72.7701 326.075L63.3395 327.562L63.3171 328.895L62.5312 329.019L60.7332 318.25Z" fill="#313131"/>
<path d="M71.1049 313.252C70.7398 313.99 70.0625 314.645 69.2711 315.102C68.4796 315.559 67.4749 315.875 66.2779 315.973C65.081 316.07 64.0248 315.954 63.1094 315.625C62.1939 315.296 61.4193 314.754 60.8634 314.02C60.3074 313.286 59.9494 312.437 59.8673 311.495C59.6974 309.944 60.0529 308.618 60.9698 307.693C61.8867 306.767 63.2091 306.202 65.015 306.017C66.2119 305.919 67.2681 306.035 68.1836 306.364C69.099 306.693 69.8737 307.235 70.5076 307.99C71.0635 308.725 71.4215 309.573 71.5037 310.515C71.622 311.634 71.47 312.513 71.1049 313.252ZM62.201 313.709C63.1527 314.215 64.3859 314.295 66.0928 314.167C67.6437 313.997 68.7472 313.624 69.6015 312.932C70.4348 312.319 70.8208 311.503 70.6816 310.462C70.5994 309.52 70.0435 308.786 69.0919 308.28C68.1402 307.774 66.829 307.674 65.2002 307.822C63.6493 307.992 62.4677 308.345 61.6915 309.057C60.8582 309.67 60.5501 310.507 60.6894 311.548C60.7506 312.568 61.3065 313.302 62.201 313.709Z" fill="#313131"/>
<path d="M66.254 301.08C67.6433 301.201 68.7566 301.416 69.495 301.781C69.8643 301.964 70.1346 302.203 70.3268 302.422C70.4982 302.719 70.5915 302.995 70.664 303.349C70.6946 303.859 70.689 304.192 70.6262 304.426L69.4084 304.601C69.3931 304.346 69.3987 304.013 69.389 303.425C69.3528 303.248 69.3166 303.071 69.1814 302.952C69.0463 302.832 68.9111 302.712 68.6979 302.571C67.4551 301.904 64.9316 301.646 61.1848 301.896L59.9878 301.994L59.9389 303.737L59.1739 303.783L58.6173 294.936L59.3823 294.89L59.672 296.306L69.2057 295.682L69.27 294.194L70.0349 294.148L70.3675 298.837L69.6026 298.883L69.3547 297.311L59.8419 297.857L60.0047 300.994L61.3577 300.939C63.2778 300.952 64.8648 300.959 66.254 301.08Z" fill="#313131"/>
<path d="M59.5466 292.091L59.3681 293.381L58.6031 293.427L58.4408 285.606L60.8556 285.333L60.8806 286.176L59.423 286.621L59.3976 290.462L63.6907 290.358L63.6157 287.829L62.3254 287.65L62.3004 286.807L65.8285 286.749L65.8535 287.592L64.5367 287.824L64.5128 290.411L69.0609 290.291L68.8007 285.956L66.8347 285.179L67.0855 284.242L69.7441 284.62L69.8953 293.107L69.1303 293.153L68.9757 291.857L59.5466 292.091Z" fill="#313131"/>
<path d="M59.3698 279.331L59.4239 281.938L62.6078 282.541L62.591 283.54L58.5014 283.197L58.721 273.638L62.8371 273.57L62.8203 274.569L59.5987 275.044L59.4758 277.687L69.1335 277.85L69.3079 275.638L70.0519 275.67L69.9149 281.488L69.1708 281.456L69.0484 279.416L59.3698 279.331Z" fill="#313131"/>
<path d="M65.4672 267.501L65.4351 268.245C65.6065 268.541 65.8768 268.781 66.3812 269.083C66.8075 269.365 67.39 269.688 68.1284 270.053C68.8669 270.419 69.3713 270.721 69.7405 270.904C70.1098 271.086 70.302 271.305 70.2602 271.461L70.1277 273.516L69.3836 273.484L69.2959 272.875C69.2596 272.698 69.1245 272.578 68.9322 272.36C68.641 272.198 68.2927 271.937 67.7312 271.536C67.0707 271.192 66.5873 270.811 66.1609 270.53C65.7346 270.248 65.4852 269.931 65.3138 269.634C65.0476 270.315 64.6671 270.799 64.0526 271.219C63.459 271.562 62.8292 271.728 62.0071 271.675C60.7739 271.595 59.9574 271.209 59.5005 270.418C59.0435 269.626 58.9043 268.585 59.0047 267.274C59.0103 266.941 59.0939 266.629 59.1413 266.14C59.1887 265.651 59.2933 265.261 59.278 265.006L59.4524 262.794L60.1964 262.827L60.273 264.102L69.8052 264.732L70.0254 263.286L70.7695 263.318L70.4779 267.84L69.7338 267.807L69.72 266.298L65.6095 266.033L65.4672 267.501ZM59.9063 266.094C59.7809 266.562 59.7544 266.973 59.7488 267.306C59.6957 268.128 59.7835 268.737 60.168 269.175C60.5526 269.612 61.0778 269.837 61.978 269.911C62.8001 269.964 63.4299 269.798 63.9455 269.434C64.4611 269.071 64.6283 268.447 64.7594 267.645C64.8124 266.823 64.8598 266.334 64.7874 265.98L60.1098 265.647L59.9063 266.094Z" fill="#313131"/>
<path d="M60.6811 257.27L60.4803 259.892L63.6014 260.728L63.5066 261.707L59.4226 261.03L60.4643 251.525L64.5748 251.79L64.4799 252.768L61.264 252.91L60.8861 255.568L70.4698 256.631L70.8783 254.482L71.6015 254.593L70.9544 260.441L70.2312 260.331L70.2649 258.332L60.6811 257.27Z" fill="#313131"/>
<path d="M72.2782 245.825C71.679 246.501 70.8666 247.036 69.9609 247.295C69.0552 247.554 67.9572 247.594 66.8439 247.38C65.7305 247.165 64.7371 246.815 63.9833 246.195C63.2295 245.575 62.5956 244.82 62.2585 243.893C61.9214 242.966 61.8392 242.024 62.033 240.989C62.164 240.188 62.4149 239.252 62.8428 238.279L63.0463 237.832L65.7411 238.387L65.5473 239.422L63.5283 239.466C63.4084 239.601 63.2676 239.815 63.0851 240.184C62.9234 240.475 62.798 240.943 62.7505 241.432C62.6613 242.077 62.7491 242.686 63.0138 243.259C63.2785 243.832 63.741 244.29 64.4586 244.733C65.0981 245.156 65.9564 245.386 66.9917 245.579C67.949 245.752 68.792 245.727 69.6559 245.624C70.4418 245.5 71.1915 245.199 71.7279 244.758C72.2644 244.316 72.5878 243.734 72.7188 242.932C72.7871 242.365 72.8136 241.954 72.7983 241.699C72.783 241.444 72.6897 241.168 72.5183 240.872L71.1612 240.006L71.4121 239.07L73.4771 239.79C73.4144 240.024 73.5077 240.3 73.5592 240.732C73.6316 241.086 73.6051 241.497 73.6776 241.851C73.75 242.205 73.6454 242.595 73.5771 243.162C73.3053 244.177 72.8984 245.071 72.2782 245.825Z" fill="#313131"/>
<path d="M63.8761 231.615L64.5992 231.725L64.457 233.192L71.9743 234.788L70.3943 233.194L65.9985 227.751L65.6084 227.646L65.175 228.952L64.4518 228.842L65.3049 224.722L66.0281 224.832L65.9485 226.065L75.2814 228.064L75.6939 226.836L76.3962 227.024L75.5221 231.223L74.8199 231.034L74.9412 229.645L67.2679 228.007L68.7908 229.503L73.2436 235.045L73.7898 235.191L74.2442 233.807L74.9673 233.917L74.0933 238.116L73.3702 238.005L73.4706 236.694L64.1378 234.695L63.7461 235.845L63.023 235.735L63.8761 231.615Z" fill="#313131"/>
<path d="M67.6369 215.394L71.5801 216.284L71.3083 217.298L68.2178 216.972L67.2617 220.228L76.6669 222.581L77.5129 220.048L78.2152 220.236L76.746 226.031L76.0438 225.843L76.3268 224.162L67.0776 221.851L66.5034 223.37L65.8011 223.182L67.6369 215.394Z" fill="#313131"/>
<path d="M69.2632 213.07L68.7155 214.178L68.0133 213.99L69.2565 209.974L69.9588 210.162L69.7803 211.453L73.718 212.675L75.2748 207.489L71.3372 206.267L70.7895 207.374L70.0872 207.186L71.3096 203.248L72.0119 203.437L71.8543 204.649L80.978 207.428L81.4477 206.299L82.1499 206.488L80.9276 210.425L80.2254 210.237L80.4818 208.968L76.2321 207.662L74.6752 212.848L78.925 214.154L79.4156 212.947L80.1178 213.135L78.8745 217.151L78.1723 216.963L78.4079 215.772L69.2632 213.07Z" fill="#313131"/>
<path d="M72.9861 197.927L73.5812 196.33L84.7897 196.323L85.2747 195.449L85.956 195.716L84.5985 199.533L83.9172 199.267L84.1737 197.998L81.7645 197.938L80.3025 202.146L82.1792 203.568L82.7479 202.383L83.4292 202.649L82.2543 206.097L81.5729 205.831L81.7458 204.874L72.9861 197.927ZM75.6711 197.894L74.282 197.773L75.483 198.596L79.5849 201.702L80.9006 198.041L75.6711 197.894Z" fill="#313131"/>
<path d="M83.5735 190.561C84.7954 191.307 85.7053 191.969 86.204 192.604C86.4534 192.922 86.6039 193.296 86.6972 193.572C86.7696 193.926 86.686 194.238 86.6024 194.551C86.3989 194.998 86.2372 195.289 86.0965 195.502L84.947 195.111C85.0877 194.897 85.1923 194.507 85.3957 194.06C85.4376 193.904 85.5003 193.67 85.4432 193.571C85.407 193.394 85.2927 193.196 85.1785 192.998C84.3161 191.847 82.1634 190.518 78.6786 189.166L77.55 188.696L76.7208 190.23L76.0394 189.964L79.3327 181.731L80.0141 181.997L79.6377 183.401L88.4744 186.94L89.1628 185.619L89.8442 185.885L88.0853 190.265L87.404 189.998L87.8221 188.438L78.9855 184.899L77.8009 187.76L79.0855 188.271C80.8537 189.163 82.3515 189.815 83.5735 190.561Z" fill="#313131"/>
<path d="M86.045 177.592C86.5927 176.484 87.2128 175.73 88.0614 175.372C88.91 175.014 89.7321 175.067 90.7047 175.495C91.7344 176.022 92.4672 176.72 92.7054 177.704C92.9645 178.609 92.8488 179.665 92.3011 180.773C92.2593 180.929 92.1394 181.064 92.0976 181.22C91.9778 181.356 91.9359 181.512 91.7952 181.725C91.4928 182.229 91.2893 182.676 91.0858 183.124L90.251 184.991L89.5906 184.647L90.0031 183.419L81.3129 179.334L80.6091 180.4L79.9487 180.056L81.759 176.109L82.4195 176.453L81.9442 177.914L85.1322 179.438L86.045 177.592ZM86.0473 166.971L86.7077 167.315L86.2534 168.699L94.8656 172.763L95.6112 171.541L96.2716 171.885L94.3414 175.968L93.681 175.623L94.1353 174.24L85.5231 170.176L84.7775 171.398L84.1171 171.054L86.0473 166.971ZM91.1138 181.459C91.2337 181.323 91.3173 181.011 91.479 180.72C91.8441 179.982 91.8762 179.238 91.6324 178.587C91.3887 177.936 90.848 177.457 90.0315 177.071C89.2931 176.706 88.549 176.673 87.9972 176.86C87.4245 177.125 86.966 177.587 86.6009 178.326L85.9695 179.746L90.6554 181.921C90.8533 181.807 90.994 181.594 91.1138 181.459Z" fill="#313131"/>
<path d="M90.2017 161.143L89.4408 162.11L88.7804 161.766L90.8402 158.136L91.5006 158.48L91.01 159.687L94.6606 161.668L97.268 156.931L93.6175 154.949L92.8566 155.916L92.1962 155.572L94.157 152L94.8174 152.344L94.4258 153.493L102.793 158.161L103.554 157.194L104.214 157.538L102.232 161.188L101.572 160.844L102.062 159.638L98.1207 157.494L95.5133 162.232L99.455 164.375L100.258 163.252L100.918 163.596L98.8375 167.304L98.177 166.96L98.6467 165.831L90.2017 161.143Z" fill="#313131"/>
<path d="M97.1185 147.19L98.0048 145.755L108.976 148.193L109.596 147.439L110.236 147.861L108.062 151.293L107.422 150.871L107.991 149.685L105.65 149.058L103.294 152.859L104.811 154.687L105.671 153.663L106.31 154.085L104.397 157.169L103.757 156.746L104.164 155.852L97.1185 147.19ZM99.6572 147.703L98.3307 147.347L99.313 148.363L102.696 152.28L104.75 148.984L99.6572 147.703Z" fill="#313131"/>
<path d="M104.972 136.917L103.873 138.211L103.233 137.789L105.621 134.498L112.461 136.749L114.349 137.506L113.003 135.974L108.613 130.198L111 126.907L111.639 127.329L110.831 128.786L119.318 133.318L120.256 132.314L120.895 132.737L118.247 136.376L117.608 135.954L118.275 134.711L112.259 131.259L109.638 129.804L111.077 131.611L116.117 138.398L115.554 139.25L108.126 137.009L105.202 136.059L107.443 137.997L112.677 142.494L113.657 141.335L114.297 141.757L112.008 144.991L111.369 144.569L112.016 143.404L104.972 136.917Z" fill="#313131"/>
<path d="M114.585 122.265L115.607 120.95L126.244 124.636L126.921 123.981L127.539 124.482L125.017 127.653L124.398 127.153L125.102 126.087L122.902 125.246L120.119 128.766L121.439 130.708L122.356 129.783L122.974 130.283L120.712 133.106L120.094 132.606L120.579 131.732L114.585 122.265ZM117.061 123.012L115.777 122.501L116.639 123.652L119.506 127.932L121.909 124.896L117.061 123.012Z" fill="#313131"/>
<path d="M120.78 116.314L119.826 117.062L119.208 116.562L120.547 114.997C120.787 114.727 121.026 114.457 121.188 114.166C121.547 113.76 121.829 113.334 122.189 112.928C123.147 111.847 124.08 111.177 124.865 111.053C125.651 110.929 126.489 111.237 127.3 111.956C127.918 112.456 128.339 113.071 128.562 113.8C128.785 114.528 128.774 115.194 128.585 115.897C128.397 116.599 128.032 117.337 127.454 117.935C127.235 118.127 127.073 118.419 126.855 118.611C126.636 118.803 126.516 118.938 126.495 119.016L129.084 121.215L130.558 119.771L131.099 120.25L127.821 124.055L127.281 123.576L127.984 122.51L120.78 116.314ZM126.913 117.456C127.413 116.837 127.68 116.156 127.613 115.469C127.546 114.782 127.146 114.089 126.278 113.271C125.602 112.672 124.999 112.427 124.39 112.515C123.781 112.602 123.266 112.966 122.567 113.699C122.328 113.969 122.166 114.26 121.926 114.531C121.786 114.744 121.687 114.801 121.666 114.879L125.819 118.417C126.095 118.324 126.434 117.996 126.913 117.456Z" fill="#313131"/>
<path d="M135.424 114.718C134.519 114.977 133.619 114.904 132.682 114.653C131.767 114.324 130.893 113.839 130.025 113.021C129.235 112.224 128.622 111.39 128.306 110.386C127.969 109.459 127.986 108.46 128.158 107.503C128.409 106.566 128.816 105.672 129.592 104.96C130.171 104.362 130.827 103.785 131.837 103.136L132.254 102.83L134.141 104.84L133.442 105.573L131.716 104.525C131.539 104.562 131.263 104.655 130.966 104.826C130.67 104.998 130.331 105.325 129.992 105.652C129.534 106.115 129.289 106.718 129.22 107.285C129.131 107.931 129.297 108.56 129.598 109.31C129.919 109.982 130.475 110.716 131.208 111.414C131.863 112.092 132.659 112.556 133.397 112.921C134.136 113.286 134.859 113.396 135.546 113.329C136.233 113.262 136.826 112.92 137.384 112.4C137.743 111.994 138.004 111.646 138.145 111.433C138.285 111.22 138.369 110.908 138.354 110.653L137.674 109.132L138.429 108.499L139.79 110.285C139.67 110.42 139.509 110.711 139.305 111.159C139.123 111.528 138.961 111.819 138.799 112.11C138.638 112.401 138.377 112.75 138.018 113.155C137.143 113.924 136.252 114.438 135.424 114.718Z" fill="#313131"/>
<path d="M144.513 90.475L145.033 91.0324L144.053 92.1916L149.208 97.9217L148.894 95.663L148.579 88.721L148.33 88.4033L147.2 89.1877L146.68 88.6303L149.863 85.8033L150.382 86.3607L149.622 87.3277L155.987 94.4694L157.019 93.7422L157.538 94.2996L154.356 97.1265L153.836 96.5691L154.774 95.5659L149.561 89.7369L149.918 91.8396L150.191 98.9376L150.575 99.3751L151.726 98.5127L152.246 99.0701L149.042 101.975L148.522 101.418L149.361 100.472L142.995 93.3299L141.985 93.9791L141.466 93.4217L144.513 90.475Z" fill="#313131"/>
<path d="M152.462 83.9073C152.722 83.559 152.983 83.2106 153.223 82.9403C153.462 82.67 153.681 82.4778 153.9 82.2855C154.874 81.4593 155.821 81.0441 156.607 80.9202C157.393 80.7962 158.054 81.1405 158.63 81.7968C159.129 82.4322 159.373 83.083 159.263 83.8062C159.153 84.5293 158.907 85.1326 158.407 85.7513C159.141 85.1954 159.891 84.8945 160.614 85.0046C161.358 85.0367 161.941 85.36 162.44 85.9955C163.131 86.8497 163.39 87.7554 163.238 88.6346C163.086 89.5138 162.424 90.4237 161.252 91.3641C160.814 91.7487 160.32 92.0343 159.924 92.2627C159.528 92.4912 159.153 92.6417 158.877 92.735C158.602 92.8284 158.425 92.8646 158.404 92.9426L156.913 90.7033L157.548 90.2045L159.134 91.4657C159.665 91.357 160.336 91.0352 160.993 90.4584C161.529 90.0167 161.832 89.5123 161.801 89.0023C161.791 88.4143 161.605 87.8625 161.028 87.2062C160.664 86.6906 160.16 86.3882 159.593 86.3199C159.026 86.2515 158.375 86.4953 157.641 87.0512L156.786 87.7423L156.21 87.0859L156.866 86.5091C157.184 86.2598 157.444 85.9114 157.627 85.5422C157.809 85.173 157.914 84.7828 157.862 84.3509C157.811 83.9189 157.582 83.5232 157.276 83.1065C156.834 82.57 156.408 82.2885 155.898 82.3191C155.388 82.3497 154.914 82.5573 154.399 82.9209C154.06 83.2483 153.82 83.5186 153.581 83.7889C153.341 84.0592 153.356 84.3142 153.392 84.4912L154.057 85.7565L153.302 86.3904L151.685 84.6192C151.883 84.505 152.123 84.2347 152.462 83.9073Z" fill="#313131"/>
<path d="M163.289 76.271L162.122 76.8784L161.702 76.2639L163.368 75.0378C163.665 74.8665 164.004 74.539 164.42 74.2325C164.759 73.9051 165.077 73.6557 165.275 73.5415C166.426 72.6791 167.373 72.2639 168.117 72.296C168.861 72.3281 169.522 72.6724 170.021 73.3078C170.441 73.9223 170.607 74.5522 170.596 75.2182C170.585 75.8842 170.261 76.4667 169.782 77.0073C170.537 76.3733 171.344 76.1714 172.088 76.2035C172.832 76.2356 173.472 76.6578 173.893 77.2724C174.506 78.1057 174.687 78.9905 174.514 79.9477C174.341 80.905 173.502 81.851 172.132 82.9057C171.814 83.1551 171.518 83.3265 171.221 83.4978C170.528 83.8977 170.19 84.2251 170.013 84.2613L168.346 85.4874L167.925 84.8728L168.821 84.0257L163.289 76.271ZM167.725 78.1288L168.439 77.6509C169.053 77.2301 169.356 76.7257 169.403 76.2367C169.45 75.7476 169.285 75.1178 168.864 74.5032C168.443 73.8887 168.017 73.6072 167.528 73.5598C167.039 73.5124 166.388 73.7562 165.753 74.2549C165.435 74.5043 165.138 74.6757 164.898 74.946L164.68 75.1383L167.189 78.5704C167.111 78.5495 167.408 78.3782 167.725 78.1288ZM171.654 82.1923C172.488 81.5792 172.988 80.9606 173.077 80.3155C173.166 79.6703 173.001 79.0405 172.58 78.426C172.081 77.7905 171.598 77.4101 171.108 77.3627C170.541 77.2944 169.969 77.5591 169.234 78.115C168.401 78.728 167.885 79.0916 167.667 79.2839L170.347 83.0129C170.524 82.9766 170.941 82.6701 171.654 82.1923Z" fill="#313131"/>
<path d="M173.602 67.7442L175.029 66.7884L184.007 73.543L184.877 73.1069L185.298 73.7215L181.928 75.9966L181.507 75.3821L182.482 74.5559L180.626 73.055L176.86 75.5586L177.508 77.823L178.675 77.2155L179.095 77.8301L176.044 79.8558L175.623 79.2413L176.3 78.5865L173.602 67.7442ZM175.791 69.2506L174.689 68.3699L175.155 69.7494L176.58 74.7309L179.83 72.591L175.791 69.2506Z" fill="#313131"/>
<path d="M187.21 71.8922C186.289 71.8963 185.451 71.5883 184.578 71.1033C183.803 70.5612 183.091 69.785 182.442 68.7747C181.871 67.7854 181.554 66.7807 181.472 65.8387C181.39 64.8968 181.662 63.8824 182.126 63.0868C182.611 62.2132 183.288 61.5584 184.2 60.9663C184.892 60.5664 185.741 60.2084 186.844 59.8351L187.318 59.6275L188.59 62.0591L187.7 62.5732L186.333 61.1197C186.177 61.0779 185.901 61.1712 185.547 61.2437C185.193 61.3161 184.797 61.5446 184.402 61.7731C183.808 62.1158 183.428 62.5993 183.203 63.1246C182.958 63.7279 182.869 64.373 182.993 65.1589C183.117 65.9448 183.475 66.7934 184.01 67.6058C184.545 68.4182 185.1 69.1526 185.719 69.6529C186.338 70.1531 186.998 70.4974 187.7 70.6855C188.403 70.8737 189.033 70.7079 189.725 70.3081C190.22 70.0225 190.537 69.7731 190.678 69.5599C190.897 69.3676 191.059 69.0764 191.121 68.8423L190.894 67.1926L191.764 66.7565L192.552 68.8076C192.355 68.9219 192.136 69.1142 191.875 69.4625C191.635 69.7328 191.396 70.0031 191.078 70.2525C190.838 70.5228 190.443 70.7513 190.047 70.9797C189.115 71.6499 188.131 71.8881 187.21 71.8922Z" fill="#313131"/>
<path d="M195.214 57.3109C195.288 56.4108 195.518 55.5525 195.961 54.8349C196.405 54.1173 196.962 53.5976 197.753 53.1407C198.644 52.6266 199.529 52.4455 200.351 52.4985C201.173 52.5515 202.01 52.8596 202.686 53.4588C203.362 54.058 203.996 54.8133 204.588 55.7246C205.216 56.8129 205.512 57.8956 205.573 58.9156C205.634 59.9356 205.482 60.8148 205.018 61.6104C204.554 62.406 203.976 63.0037 203.184 63.4607C202.294 63.9747 201.409 64.1558 200.509 64.0819C199.687 64.0289 198.849 63.7208 198.153 63.1996C197.456 62.6785 196.744 61.9023 196.251 60.9338L194.095 62.1124L196.224 66.0281L197.447 65.5196L197.769 66.1913L194.051 68.2058L193.73 67.5341L194.761 66.8069L190.238 58.4029L189.036 58.8334L188.636 58.1408L192.255 56.1834L192.655 56.8759L191.624 57.6032L193.581 61.222L195.815 60.0643C195.379 59.1948 195.198 58.31 195.214 57.3109ZM196.662 56.2771C196.546 57.3333 196.878 58.593 197.735 60.077C198.477 61.3632 199.226 62.3163 200.177 62.8222C201.129 63.3281 201.951 63.3811 202.919 62.8879C203.789 62.4519 204.253 61.6563 204.27 60.6572C204.287 59.6582 203.955 58.3985 203.176 56.9354C202.434 55.6492 201.686 54.696 200.812 54.2111C199.938 53.7261 199.038 53.6522 198.169 54.0882C197.299 54.5243 196.778 55.2209 196.662 56.2771Z" fill="#313131"/>
<path d="M212.23 53.4235C212.812 53.7469 213.53 54.19 214.482 54.6959C215.121 55.1182 215.548 55.3997 215.917 55.5822C216.286 55.7648 216.442 55.8066 216.619 55.7704L217.228 55.6827L217.55 56.3543L215.832 57.1484C215.634 57.2626 215.322 57.179 214.874 56.9755C214.427 56.7721 213.866 56.3707 213.091 55.8286C212.259 55.1876 211.542 54.7444 211.037 54.442C210.533 54.1396 210.122 54.1131 209.846 54.2064L208.976 54.6425L210.85 58.5734L212.131 58.1639L212.452 58.8355L208.62 60.6522L208.299 59.9805L209.387 59.3522L205.338 50.7407L204.157 51.0931L203.835 50.4214L207.568 48.6619L207.89 49.3335L206.781 50.0399L208.634 54.0489L209.8 53.4414L210.733 48.0881L209.452 48.4976L209.13 47.826L212.566 46.2378L212.888 46.9095L211.878 47.5587L210.747 53.0263C211.08 53.0319 211.627 53.1782 212.23 53.4235Z" fill="#313131"/>
<path d="M219.789 54.8636C218.91 54.7116 218.192 54.2685 217.537 53.5912C216.882 52.914 216.269 52.0807 215.818 50.9562C215.367 49.8316 215.129 48.8479 215.223 47.8697C215.318 46.8916 215.548 46.0332 216.09 45.2586C216.632 44.4839 217.367 43.928 218.215 43.57C219.715 42.9681 220.969 42.9696 222.155 43.5382C223.34 44.1068 224.281 45.2788 224.94 46.8771C225.391 48.0016 225.608 49.0634 225.513 50.0415C225.419 51.0197 225.168 51.956 224.626 52.7307C224.084 53.5054 223.349 54.0613 222.501 54.4193C221.532 54.9125 220.668 55.0155 219.789 54.8636ZM216.833 46.5447C216.639 47.58 216.893 48.8188 217.473 50.3961C218.096 51.8175 218.823 52.8487 219.676 53.4117C220.508 54.0527 221.408 54.1266 222.356 53.7115C223.282 53.3743 223.824 52.5997 224.018 51.5644C224.212 50.5291 223.979 49.2123 223.3 47.6921C222.677 46.2707 221.95 45.2396 221.097 44.6766C220.244 44.1135 219.365 43.9616 218.417 44.3767C217.548 44.8128 217.027 45.5095 216.833 46.5447Z" fill="#313131"/>
<path d="M225.831 41.6796L224.592 41.9331L224.369 41.2044L226.321 40.473C226.675 40.4006 227.071 40.1721 227.545 39.9645C228.018 39.7569 228.315 39.5856 228.57 39.5703C229.872 39.0827 230.913 38.9434 231.615 39.1316C232.317 39.3198 232.858 39.7991 233.138 40.6268C233.382 41.2776 233.448 41.9645 233.203 42.5679C232.958 43.1712 232.556 43.7327 231.963 44.0754C232.889 43.7383 233.654 43.6924 234.357 43.8805C235.059 44.0687 235.579 44.6261 235.859 45.4538C236.196 46.3805 236.179 47.3795 235.715 48.1751C235.23 49.0487 234.199 49.776 232.621 50.3569C232.246 50.5074 231.971 50.6007 231.617 50.6731C230.888 50.896 230.414 51.1036 230.237 51.1398L228.285 51.8712L228.041 51.2204L229.207 50.613L225.831 41.6796ZM229.62 44.7022L230.448 44.4222C231.099 44.1784 231.536 43.7939 231.761 43.2686C231.985 42.7433 231.975 42.1553 231.654 41.4837C231.41 40.8329 231.025 40.3954 230.578 40.1919C230.131 39.9884 229.444 40.0552 228.616 40.3352C228.241 40.4857 227.945 40.6571 227.57 40.8075L227.273 40.9789L228.793 44.9822C228.892 44.9251 229.168 44.8318 229.62 44.7022ZM232.221 49.6644C233.148 49.3272 233.784 48.8285 234.107 48.246C234.43 47.6636 234.42 47.0756 234.14 46.2479C233.84 45.4982 233.455 45.0607 233.008 44.8572C232.482 44.6328 231.796 44.6996 230.947 45.0577C229.942 45.3739 229.37 45.6386 229.094 45.7319L230.707 50.0112C230.92 50.1519 231.472 49.9653 232.221 49.6644Z" fill="#313131"/>
<path d="M248.43 33.1833L248.652 33.912L247.486 34.5194L250.233 43.6186L251.649 43.3289L251.872 44.0576L247.775 45.3016L247.552 44.5728L248.698 44.0434L245.893 34.8454L241.167 36.2551L243.971 45.4531L245.387 45.1634L245.61 45.8922L241.513 47.1362L241.29 46.4074L242.435 45.878L239.688 36.7789L238.372 37.0114L238.149 36.2827L248.43 33.1833Z" fill="#313131"/>
<path d="M254.834 42.677C253.997 42.369 253.3 41.8478 252.744 41.1135C252.189 40.3791 251.773 39.4316 251.499 38.2708C251.225 37.1101 251.163 36.0901 251.357 35.0549C251.53 34.0976 251.994 33.302 252.593 32.6263C253.193 31.9505 253.984 31.4935 254.968 31.2554C256.503 30.8305 257.794 31.009 258.917 31.8117C259.962 32.5935 260.725 33.8016 261.165 35.5922C261.44 36.7529 261.48 37.8509 261.307 38.8081C261.113 39.8434 260.649 40.639 259.972 41.2938C259.295 41.9487 258.503 42.4057 257.598 42.6647C256.515 42.9601 255.672 42.9851 254.834 42.677ZM253.081 33.9277C252.731 34.9212 252.808 36.1962 253.212 37.8098C253.558 39.3244 254.187 40.4127 254.92 41.1109C255.652 41.809 256.589 42.0599 257.495 41.8008C258.478 41.5626 259.057 40.9649 259.427 39.8934C259.777 38.9 259.722 37.547 259.318 35.9334C258.971 34.4187 258.342 33.3304 257.61 32.6323C256.877 31.9341 256.018 31.7041 255.035 31.9423C254.087 32.3575 253.41 33.0123 253.081 33.9277Z" fill="#313131"/>
<path d="M266.269 36.2071C266.382 37.659 266.266 38.7152 265.958 39.5526C265.854 39.9428 265.593 40.2911 265.374 40.4833C265.156 40.6756 264.859 40.847 264.505 40.9194C264.052 41.049 263.641 41.0224 263.464 41.0587L263.111 39.877C263.366 39.8617 263.72 39.7893 264.251 39.6807C264.428 39.6444 264.605 39.6082 264.725 39.4731C264.845 39.3379 264.965 39.2028 265.027 38.9687C265.56 37.606 265.386 35.1341 264.625 31.4178L264.351 30.2571L262.545 30.4423L262.4 29.7344L271.072 27.96L271.216 28.6678L269.837 29.1345L271.756 38.5136L273.307 38.3438L273.452 39.0516L268.851 39.9932L268.706 39.2853L270.262 38.7824L268.343 29.4033L265.335 30.0189L265.645 31.3566C265.909 33.1834 266.136 34.8332 266.269 36.2071Z" fill="#313131"/>
<path d="M274.162 28.2863L272.908 28.2848L272.784 27.499L280.487 26.2177L281.113 28.56L280.25 28.6631L279.549 27.2209L275.817 27.7263L276.509 32.0097L279.065 31.5236L279.066 30.2696L279.93 30.1665L280.499 33.664L279.635 33.7671L279.225 32.4865L276.69 32.8945L277.398 37.4329L281.645 36.5638L282.111 34.5141L283.068 34.687L283.101 37.3721L274.711 38.7202L274.566 38.0123L275.826 37.6808L274.162 28.2863Z" fill="#313131"/>
<path d="M286.814 26.3241L284.202 26.7112L284.089 29.9425L283.048 30.0818L282.803 26.0019L292.306 24.8685L292.983 28.8968L292.041 28.979L291.134 25.8089L288.485 26.0191L289.676 35.6211L291.872 35.5405L291.917 36.3054L286.125 37.0114L286.079 36.2464L288.026 35.8481L286.814 26.3241Z" fill="#313131"/>
<path d="M299.36 30.689L298.595 30.7349C298.376 30.9272 298.116 31.2755 297.912 31.7228C297.688 32.2481 297.443 32.8514 297.234 33.6317C296.946 34.3911 296.8 34.9373 296.618 35.3065C296.435 35.6757 296.294 35.8889 296.117 35.9251L294.056 36.1256L294.01 35.3606L294.562 35.1739C294.739 35.1377 294.859 35.0026 295.021 34.7114C295.182 34.4202 295.386 33.9729 295.631 33.3696C295.897 32.6882 296.221 32.1058 296.424 31.6586C296.706 31.2322 296.966 30.8839 297.263 30.7125C296.54 30.6024 295.958 30.279 295.516 29.7425C295.074 29.2061 294.83 28.5553 294.784 27.7903C294.687 26.5934 295.016 25.678 295.651 25.1792C296.386 24.6233 297.39 24.3071 298.743 24.2514C298.998 24.2361 299.43 24.1846 299.919 24.232C300.429 24.2014 300.762 24.207 301.017 24.1917L303.234 24.0331L303.28 24.798L302.042 25.0515L302.785 34.4501L304.195 34.4934L304.241 35.2584L299.708 35.6328L299.662 34.8678L301.156 34.599L300.833 30.4982L299.36 30.689ZM299.986 24.919C299.497 24.8716 299.143 24.944 298.732 24.9175C297.967 24.9634 297.317 25.2072 296.978 25.5346C296.54 25.9192 296.373 26.5434 296.476 27.4073C296.501 28.2503 296.844 28.8439 297.228 29.2815C297.712 29.6619 298.336 29.8292 299.101 29.7833C299.944 29.7583 300.475 29.6496 300.73 29.6343L300.397 24.9455L299.986 24.919Z" fill="#313131"/>
<path d="M308.791 24.5187L306.142 24.7289L305.696 27.9546L304.676 28.0158L304.785 23.8634L314.334 23.495L314.657 27.5958L313.736 27.5999L313.084 24.4145L310.399 24.4478L310.726 34.1528L312.88 34.2282L312.926 34.9932L307.103 35.1892L307.057 34.4242L309.04 34.2028L308.791 24.5187Z" fill="#313131"/>
<path d="M321.794 34.3588C321.019 33.8167 320.442 33.1603 320.006 32.2908C319.57 31.4213 319.431 30.3804 319.412 29.2044C319.47 28.0493 319.742 27.0349 320.227 26.1613C320.712 25.2876 321.389 24.6328 322.259 24.1967C323.128 23.7607 324.034 23.5016 325.111 23.5393C325.855 23.5714 326.833 23.6663 327.926 23.959L328.394 24.0844L328.151 26.8628L327.152 26.846L326.832 24.9203C326.697 24.8005 326.483 24.6597 326.093 24.5552C325.703 24.4506 325.292 24.4241 324.803 24.3767C324.137 24.3655 323.585 24.5522 323.07 24.9158C322.554 25.2794 322.153 25.8409 321.808 26.5014C321.521 27.2608 321.312 28.0411 321.275 29.1181C321.258 30.1172 321.361 30.9811 321.584 31.7099C321.806 32.4387 322.206 33.1312 322.747 33.6106C323.288 34.09 323.891 34.3353 324.635 34.3674C325.223 34.3577 325.556 34.3633 325.91 34.2908C326.186 34.1975 326.462 34.1042 326.681 33.9119L327.333 32.4141L328.29 32.5869L327.882 34.7355C327.627 34.7508 327.351 34.8441 326.919 34.8957C326.565 34.9681 326.19 35.1185 325.857 35.1129C325.503 35.1854 325.092 35.1589 324.582 35.1895C323.505 35.1518 322.569 34.9009 321.794 34.3588Z" fill="#313131"/>
<path d="M334.607 23.9928L334.574 24.7369L333.044 24.8287L332.484 32.5398L333.886 30.741L338.674 25.668L338.7 25.257L337.353 24.9796L337.385 24.2355L341.574 24.5215L341.541 25.2656L340.344 25.363L339.714 34.8952L340.983 35.1517L340.951 35.8958L336.685 35.5889L336.717 34.8448L338.07 34.7892L338.573 26.9792L337.291 28.6428L332.404 33.7729L332.336 34.34L333.782 34.5603L333.75 35.3044L329.405 34.9766L329.438 34.2325L330.713 34.156L331.343 24.6238L330.152 24.3882L330.184 23.6441L334.607 23.9928Z" fill="#313131"/>
<path d="M351.256 25.5268L350.934 29.5383L349.878 29.4226L349.793 26.3055L346.411 25.8176L345.328 35.4793L347.965 35.9352L347.855 36.6583L341.851 35.9695L341.961 35.2463L343.626 35.2743L344.647 25.8467L343.087 25.4285L343.197 24.7054L351.256 25.5268Z" fill="#313131"/>
<path d="M353.841 26.805L352.691 26.4134L352.801 25.6902L356.906 26.2883L356.796 27.0115L355.464 26.9891L354.866 31.094L360.162 31.9277L360.76 27.8228L359.533 27.4103L359.643 26.6871L363.748 27.2852L363.637 28.0084L362.383 28.0069L360.952 37.408L362.122 37.7216L362.012 38.4448L357.907 37.8467L358.017 37.1235L359.271 37.125L359.953 32.708L354.657 31.8743L353.975 36.2913L355.301 36.6467L355.191 37.3699L351.008 36.7509L351.118 36.0277L352.373 36.0292L353.841 26.805Z" fill="#313131"/>
<path d="M369.293 28.4366L370.953 28.7976L372.49 39.9143L373.405 40.2432L373.295 40.9664L369.331 40.1551L369.441 39.4319L370.753 39.5324L370.48 37.1176L366.125 36.2018L364.973 38.3182L366.2 38.7308L366.09 39.4539L362.516 38.7472L362.626 38.024L363.625 38.0408L369.293 28.4366ZM369.779 30.9921L369.646 29.6182L369.056 30.882L366.589 35.4062L370.398 36.1756L369.779 30.9921Z" fill="#313131"/>
<path d="M378.071 37.8135C377.56 39.0982 376.955 40.107 376.377 40.7047C376.038 41.0321 375.741 41.2035 375.465 41.2968C375.189 41.3901 374.856 41.3845 374.466 41.28C373.998 41.1545 373.608 41.05 373.395 40.9093L373.552 39.697C373.786 39.7597 374.177 39.8643 374.645 39.9897C374.801 40.0315 374.978 39.9953 375.155 39.9591C375.332 39.9229 375.452 39.7877 375.67 39.5955C376.686 38.6132 377.724 36.2989 378.629 32.6106L378.943 31.4402L377.304 31.0011L377.513 30.2208L386.138 32.3646L385.929 33.1449L384.462 33.0027L382.151 42.2519L383.592 42.8052L383.403 43.5074L378.779 42.3519L378.967 41.6496L380.569 41.9117L382.88 32.6625L379.816 31.9252L379.461 33.2517C379.1 34.9112 378.583 36.5288 378.071 37.8135Z" fill="#313131"/>
<path d="M391.267 38.5057C392.416 38.8974 393.269 39.4604 393.747 40.1738C394.225 40.8873 394.307 41.8293 393.957 42.8227C393.566 43.9722 392.945 44.726 392.097 45.084C391.149 45.4992 390.15 45.4824 388.98 45.1688C388.824 45.127 388.668 45.0851 388.512 45.0433C388.356 45.0015 388.199 44.9597 387.986 44.8189C387.461 44.5946 386.915 44.4482 386.468 44.2447L384.46 43.6231L384.648 42.9208L385.917 43.1773L388.696 34.0536L387.589 33.5059L387.777 32.8036L391.949 34.0887L391.76 34.791L390.236 34.5498L389.16 37.9412L391.267 38.5057ZM388.117 44.0177C388.273 44.0596 388.565 44.2212 388.877 44.3048C389.735 44.5348 390.401 44.546 390.995 44.2033C391.588 43.8606 391.99 43.2991 392.22 42.4408C392.45 41.5825 392.44 40.9944 392.097 40.4008C391.812 39.9061 391.25 39.5048 390.413 39.1968L388.93 38.7995L387.436 43.7516C387.748 43.8352 387.961 43.9759 388.117 44.0177ZM401.775 37.0561L401.586 37.7584L400.14 37.5381L397.361 46.6618L398.703 47.2722L398.515 47.9745L394.187 46.6476L394.375 45.9454L395.8 46.2437L398.58 37.1199L397.238 36.5095L397.426 35.8072L401.775 37.0561Z" fill="#313131"/>
<path d="M408.088 40.3367L407.001 39.711L407.267 39.0297L411.142 40.4861L410.876 41.1674L409.607 40.9109L408.15 44.7859L413.232 46.7329L414.688 42.8579L413.601 42.2322L413.868 41.5509L417.742 43.0073L417.476 43.6887L416.285 43.4531L412.881 52.4096L413.989 52.9573L413.723 53.6386L409.848 52.1822L410.114 51.5008L411.363 51.8353L412.981 47.6692L407.899 45.7222L406.281 49.8883L407.446 50.535L407.18 51.2163L403.248 49.6609L403.514 48.9796L404.762 49.3141L408.088 40.3367Z" fill="#313131"/>
<path d="M422.86 45.1313L424.436 45.8044L423.6 57.038L424.375 57.58L424.109 58.2614L420.375 56.5918L420.641 55.9104L421.868 56.323L422.184 53.8985L418.059 52.1243L416.501 53.8813L417.666 54.5279L417.4 55.2093L414.035 53.7222L414.301 53.0409L415.238 53.2918L422.86 45.1313ZM422.815 47.7955L423.015 46.4272L422.134 47.5293L418.757 51.3915L422.356 52.9413L422.815 47.7955Z" fill="#313131"/>
<path d="M434.118 51.4933L432.704 50.5289L433.048 49.8685L436.641 51.7513L435.405 58.8631L434.96 60.8347L436.279 59.348L441.343 54.1817L444.936 56.0645L444.592 56.725L442.995 56.1299L439.67 65.1073L440.793 65.9099L440.448 66.5704L436.564 64.5259L436.908 63.8655L438.193 64.377L440.75 57.9536L441.836 55.1502L440.221 56.8082L434.282 62.7436L433.408 62.2586L434.635 54.5588L435.174 51.609L433.584 54.11L429.841 59.9648L431.12 60.8093L430.776 61.4697L427.26 59.6078L427.605 58.9474L428.811 59.438L434.118 51.4933Z" fill="#313131"/>
<path d="M450.022 58.9325L451.457 59.8188L449.331 70.8739L450.105 71.416L449.761 72.0764L446.288 70.0585L446.632 69.398L447.838 69.8886L448.367 67.6049L444.545 65.3264L442.774 66.9425L443.819 67.7243L443.474 68.3848L440.37 66.5494L440.714 65.889L441.63 66.2179L450.022 58.9325ZM449.665 61.5131L450.02 60.1866L449.004 61.1688L445.144 64.6506L448.54 66.6476L449.665 61.5131Z" fill="#313131"/>
<path d="M456.812 64.1807L455.944 63.3627L456.366 62.7232L458.071 63.8492C458.362 64.0109 458.711 64.2715 459.002 64.4331C459.506 64.7355 459.954 64.939 460.38 65.2205C461.581 66.0441 462.371 66.8412 462.573 67.648C462.775 68.4548 462.623 69.334 462.06 70.1867C461.617 70.9043 461.08 71.346 460.409 71.6678C459.737 71.9896 459.05 72.0564 458.327 71.9463C457.604 71.8361 456.844 71.549 456.127 71.1059C455.836 70.9442 455.622 70.8035 455.352 70.5638C455.061 70.4021 454.926 70.2823 454.869 70.1833L453.018 73.0327L454.682 74.3147L454.259 74.9543L450.053 72.2382L450.475 71.5986L451.661 72.1672L456.812 64.1807ZM456.549 70.4663C457.267 70.9095 457.891 71.0768 458.599 70.9319C459.307 70.787 459.942 70.2883 460.547 69.2795C460.99 68.5619 461.178 67.8597 460.991 67.3079C460.805 66.7561 460.363 66.2196 459.588 65.6775C459.297 65.5158 459.006 65.3542 458.637 65.1716C458.424 65.0308 458.268 64.989 458.268 64.989L455.291 69.5438C455.561 69.7835 455.91 70.0441 456.549 70.4663Z" fill="#313131"/>
<path d="M460.432 78.4476C460.074 77.599 459.992 76.6571 460.144 75.7779C460.296 74.8986 460.744 73.848 461.427 72.8602C462.089 71.9503 462.865 71.2384 463.735 70.8023C464.604 70.3663 465.567 70.2061 466.545 70.3009C467.524 70.3958 468.439 70.7247 469.271 71.3657C469.91 71.788 470.643 72.4862 471.355 73.2623L471.761 73.6219L470.02 75.748L469.167 75.185L469.981 73.396C469.945 73.219 469.753 73.0002 469.581 72.7034C469.41 72.4066 468.984 72.1251 468.557 71.8436C467.996 71.4423 467.45 71.2959 466.784 71.2847C466.118 71.2735 465.467 71.5173 464.852 71.938C464.238 72.3588 463.56 73.0136 463.018 73.7883C462.476 74.563 462.09 75.3795 461.803 76.1389C461.594 76.9192 461.484 77.6423 461.707 78.3711C461.93 79.0999 462.293 79.6154 462.933 80.0377C463.359 80.3192 463.708 80.5798 464.02 80.6634C464.332 80.7471 464.566 80.8098 464.821 80.7945L466.227 79.9168L466.96 80.6149L465.366 82.1949C465.152 82.0542 464.84 81.9705 464.471 81.788C464.081 81.6834 463.79 81.5217 463.399 81.4172C463.108 81.2556 462.739 81.073 462.313 80.7915C461.502 80.0724 460.79 79.2962 460.432 78.4476Z" fill="#313131"/>
<path d="M482.814 81.6855L482.314 82.3041L481.034 81.4596L476.172 87.4327L478.359 86.764L485.161 85.4089L485.422 85.0605L484.518 84.0656L485.018 83.4469L488.303 86.1671L487.803 86.7858L486.716 86.16L480.635 93.5626L481.56 94.4796L481.081 95.0202L477.795 92.3L478.275 91.7594L479.419 92.484L484.38 86.4538L482.37 87.0863L475.391 88.4777L475.031 88.8831L476.013 89.899L475.534 90.4396L472.17 87.6985L472.65 87.1579L473.716 87.8616L479.797 80.459L478.95 79.563L479.45 78.9444L482.814 81.6855Z" fill="#313131"/>
<path d="M490.595 88.5374C491.043 88.7409 491.313 88.9806 491.604 89.1423C491.895 89.3039 492.166 89.5436 492.379 89.6844C493.325 90.5233 493.938 91.3566 494.14 92.1634C494.342 92.9702 494.154 93.6724 493.575 94.2701C492.997 94.8679 492.403 95.2106 491.659 95.1785C490.972 95.2453 490.27 95.0571 489.631 94.6349C490.286 95.3121 490.685 96.0047 490.752 96.6916C490.819 97.3786 490.553 98.0599 490.073 98.6005C489.354 99.4114 488.485 99.8475 487.585 99.7736C486.664 99.7777 485.712 99.2718 484.553 98.2921C484.069 97.9117 483.763 97.495 483.456 97.0784C483.15 96.6617 482.978 96.3649 482.786 96.1461C482.672 95.9482 482.558 95.7504 482.501 95.6514L484.49 93.843L485.031 94.3223L484.061 96.0696C484.248 96.6214 484.689 97.1579 485.287 97.7362C485.828 98.2156 486.275 98.419 486.884 98.3313C487.415 98.2227 487.988 97.958 488.488 97.3394C488.946 96.8768 489.093 96.3306 489.161 95.7635C489.229 95.1964 488.809 94.5819 488.133 93.9826L487.322 93.2636L487.9 92.6658L488.576 93.2651C488.924 93.5257 489.273 93.7863 489.663 93.8908C490.053 93.9953 490.464 94.0218 490.917 93.8923C491.37 93.7628 491.687 93.5134 492.047 93.1079C492.526 92.5673 492.73 92.12 492.621 91.5892C492.591 91.0792 492.284 90.6625 491.743 90.1831C491.416 89.8445 491.125 89.6829 490.756 89.5003C490.464 89.3386 490.209 89.3539 490.032 89.3901L488.881 90.2526L488.128 89.6324L489.628 87.7766C489.878 88.0943 490.169 88.2559 490.595 88.5374Z" fill="#313131"/>
<path d="M499.742 98.0969L499.015 97.0658L499.572 96.5461L501.017 98.0204C501.287 98.2601 501.615 98.5987 502.02 98.9583C502.426 99.3178 502.696 99.5575 502.831 99.6773C503.813 100.693 504.427 101.526 504.472 102.291C504.617 102.999 504.351 103.681 503.773 104.278C503.215 104.798 502.643 105.063 502.034 105.151C501.425 105.238 500.723 105.05 500.083 104.628C500.816 105.326 501.216 106.019 501.262 106.784C501.308 107.548 501.062 108.152 500.484 108.75C499.786 109.482 498.859 109.82 497.959 109.746C496.981 109.651 495.894 109.025 494.699 107.868C494.428 107.629 494.179 107.311 493.987 107.092C493.467 106.535 493.14 106.196 493.004 106.076L491.56 104.602L492.117 104.082L493.162 104.864L499.742 98.0969ZM495.199 107.25C495.932 107.948 496.571 108.37 497.237 108.381C497.903 108.393 498.476 108.128 499.034 107.608C499.591 107.089 499.836 106.485 499.806 105.975C499.775 105.465 499.432 104.872 498.777 104.194C498.045 103.496 497.582 103.038 497.39 102.819L494.18 106.057C494.217 106.234 494.622 106.593 495.199 107.25ZM498.665 102.742L499.262 103.321C499.803 103.8 500.307 104.103 500.817 104.072C501.327 104.041 501.9 103.777 502.379 103.236C502.859 102.695 503.14 102.269 503.11 101.759C503.079 101.249 502.736 100.655 502.139 100.077C501.868 99.8375 501.598 99.5978 501.25 99.3372L500.979 99.0975L497.989 102.143C498.145 102.185 498.337 102.404 498.665 102.742Z" fill="#313131"/>
<path d="M509.842 106.908L511.017 108.143L505.775 118.028L506.31 118.841L505.753 119.361L503.04 116.376L503.597 115.856L504.543 116.695L505.774 114.599L502.734 111.276L500.542 112.277L501.347 113.33L500.79 113.849L498.327 111.182L498.884 110.662L499.638 111.282L509.842 106.908ZM508.627 109.259L509.372 108.037L508.107 108.701L503.426 110.876L506.082 113.762L508.627 109.259Z" fill="#313131"/>
<path d="M507.744 120.982C507.584 120.019 507.736 119.14 508.143 118.245C508.55 117.35 509.191 116.519 510.144 115.77C511.019 115.001 511.967 114.586 512.95 114.348C513.934 114.11 514.912 114.205 515.828 114.534C516.743 114.863 517.518 115.405 518.209 116.259C518.708 116.894 519.243 117.707 519.736 118.675L519.943 119.149L517.74 120.817L517.106 120.061L518.367 118.476C518.331 118.299 518.316 118.044 518.145 117.747C517.973 117.45 517.745 117.054 517.417 116.716C516.976 116.179 516.471 115.877 515.847 115.71C515.223 115.542 514.536 115.609 513.807 115.832C513.078 116.055 512.287 116.512 511.532 117.146C510.776 117.78 510.177 118.456 509.755 119.095C509.312 119.813 509.123 120.515 509.112 121.181C509.101 121.847 509.345 122.498 509.844 123.133C510.228 123.571 510.498 123.81 510.79 123.972C511.081 124.134 511.294 124.274 511.549 124.259L513.106 123.756L513.641 124.569L511.74 125.732C511.605 125.612 511.334 125.372 510.986 125.112C510.617 124.929 510.347 124.69 510.076 124.45C509.806 124.21 509.458 123.95 509.151 123.533C508.34 122.814 507.904 121.944 507.744 120.982Z" fill="#313131"/>
<path d="M523.363 126.672C524.305 126.59 525.106 126.721 525.866 127.008C526.625 127.295 527.301 127.894 527.8 128.53C528.413 129.363 528.713 130.113 528.817 130.977C528.842 131.82 528.71 132.621 528.246 133.416C527.782 134.212 527.162 134.966 526.23 135.636C525.277 136.384 524.23 136.856 523.247 137.095C522.263 137.333 521.363 137.259 520.447 136.93C519.532 136.601 518.913 136.101 518.357 135.366C517.744 134.533 517.386 133.684 517.283 132.821C517.18 131.957 517.389 131.176 517.775 130.36C518.239 129.564 518.859 128.811 519.714 128.119L518.238 126.135L514.665 128.858L515.351 130.045L514.736 130.466L512.206 127.111L512.821 126.691L513.746 127.608L521.308 121.856L520.68 120.768L521.315 120.269L523.788 123.524L523.153 124.023L522.228 123.106L518.973 125.579L520.448 127.564C521.573 127.112 522.478 126.853 523.363 126.672ZM524.694 127.948C523.674 128.01 522.45 128.518 521.08 129.573C519.909 130.513 519.091 131.381 518.741 132.375C518.391 133.368 518.494 134.232 519.107 135.065C519.741 135.821 520.479 136.186 521.52 136.047C522.54 135.985 523.707 135.378 525.055 134.401C526.227 133.461 527.045 132.593 527.395 131.599C527.745 130.606 527.642 129.742 527.086 129.008C526.53 128.273 525.714 127.887 524.694 127.948Z" fill="#313131"/>
<path d="M529.89 142.889C529.723 143.513 529.337 144.33 528.909 145.302C528.564 145.963 528.418 146.509 528.256 146.8C528.173 147.112 528.089 147.425 528.146 147.523L528.333 148.075L527.718 148.496L526.628 146.949C526.513 146.751 526.519 146.418 526.722 145.971C526.926 145.524 527.192 144.842 527.578 144.026C528.084 143.074 528.371 142.315 528.595 141.79C528.82 141.264 528.768 140.832 528.675 140.556L528.14 139.744L524.552 142.212L525.138 143.456L524.524 143.877L522.192 140.408L522.806 139.987L523.632 140.962L531.501 135.627L530.972 134.481L531.586 134.061L533.861 137.43L533.247 137.851L532.421 136.877L528.755 139.323L529.461 140.433L534.867 140.543L534.26 139.377L534.874 138.956L536.957 142.107L536.343 142.527L535.496 141.631L529.954 141.401C530.105 141.776 530.057 142.265 529.89 142.889Z" fill="#313131"/>
<path d="M529.584 150.585C529.637 149.762 529.867 148.904 530.487 148.15C531.029 147.376 531.805 146.664 532.795 146.093C533.805 145.443 534.81 145.127 535.752 145.045C536.772 144.984 537.651 145.136 538.467 145.522C539.284 145.908 539.96 146.507 540.474 147.397C541.273 148.783 541.527 150.021 541.093 151.327C540.681 152.554 539.722 153.636 538.217 154.57C537.207 155.22 536.202 155.536 535.161 155.675C534.141 155.736 533.262 155.584 532.368 155.177C531.551 154.791 530.896 154.114 530.361 153.302C529.79 152.312 529.609 151.428 529.584 150.585ZM537.415 146.327C536.416 146.31 535.136 146.72 533.73 147.597C532.423 148.418 531.526 149.265 531.099 150.238C530.593 151.189 530.696 152.053 531.21 152.944C531.745 153.756 532.54 154.22 533.539 154.237C534.617 154.275 535.819 153.844 537.225 152.967C538.532 152.146 539.428 151.299 539.856 150.326C540.263 149.432 540.259 148.511 539.745 147.62C539.21 146.808 538.492 146.365 537.415 146.327Z" fill="#313131"/>
<path d="M543.566 154.582L543.136 153.379L543.829 152.98L544.857 154.76C545.028 155.057 545.257 155.453 545.563 155.87C545.87 156.286 546.041 156.583 546.155 156.781C546.82 158.046 547.157 158.973 547.026 159.774C546.895 160.575 546.514 161.059 545.801 161.537C545.207 161.879 544.499 162.024 543.854 161.935C543.209 161.846 542.627 161.522 542.128 160.887C542.642 161.777 542.787 162.485 542.656 163.286C542.546 164.01 542.066 164.55 541.374 164.95C540.483 165.464 539.541 165.546 538.626 165.217C537.711 164.888 536.863 163.992 536.007 162.508C535.835 162.212 535.685 161.837 535.513 161.54C535.114 160.847 534.906 160.374 534.849 160.275L533.821 158.494L534.492 158.172L535.22 159.203L543.566 154.582ZM536.621 162.088C537.135 162.978 537.655 163.535 538.279 163.703C538.903 163.87 539.512 163.782 540.205 163.382C540.897 162.983 541.278 162.499 541.403 162.031C541.529 161.563 541.384 160.855 540.927 160.063C540.413 159.173 540.07 158.579 539.956 158.382L535.941 160.567C536.014 160.921 536.221 161.395 536.621 162.088ZM541.204 158.716L541.583 159.487C541.926 160.08 542.409 160.461 542.878 160.586C543.424 160.732 543.955 160.624 544.647 160.224C545.241 159.881 545.6 159.476 545.726 159.008C545.851 158.539 545.686 157.91 545.229 157.118C545.057 156.821 544.808 156.504 544.657 156.129L544.486 155.832L540.747 157.925C540.862 158.122 540.976 158.32 541.204 158.716Z" fill="#313131"/>
<path d="M555.52 175.515L554.848 175.837L554.142 174.727L545.588 178.875L546.054 180.254L545.383 180.576L543.509 176.645L544.18 176.323L544.887 177.433L553.519 173.306L551.36 168.88L542.707 173.085L543.173 174.465L542.502 174.786L540.607 170.933L541.279 170.612L541.928 171.622L550.482 167.474L550.073 166.194L550.744 165.872L555.52 175.515Z" fill="#313131"/>
<path d="M547.06 183.367C547.212 182.488 547.655 181.77 548.255 181.095C548.932 180.44 549.765 179.827 550.812 179.355C551.858 178.882 552.92 178.665 553.898 178.76C554.876 178.855 555.735 179.085 556.509 179.627C557.284 180.169 557.84 180.903 558.198 181.752C558.8 183.251 558.876 184.526 558.23 185.691C557.661 186.877 556.489 187.817 554.891 188.476C553.766 188.928 552.704 189.145 551.726 189.05C550.748 188.955 549.812 188.704 549.037 188.162C548.262 187.62 547.706 186.886 547.27 186.016C547.011 185.11 546.851 184.148 547.06 183.367ZM555.4 180.333C554.365 180.139 553.126 180.393 551.528 181.052C550.106 181.675 549.075 182.402 548.512 183.255C547.949 184.107 547.797 184.986 548.212 185.934C548.627 186.882 549.324 187.403 550.359 187.597C551.395 187.79 552.711 187.558 554.232 186.878C555.653 186.255 556.684 185.528 557.247 184.675C557.81 183.822 557.884 182.922 557.547 181.996C557.132 181.048 556.435 180.527 555.4 180.333Z" fill="#313131"/>
<path d="M555.196 193.576C553.781 193.866 552.662 193.984 551.861 193.853C551.47 193.749 551.08 193.644 550.888 193.425C550.618 193.186 550.425 192.967 550.275 192.592C550.067 192.118 549.995 191.764 549.98 191.509L551.125 190.98C551.14 191.235 551.291 191.61 551.498 192.084C551.535 192.261 551.67 192.38 551.805 192.5C551.94 192.62 552.096 192.662 552.33 192.725C553.756 193.023 556.233 192.516 559.685 191.183L560.809 190.731L560.348 189.019L561.098 188.718L564.231 197.001L563.481 197.301L562.817 196.036L553.883 199.413L554.251 200.85L553.522 201.073L551.873 196.616L552.602 196.393L553.302 197.836L562.236 194.459L561.167 191.58L559.866 192.068C558.148 192.862 556.612 193.286 555.196 193.576Z" fill="#313131"/>
<path d="M564.295 200.196L564.041 198.957L564.77 198.734L567.212 206.163L565.041 207.086L564.761 206.258L566.011 205.339L564.897 201.695L560.779 203.017L561.64 205.422L562.936 205.268L563.216 206.095L559.827 207.194L559.547 206.367L560.713 205.759L559.951 203.297L555.636 204.733L557.135 208.815L559.268 208.968L559.272 209.889L556.582 210.255L553.896 202.176L554.625 201.953L555.154 203.099L564.295 200.196Z" fill="#313131"/>
<path d="M568.224 212.372L567.384 209.889L564.106 210.265L563.867 209.281L567.86 208.427L570.487 217.661L566.546 218.947L566.287 218.041L569.25 216.661L568.607 214.063L559.295 216.67L559.73 218.793L559.001 219.016L557.41 213.405L558.139 213.182L558.813 215.035L568.224 212.372Z" fill="#313131"/>
<path d="M565.81 225.44L565.665 224.732C565.473 224.514 565.082 224.409 564.536 224.263C563.99 224.116 563.345 224.027 562.544 223.896C561.743 223.765 561.196 223.619 560.806 223.514C560.416 223.41 560.203 223.269 560.167 223.092L559.711 221.046L560.419 220.902L560.684 221.474C560.741 221.573 560.954 221.714 561.245 221.876C561.557 221.959 562.026 222.085 562.629 222.33C563.331 222.518 563.955 222.685 564.502 222.832C564.949 223.035 565.318 223.218 565.588 223.457C565.62 222.713 565.866 222.11 566.246 221.627C566.726 221.086 567.319 220.743 568.027 220.598C569.188 220.324 570.145 220.497 570.743 221.075C571.34 221.654 571.834 222.622 572.144 223.96C572.238 224.236 572.289 224.668 572.341 225.099C572.371 225.609 572.444 225.963 572.537 226.239L573.05 228.384L572.321 228.607L571.812 227.383L562.527 229.578L562.738 230.973L562.051 231.04L560.969 226.652L561.677 226.507L562.143 227.887L566.079 226.934L565.81 225.44ZM571.555 225.223C571.503 224.791 571.452 224.359 571.379 224.006C571.177 223.199 570.892 222.704 570.486 222.345C570.081 221.985 569.415 221.974 568.608 222.176C567.801 222.378 567.208 222.72 566.905 223.225C566.603 223.729 566.513 224.374 566.715 225.181C566.917 225.988 567.026 226.519 567.14 226.717L571.705 225.598L571.555 225.223Z" fill="#313131"/>
<path d="M573.351 233.817L572.787 231.24L569.493 231.361L569.332 230.398L573.397 229.899L575.238 239.257L571.225 240.189L571.065 239.226L574.121 238.121L573.734 235.508L564.219 237.308L564.477 239.468L563.769 239.613L562.631 233.872L563.339 233.727L563.914 235.637L573.351 233.817Z" fill="#313131"/>
<path d="M565.663 248.148C566.049 247.332 566.669 246.578 567.461 246.121C568.273 245.586 569.278 245.27 570.418 245.074C571.537 244.955 572.614 244.993 573.508 245.4C574.424 245.729 575.178 246.349 575.811 247.104C576.445 247.86 576.783 248.786 576.922 249.827C577.046 250.613 577.05 251.534 576.913 252.668L576.866 253.157L574.139 253.347L574 252.306L575.853 251.631C575.973 251.496 576.056 251.184 576.062 250.851C576.068 250.518 576.115 250.029 575.985 249.576C575.898 248.967 575.633 248.395 575.17 247.936C574.708 247.478 574.125 247.154 573.345 246.945C572.565 246.736 571.722 246.761 570.702 246.822C569.739 246.983 568.932 247.185 568.162 247.563C567.391 247.942 566.855 248.384 566.453 248.946C566.052 249.507 565.942 250.23 566.009 250.917C566.117 251.448 566.169 251.88 566.34 252.177C566.433 252.453 566.626 252.672 566.818 252.89L568.379 253.309L568.362 254.308L566.13 254.211C566.093 254.034 566.021 253.68 565.792 253.285C565.642 252.91 565.471 252.613 565.398 252.259C565.326 251.905 565.175 251.53 565.145 251.02C565.161 250.021 565.256 249.043 565.663 248.148Z" fill="#313131"/>
<path d="M577.9 259.289L577.135 259.335L576.788 257.82L569.075 258.513L571.036 259.624L576.849 263.523L577.281 263.472L577.324 262.062L578.089 262.016L578.469 266.215L577.704 266.261L577.43 265.101L567.911 265.979L567.889 267.311L567.124 267.357L566.765 263.079L567.53 263.033L567.84 264.371L575.631 263.699L573.727 262.687L567.857 258.689L567.347 258.719L567.304 260.129L566.539 260.175L566.18 255.898L566.945 255.852L567.198 257.09L576.717 256.212L576.796 254.979L577.561 254.933L577.9 259.289Z" fill="#313131"/>
<path d="M578.951 275.962L574.949 276.228L574.888 275.208L577.974 274.613L577.952 271.262L568.304 271.687L568.26 274.352L567.495 274.398L567.184 268.377L567.949 268.331L568.176 269.98L577.668 269.513L577.774 267.869L578.539 267.823L578.951 275.962Z" fill="#313131"/>
<path d="M578.063 278.651L578.221 277.439L578.965 277.471L578.934 281.644L578.19 281.612L578.035 280.316L573.94 280.306L573.907 285.733L578.003 285.744L578.16 284.531L578.904 284.563L578.894 288.659L578.15 288.627L577.975 287.409L568.431 287.444L568.274 288.656L567.53 288.624L567.54 284.529L568.284 284.561L568.438 285.857L572.867 285.873L572.899 280.445L568.471 280.43L568.292 281.72L567.548 281.688L567.501 277.494L568.245 277.526L568.421 278.744L578.063 278.651Z" fill="#313131"/>
<path d="M578.919 294.185L578.891 295.85L568.157 299.079L567.984 300.036L567.24 300.004L567.406 295.951L568.15 295.983L568.227 297.258L570.569 296.631L570.762 292.167L568.562 291.326L568.383 292.616L567.639 292.584L567.779 288.942L568.523 288.974L568.605 289.916L578.919 294.185ZM576.415 295.103L577.752 294.792L576.369 294.338L571.5 292.532L571.298 296.408L576.415 295.103Z" fill="#313131"/>
<path d="M571.008 304.359C569.603 303.983 568.61 303.633 567.913 303.112C567.565 302.851 567.294 302.611 567.201 302.335C567.03 302.039 567.035 301.706 567.041 301.373C567.088 300.883 567.094 300.55 567.235 300.337L568.489 300.339C568.426 300.573 568.4 300.984 568.352 301.473C568.31 301.629 568.347 301.806 568.461 302.004C568.497 302.181 568.632 302.301 568.845 302.441C569.947 303.322 572.465 303.913 576.144 304.23L577.377 304.309L577.681 302.551L578.425 302.583L577.649 311.407L576.905 311.375L576.871 309.944L567.401 309.079L567.082 310.583L566.338 310.551L566.77 305.816L567.514 305.848L567.507 307.435L576.977 308.3L577.225 305.189L575.836 305.067C573.958 304.898 572.355 304.636 571.008 304.359Z" fill="#313131"/>
<path d="M572.355 317.432C572.198 318.644 571.77 319.617 571.036 320.173C570.379 320.749 569.495 320.931 568.438 320.815C567.304 320.678 566.451 320.115 565.916 319.303C565.381 318.49 565.242 317.449 565.4 316.237C565.442 316.081 565.483 315.925 565.447 315.748C565.411 315.571 565.531 315.436 565.593 315.202C565.74 314.656 565.808 314.089 565.934 313.62L566.243 311.529L566.966 311.639L566.944 312.971L576.444 314.346L576.857 313.118L577.58 313.229L576.919 317.568L576.196 317.457L576.104 315.927L572.566 315.398L572.355 317.432ZM566.416 315.255C566.374 315.411 566.29 315.723 566.285 316.056C566.133 316.935 566.298 317.565 566.74 318.102C567.182 318.638 567.764 318.962 568.664 319.035C569.465 319.166 570.173 319.022 570.611 318.637C571.126 318.273 571.372 317.67 571.524 316.791L571.765 315.267L566.604 314.553C566.52 314.865 566.457 315.099 566.416 315.255ZM575.398 327.614L574.675 327.504L574.718 326.094L565.296 324.74L564.92 326.144L564.196 326.034L564.8 321.596L565.523 321.706L565.48 323.116L574.902 324.47L575.278 323.066L576.001 323.176L575.398 327.614Z" fill="#313131"/>
<path d="M573.09 334.355L573.559 333.226L574.262 333.415L573.33 337.514L572.628 337.326L572.729 336.015L568.707 335.104L567.541 340.395L571.562 341.305L572.031 340.177L572.734 340.365L571.824 344.386L571.121 344.198L571.201 342.965L561.868 340.966L561.476 342.115L560.774 341.927L561.684 337.906L562.387 338.094L562.307 339.327L566.661 340.243L567.828 334.952L563.474 334.037L563.04 335.342L562.338 335.154L563.269 331.055L563.971 331.243L563.892 332.476L573.09 334.355Z" fill="#313131"/>
<path d="M570.599 349.578L570.16 351.216L559.013 352.243L558.606 353.138L557.904 352.95L558.871 349.028L559.573 349.216L559.395 350.506L561.768 350.389L562.84 346.077L560.822 344.867L560.332 346.074L559.629 345.885L560.492 342.353L561.194 342.541L561.1 343.52L570.599 349.578ZM568.008 349.887L569.439 349.852L568.196 349.184L563.812 346.504L562.887 350.271L568.008 349.887Z" fill="#313131"/>
<path d="M566.063 361.827L566.814 360.272L567.496 360.538L566.216 364.376L558.989 364.196L557.011 364.084L558.738 365.132L564.623 369.386L563.344 373.224L562.662 372.958L563.023 371.299L553.571 369.435L553.002 370.621L552.321 370.354L553.705 366.126L554.386 366.392L554.109 367.739L560.882 369.303L563.811 369.921L561.913 368.576L555.139 363.583L555.468 362.667L563.247 362.661L566.322 362.732L563.561 361.491L557.2 358.699L556.569 360.119L555.887 359.853L557.146 356.092L557.827 356.358L557.571 357.628L566.063 361.827Z" fill="#313131"/>
<path d="M561.193 378.753L560.598 380.35L549.416 379.946L548.952 380.742L548.271 380.475L549.784 376.699L550.466 376.966L550.131 378.214L552.519 378.352L554.138 374.186L552.282 372.685L551.635 373.85L550.954 373.584L552.285 370.177L552.966 370.443L552.793 371.401L561.193 378.753ZM558.529 378.708L559.918 378.829L558.795 378.027L554.813 374.785L553.42 378.426L558.529 378.708Z" fill="#313131"/>
<path d="M557.032 386.168L557.715 385.18L558.396 385.447L557.561 387.314C557.379 387.683 557.295 387.995 557.133 388.286C556.909 388.812 556.783 389.28 556.58 389.727C555.969 391.069 555.328 391.901 554.558 392.28C553.808 392.58 552.965 392.605 551.915 392.157C551.176 391.792 550.615 391.39 550.194 390.776C549.773 390.161 549.607 389.531 549.561 388.766C549.516 388.001 549.725 387.221 550.09 386.483C550.251 386.191 550.314 385.957 550.476 385.666C550.637 385.375 550.679 385.219 550.778 385.162L547.704 383.836L546.714 385.662L546.032 385.395L548.088 380.845L548.769 381.111L548.357 382.338L557.032 386.168ZM550.828 386.848C550.463 387.586 550.452 388.252 550.675 388.981C550.898 389.71 551.516 390.21 552.567 390.659C553.383 391.045 554.049 391.056 554.523 390.849C555.096 390.584 555.497 390.022 555.883 389.206C556.045 388.915 556.129 388.602 556.233 388.212C556.296 387.978 556.338 387.822 556.359 387.744L551.34 385.563C551.277 385.797 551.074 386.244 550.828 386.848Z" fill="#313131"/>
<path d="M543.511 391.996C544.302 391.539 545.208 391.28 546.129 391.276C547.128 391.292 548.143 391.564 549.172 392.091C550.202 392.618 551.034 393.259 551.569 394.071C552.182 394.905 552.441 395.81 552.523 396.752C552.605 397.694 552.432 398.651 551.926 399.603C551.561 400.342 551.019 401.116 550.357 402.026L550.076 402.452L547.668 401.138L548.075 400.244L550.026 400.766C550.203 400.73 550.421 400.538 550.661 400.268C550.901 399.997 551.083 399.628 551.365 399.202C551.688 398.619 551.756 398.052 551.612 397.344C551.524 396.735 551.181 396.142 550.682 395.506C550.163 394.949 549.466 394.428 548.514 393.922C547.62 393.515 546.782 393.207 545.981 393.076C545.18 392.945 544.415 392.991 543.743 393.313C543.093 393.556 542.634 394.019 542.269 394.757C542.045 395.283 541.862 395.652 541.857 395.985C541.773 396.297 541.788 396.552 541.882 396.828L542.978 398.042L542.436 398.816L540.616 397.493C540.679 397.258 540.763 396.946 540.867 396.556C540.972 396.166 540.977 395.833 541.082 395.443C541.165 395.131 541.369 394.684 541.572 394.236C542.078 393.285 542.698 392.531 543.511 391.996Z" fill="#313131"/>
<path d="M543.817 414.574L543.178 414.152L543.809 412.732L537.153 408.858L538.119 410.873L540.536 417.459L540.905 417.641L541.786 416.539L542.425 416.961L540.287 420.57L539.648 420.148L540.117 419.019L531.87 414.217L531.088 415.262L530.428 414.917L532.587 411.231L533.247 411.575L532.658 412.839L539.371 416.812L538.363 414.953L535.967 408.29L535.463 407.987L534.561 409.167L533.901 408.823L536.081 405.058L536.741 405.403L536.25 406.609L544.498 411.412L545.258 410.445L545.898 410.867L543.817 414.574Z" fill="#313131"/>
<path d="M538.301 423.299C538.098 423.747 537.993 424.137 537.832 424.428C537.67 424.719 537.508 425.011 537.368 425.224C536.664 426.29 535.966 427.022 535.216 427.323C534.466 427.624 533.722 427.592 533.005 427.149C532.287 426.706 531.944 426.112 531.799 425.404C531.655 424.696 531.744 424.051 532.031 423.292C531.489 424.067 530.853 424.565 530.146 424.71C529.438 424.855 528.793 424.766 528.153 424.344C527.222 423.76 526.666 423.025 526.584 422.083C526.481 421.219 526.774 420.127 527.618 418.848C527.921 418.344 528.28 417.938 528.64 417.533C528.979 417.205 529.296 416.956 529.515 416.764C529.734 416.571 529.854 416.436 529.932 416.457L532.001 418.099L531.579 418.738L529.691 417.982C529.196 418.267 528.737 418.73 528.195 419.504C527.794 420.066 527.726 420.633 527.834 421.164C527.943 421.695 528.405 422.153 529.123 422.596C529.627 422.899 530.174 423.045 530.783 422.957C531.391 422.87 531.928 422.428 532.371 421.71L532.955 420.78L533.673 421.223L533.229 421.94C532.969 422.289 532.864 422.679 532.76 423.069C532.733 423.48 532.785 423.912 532.935 424.287C533.086 424.662 533.413 425 533.839 425.282C534.401 425.683 534.968 425.752 535.421 425.622C535.874 425.492 536.311 425.108 536.713 424.546C536.973 424.198 537.156 423.829 537.161 423.496C537.245 423.184 537.23 422.929 537.116 422.731L536.055 421.694L536.597 420.919L538.636 422.051C538.588 422.54 538.427 422.831 538.301 423.299Z" fill="#313131"/>
<path d="M530.265 433.942L531.182 433.017L531.822 433.439L530.617 435.123C530.378 435.394 530.195 435.763 529.893 436.267C529.611 436.694 529.45 436.985 529.309 437.198C528.506 438.321 527.73 439.033 527.001 439.256C526.272 439.479 525.549 439.369 524.931 438.868C524.369 438.467 523.928 437.931 523.783 437.223C523.617 436.593 523.706 435.948 523.972 435.266C523.43 436.041 522.795 436.54 522.066 436.763C521.358 436.908 520.635 436.797 520.016 436.297C519.185 435.656 518.728 434.865 518.645 433.923C518.563 432.981 518.976 431.753 519.997 430.438C520.237 430.168 520.399 429.876 520.638 429.606C521.139 428.988 521.42 428.561 521.519 428.504L522.723 426.82L523.363 427.242L522.737 428.329L530.265 433.942ZM520.481 430.818C519.84 431.65 519.631 432.43 519.64 433.018C519.65 433.607 520.071 434.221 520.71 434.643C521.329 435.144 521.953 435.311 522.484 435.202C523.015 435.094 523.552 434.652 524.073 433.955C524.714 433.123 525.037 432.541 525.178 432.328L521.461 429.659C521.362 429.716 521.002 430.122 520.481 430.818ZM525.452 433.489L524.931 434.185C524.53 434.747 524.383 435.293 524.492 435.824C524.601 436.355 524.964 436.87 525.526 437.272C526.087 437.673 526.634 437.819 527.144 437.789C527.596 437.659 528.112 437.296 528.654 436.521C528.894 436.251 529.076 435.881 529.238 435.59L529.4 435.299L525.973 432.792C525.932 432.948 525.713 433.14 525.452 433.489Z" fill="#313131"/>
<path d="M523.06 445.225L522.039 446.54L511.402 442.853L510.724 443.508L510.106 443.008L512.628 439.837L513.247 440.337L512.543 441.403L514.743 442.243L517.526 438.724L516.207 436.781L515.29 437.707L514.671 437.206L516.933 434.383L517.551 434.884L517.066 435.757L523.06 445.225ZM520.527 444.379L521.812 444.89L520.949 443.739L518.082 439.458L515.679 442.494L520.527 444.379Z" fill="#313131"/>
<path d="M508.812 445.338C509.718 445.079 510.639 445.075 511.576 445.326C512.512 445.577 513.443 446.16 514.332 446.9C515.221 447.64 515.834 448.474 516.171 449.4C516.508 450.327 516.59 451.269 516.417 452.226C516.244 453.183 515.759 454.057 515.139 454.811C514.639 455.429 513.884 456.063 513.029 456.754L512.613 457.061L510.627 455.107L511.325 454.374L513.073 455.344C513.25 455.308 513.525 455.215 513.843 454.965C514.14 454.794 514.479 454.467 514.76 454.04C515.219 453.578 515.464 452.974 515.475 452.308C515.564 451.663 515.399 451.033 514.999 450.341C514.599 449.648 514.121 448.935 513.289 448.294C512.535 447.674 511.839 447.152 511.079 446.865C510.32 446.578 509.597 446.468 508.91 446.535C508.223 446.602 507.629 446.944 507.129 447.563C506.77 447.968 506.509 448.317 506.425 448.629C506.264 448.92 506.279 449.175 506.216 449.409L506.917 450.851L506.162 451.485L504.78 449.777C504.899 449.642 505.061 449.351 505.265 448.903C505.447 448.534 505.609 448.243 505.77 447.952C505.932 447.66 506.193 447.312 506.552 446.907C507.073 446.21 507.907 445.597 508.812 445.338Z" fill="#313131"/>
<path d="M505.598 461.705C505.857 462.61 505.882 463.453 505.673 464.234C505.464 465.014 505.099 465.752 504.442 466.329C503.744 467.062 502.953 467.519 502.146 467.721C501.339 467.923 500.439 467.849 499.602 467.541C498.764 467.233 497.911 466.67 497.101 465.951C496.233 465.133 495.562 464.201 495.246 463.196C494.909 462.269 494.749 461.306 494.979 460.448C495.131 459.569 495.595 458.773 496.194 458.098C496.892 457.365 497.684 456.908 498.511 456.628C499.318 456.426 500.218 456.5 501.056 456.808C501.893 457.116 502.746 457.679 503.557 458.398L505.292 456.605L502.033 453.473L500.981 454.279L500.461 453.721L503.374 450.655L503.914 451.134L503.132 452.179L509.978 458.78L510.931 458.032L511.45 458.589L508.559 461.578L508.039 461.021L508.821 459.976L505.832 457.084L504.097 458.877C504.903 459.929 505.339 460.799 505.598 461.705ZM504.634 463.119C504.395 462.135 503.689 461.026 502.493 459.869C501.433 458.832 500.346 458.207 499.311 458.013C498.276 457.819 497.37 458.078 496.672 458.811C495.974 459.544 495.765 460.324 496.003 461.308C496.241 462.292 496.947 463.401 498.221 464.578C499.281 465.615 500.29 466.22 501.304 466.492C502.319 466.764 503.146 466.484 503.845 465.751C504.543 465.018 504.773 464.16 504.634 463.119Z" fill="#313131"/>
<path d="M490.595 470.564C489.95 470.475 489.092 470.245 488.077 469.973C487.375 469.785 486.829 469.638 486.439 469.534C486.127 469.45 485.872 469.466 485.674 469.58L485.101 469.844L484.582 469.287L485.936 467.977C486.134 467.863 486.41 467.77 486.956 467.916C487.424 468.042 488.126 468.23 489.063 468.481C490.056 468.83 490.837 469.04 491.482 469.129C492.028 469.275 492.46 469.224 492.7 468.953L493.377 468.299L490.394 465.074L489.264 465.858L488.744 465.301L491.849 462.453L492.368 463.01L491.529 463.956L498.015 470.963L499.046 470.236L499.566 470.793L496.56 473.584L496.041 473.027L496.822 471.982L493.839 468.757L492.844 469.661L493.577 475.043L494.608 474.315L495.128 474.873L492.341 477.471L491.821 476.914L492.582 475.947L491.969 470.43C491.829 470.643 491.24 470.653 490.595 470.564Z" fill="#313131"/>
<path d="M482.976 471.533C483.84 471.43 484.72 471.582 485.515 472.046C486.41 472.453 487.143 473.151 487.912 474.026C488.681 474.901 489.174 475.87 489.412 476.854C489.65 477.837 489.654 478.758 489.346 479.596C489.038 480.433 488.574 481.229 487.819 481.863C486.626 482.881 485.346 483.291 484.055 483.112C482.765 482.934 481.564 482.11 480.332 480.777C479.563 479.901 479.07 478.933 478.832 477.949C478.594 476.965 478.59 476.044 478.919 475.129C479.169 474.193 479.691 473.496 480.446 472.862C481.264 471.994 482.112 471.636 482.976 471.533ZM488.364 478.58C488.225 477.539 487.617 476.373 486.521 475.159C485.502 473.966 484.515 473.283 483.521 472.933C482.528 472.584 481.643 472.765 480.888 473.399C480.132 474.032 479.824 474.87 479.963 475.911C480.103 476.952 480.71 478.118 481.786 479.41C482.804 480.603 483.792 481.285 484.786 481.635C485.8 481.907 486.685 481.726 487.44 481.092C488.195 480.458 488.503 479.621 488.364 478.58Z" fill="#313131"/>
<path d="M481.226 485.867L482.315 485.238L482.813 485.874L481.225 487.121C480.928 487.292 480.589 487.62 480.23 488.025C479.891 488.352 479.573 488.602 479.376 488.716C478.225 489.578 477.355 490.015 476.59 490.06C475.825 490.106 475.165 489.762 474.666 489.127C474.224 488.59 473.98 487.939 473.992 487.273C474.003 486.607 474.248 486.004 474.727 485.463C473.972 486.097 473.223 486.398 472.478 486.366C471.734 486.334 471.074 485.99 470.575 485.354C469.962 484.521 469.703 483.615 469.876 482.658C470.049 481.701 470.831 480.656 472.101 479.658C472.419 479.409 472.716 479.238 472.935 479.045C473.57 478.547 473.966 478.318 474.086 478.183L475.674 476.936L476.095 477.55L475.178 478.476L481.226 485.867ZM472.699 480.237C471.866 480.85 471.444 481.489 471.354 482.134C471.265 482.779 471.431 483.409 471.93 484.045C472.428 484.68 472.933 484.983 473.5 485.051C474.067 485.119 474.64 484.855 475.374 484.299C476.207 483.686 476.744 483.244 476.885 483.031L474.084 479.437C473.772 479.353 473.356 479.66 472.699 480.237ZM476.748 484.165L476.113 484.664C475.576 485.105 475.274 485.61 475.205 486.177C475.137 486.744 475.324 487.296 475.843 487.853C476.285 488.39 476.789 488.692 477.279 488.74C477.768 488.787 478.34 488.522 479.075 487.966C479.392 487.717 479.632 487.447 479.95 487.197L480.169 487.005L477.56 483.63C477.285 483.723 477.066 483.916 476.748 484.165Z" fill="#313131"/>
<g style="mix-blend-mode:overlay">
<circle cx="140.764" cy="101.621" r="1.64213" fill="#313131"/>
</g>
<g style="mix-blend-mode:overlay">
<circle cx="472.883" cy="80.5774" r="1.64213" fill="#313131"/>
</g>
</g>
</symbol>
</svg>
