<svg width="401" height="235" viewBox="0 0 401 235" fill="none" xmlns="http://www.w3.org/2000/svg" xmlns:xlink="http://www.w3.org/1999/xlink">
<symbol id="airplane" width="401" height="235" viewBox="0 0 401 235">
<mask id="mask0_142_450" style="mask-type:alpha" maskUnits="userSpaceOnUse" x="20" y="14" width="360" height="194">
<path d="M58.1911 116.107L20.0057 126.564L23.0213 132.579L37.4925 135.458L38.4572 172.959L21.4011 177.629L22.2376 180.684L45.9461 184.317L65.345 184.205L105.085 177.427L106.779 181.615L103.725 182.452L99.2214 192.99L101.661 201.899L114.075 207.257L123.494 204.678L127.976 196.062L149.848 191.988L161.801 199.661L173.535 197.543L176.671 186.011L172.307 174.071L163.691 169.589L162.785 166.279L188.942 164.863L274.923 147.065L289.091 147.838L306.047 135.806L338.471 128.295L340.201 122.622L371.004 114.187L378.684 108.253L379.187 102.095L369.737 97.5671L343.113 95.2797L319.202 96.9016L316.291 58.2918L367.196 35.3215L370.172 25.2023L359.77 18.1988L324.858 14.6235L305.347 18.3244L147.218 88.4445L143.299 82.1288L123.921 80.32L124.512 92.4727L104.792 95.4099L102.98 88.7911L99.3884 85.6697L71.0372 92.0649L67.9158 95.6563L62.5699 97.1202L43.2768 87.6258L32.5849 90.5536L34.7459 98.4453L52.9267 106.876L58.1911 116.107Z" fill="#D9D9D9"/>
</mask>
<g mask="url(#mask0_142_450)">
<rect x="-2.01538" y="98.1128" width="374.797" height="146.223" transform="rotate(-15.3143 -2.01538 98.1128)" fill="url(#pattern0)"/>
</g>
</symbol>
<defs>
<pattern id="pattern0" patternContentUnits="objectBoundingBox" width="1" height="1">
<use xlink:href="#image0_142_450" transform="scale(0.00140845 0.00361011)"/>
</pattern>
</svg>
